<?xml version="1.0" encoding="UTF-8" standalone="no"?>
<!DOCTYPE svg PUBLIC "-//W3C//DTD SVG 1.1//EN"
 "http://www.w3.org/Graphics/SVG/1.1/DTD/svg11.dtd">
<!-- Generated by graphviz version 12.2.1 (20241206.2353)
 -->
<!-- Title: architecture Pages: 1 -->
<svg width="1091pt" height="787pt"
 viewBox="0.00 0.00 1091.05 787.00" xmlns="http://www.w3.org/2000/svg" xmlns:xlink="http://www.w3.org/1999/xlink">
<g id="graph0" class="graph" transform="scale(1 1) rotate(0) translate(4 783)">
<title>architecture</title>
<polygon fill="white" stroke="none" points="-4,4 -4,-783 1087.05,-783 1087.05,4 -4,4"/>
<g id="clust1" class="cluster">
<title>shoggoth_host</title>
<polygon fill="#e8f4f8" stroke="black" stroke-dasharray="5,2" points="138.9,-8 138.9,-771 885.02,-771 885.02,-8 138.9,-8"/>
<text text-anchor="middle" x="511.96" y="-753.7" font-family="Times,serif" font-size="14.00">shoggoth.local</text>
</g>
<g id="clust2" class="cluster">
<title>shoggoth_host.direct_access_group</title>
</g>
<g id="clust3" class="cluster">
<title>shoggoth_host.direct_access_group.service_proxy</title>
<polygon fill="lightsteelblue" stroke="black" points="165.15,-130 165.15,-730 288.8,-730 288.8,-130 165.15,-130"/>
<text text-anchor="middle" x="226.98" y="-712.7" font-family="Times,serif" font-size="14.00">web (angie)</text>
</g>
<g id="clust4" class="cluster">
<title>shoggoth_host.direct_access_group.service_proxy.proxy_services</title>
<polygon fill="#f0f8ff" stroke="black" stroke-dasharray="5,2" points="173.15,-186 173.15,-647 280.8,-647 280.8,-186 173.15,-186"/>
<text text-anchor="middle" x="226.98" y="-629.7" font-family="Times,serif" font-size="14.00">proxies</text>
</g>
<g id="clust5" class="cluster">
<title>shoggoth_host.behind_proxy_group</title>
</g>
<g id="clust6" class="cluster">
<title>shoggoth_host.behind_proxy_group.gitea_group</title>
<polygon fill="#e8f4f8" stroke="black" points="344,-337 344,-435 869.02,-435 869.02,-337 344,-337"/>
<text text-anchor="middle" x="606.51" y="-417.7" font-family="Times,serif" font-size="14.00">gitea</text>
</g>
<g id="clust7" class="cluster">
<title>shoggoth_host.behind_proxy_group.redmine_group</title>
<polygon fill="#e8f4f8" stroke="black" points="327.05,-443 327.05,-541 643.5,-541 643.5,-443 327.05,-443"/>
<text text-anchor="middle" x="485.27" y="-523.7" font-family="Times,serif" font-size="14.00">redmine</text>
</g>
<g id="clust8" class="cluster">
<title>external_services</title>
<polygon fill="#fff8dc" stroke="black" stroke-dasharray="5,2" points="896.9,-13 896.9,-244 1075.05,-244 1075.05,-13 896.9,-13"/>
<text text-anchor="middle" x="985.97" y="-226.7" font-family="Times,serif" font-size="14.00">External Services</text>
</g>
<g id="clust9" class="cluster">
<title>client_host</title>
<polygon fill="#f0f0f0" stroke="black" stroke-dasharray="5,2" points="8,-138 8,-485 126.9,-485 126.9,-138 8,-138"/>
<text text-anchor="middle" x="67.45" y="-467.7" font-family="Times,serif" font-size="14.00">Client</text>
</g>
<!-- shoggoth_host.direct_access_group.service_proxy.proxy_services.proxy_apt -->
<g id="node1" class="node">
<title>shoggoth_host.direct_access_group.service_proxy.proxy_services.proxy_apt</title>
<polygon fill="lightgreen" stroke="black" points="263.05,-230 190.9,-230 190.9,-194 263.05,-194 263.05,-230"/>
<text text-anchor="middle" x="226.98" y="-208.3" font-family="Times,serif" font-size="11.00">apt&#45;cache.</text>
</g>
<!-- shoggoth_host.behind_proxy_group.apt_cache -->
<g id="node18" class="node">
<title>shoggoth_host.behind_proxy_group.apt_cache</title>
<polygon fill="lightsteelblue" stroke="black" points="868.9,-327 778,-327 778,-323 774,-323 774,-319 778,-319 778,-299 774,-299 774,-295 778,-295 778,-291 868.9,-291 868.9,-327"/>
<polyline fill="none" stroke="black" points="778,-323 782,-323 782,-319 778,-319"/>
<polyline fill="none" stroke="black" points="778,-299 782,-299 782,-295 778,-295"/>
<text text-anchor="middle" x="823.45" y="-305.3" font-family="Times,serif" font-size="11.00">apt&#45;cacher&#45;ng</text>
</g>
<!-- shoggoth_host.direct_access_group.service_proxy.proxy_services.proxy_apt&#45;&gt;shoggoth_host.behind_proxy_group.apt_cache -->
<g id="edge2" class="edge">
<title>shoggoth_host.direct_access_group.service_proxy.proxy_services.proxy_apt&#45;&gt;shoggoth_host.behind_proxy_group.apt_cache</title>
<path fill="none" stroke="black" d="M263.21,-217.54C302.27,-223.69 367.12,-233.95 422.95,-243 545.64,-262.89 689.42,-286.79 766.63,-299.67"/>
<polygon fill="black" stroke="black" points="765.6,-303.04 776.04,-301.24 766.75,-296.14 765.6,-303.04"/>
</g>
<!-- shoggoth_host.direct_access_group.service_proxy.proxy_services.proxy_git_pages -->
<g id="node2" class="node">
<title>shoggoth_host.direct_access_group.service_proxy.proxy_services.proxy_git_pages</title>
<polygon fill="lightgreen" stroke="black" points="261.93,-452 192.03,-452 192.03,-416 261.93,-416 261.93,-452"/>
<text text-anchor="middle" x="226.98" y="-430.3" font-family="Times,serif" font-size="11.00">git&#45;pages.</text>
</g>
<!-- shoggoth_host.behind_proxy_group.git_pages_service -->
<g id="node20" class="node">
<title>shoggoth_host.behind_proxy_group.git_pages_service</title>
<polygon fill="lightsteelblue" stroke="black" points="856.53,-273 790.38,-273 790.38,-269 786.38,-269 786.38,-265 790.38,-265 790.38,-245 786.38,-245 786.38,-241 790.38,-241 790.38,-237 856.53,-237 856.53,-273"/>
<polyline fill="none" stroke="black" points="790.38,-269 794.38,-269 794.38,-265 790.38,-265"/>
<polyline fill="none" stroke="black" points="790.38,-245 794.38,-245 794.38,-241 790.38,-241"/>
<text text-anchor="middle" x="823.45" y="-251.3" font-family="Times,serif" font-size="11.00">git&#45;pages</text>
</g>
<!-- shoggoth_host.direct_access_group.service_proxy.proxy_services.proxy_git_pages&#45;&gt;shoggoth_host.behind_proxy_group.git_pages_service -->
<g id="edge5" class="edge">
<title>shoggoth_host.direct_access_group.service_proxy.proxy_services.proxy_git_pages&#45;&gt;shoggoth_host.behind_proxy_group.git_pages_service</title>
<path fill="none" stroke="black" d="M262.09,-430.81C278.23,-427.46 296.28,-420.67 307.05,-407 324.87,-384.38 298.22,-297.87 319.05,-278 384.02,-216.02 668.46,-238.65 778.64,-250.05"/>
<polygon fill="black" stroke="black" points="778.15,-253.52 788.46,-251.09 778.88,-246.56 778.15,-253.52"/>
</g>
<!-- shoggoth_host.direct_access_group.service_proxy.proxy_services.proxy_mcp -->
<g id="node3" class="node">
<title>shoggoth_host.direct_access_group.service_proxy.proxy_services.proxy_mcp</title>
<polygon fill="lightgreen" stroke="black" points="263.8,-398 190.15,-398 190.15,-362 263.8,-362 263.8,-398"/>
<text text-anchor="middle" x="226.98" y="-376.3" font-family="Times,serif" font-size="11.00">gitea&#45;mcp.</text>
</g>
<!-- shoggoth_host.behind_proxy_group.gitea_group.gitea_mcp -->
<g id="node13" class="node">
<title>shoggoth_host.behind_proxy_group.gitea_group.gitea_mcp</title>
<polygon fill="lightsteelblue" stroke="black" points="406,-383 352,-383 352,-379 348,-379 348,-375 352,-375 352,-355 348,-355 348,-351 352,-351 352,-347 406,-347 406,-383"/>
<polyline fill="none" stroke="black" points="352,-379 356,-379 356,-375 352,-375"/>
<polyline fill="none" stroke="black" points="352,-355 356,-355 356,-351 352,-351"/>
<text text-anchor="middle" x="379" y="-361.3" font-family="Times,serif" font-size="11.00">mcp</text>
</g>
<!-- shoggoth_host.direct_access_group.service_proxy.proxy_services.proxy_mcp&#45;&gt;shoggoth_host.behind_proxy_group.gitea_group.gitea_mcp -->
<g id="edge17" class="edge">
<title>shoggoth_host.direct_access_group.service_proxy.proxy_services.proxy_mcp&#45;&gt;shoggoth_host.behind_proxy_group.gitea_group.gitea_mcp</title>
<path fill="none" stroke="black" d="M264.29,-376.37C287.44,-374.05 317.35,-371.06 340.69,-368.73"/>
<polygon fill="black" stroke="black" points="340.78,-372.24 350.38,-367.76 340.08,-365.27 340.78,-372.24"/>
</g>
<!-- shoggoth_host.direct_access_group.service_proxy.proxy_services.proxy_redmine -->
<g id="node4" class="node">
<title>shoggoth_host.direct_access_group.service_proxy.proxy_services.proxy_redmine</title>
<polygon fill="lightgreen" stroke="black" points="259.3,-614 194.65,-614 194.65,-578 259.3,-578 259.3,-614"/>
<text text-anchor="middle" x="226.98" y="-592.3" font-family="Times,serif" font-size="11.00">redmine.</text>
</g>
<!-- shoggoth_host.behind_proxy_group.redmine_group.redmine_service -->
<g id="node22" class="node">
<title>shoggoth_host.behind_proxy_group.redmine_group.redmine_service</title>
<polygon fill="lightsteelblue" stroke="black" points="519.85,-506 458.95,-506 458.95,-502 454.95,-502 454.95,-498 458.95,-498 458.95,-478 454.95,-478 454.95,-474 458.95,-474 458.95,-470 519.85,-470 519.85,-506"/>
<polyline fill="none" stroke="black" points="458.95,-502 462.95,-502 462.95,-498 458.95,-498"/>
<polyline fill="none" stroke="black" points="458.95,-478 462.95,-478 462.95,-474 458.95,-474"/>
<text text-anchor="middle" x="489.4" y="-484.3" font-family="Times,serif" font-size="11.00">redmine</text>
</g>
<!-- shoggoth_host.direct_access_group.service_proxy.proxy_services.proxy_redmine&#45;&gt;shoggoth_host.behind_proxy_group.redmine_group.redmine_service -->
<g id="edge30" class="edge">
<title>shoggoth_host.direct_access_group.service_proxy.proxy_services.proxy_redmine&#45;&gt;shoggoth_host.behind_proxy_group.redmine_group.redmine_service</title>
<path fill="none" stroke="black" d="M259.63,-594.95C299.9,-592.4 370.5,-583.8 422.95,-555 440.72,-545.24 456.71,-529.09 468.43,-515.1"/>
<polygon fill="black" stroke="black" points="471.02,-517.47 474.55,-507.48 465.56,-513.08 471.02,-517.47"/>
</g>
<!-- shoggoth_host.direct_access_group.service_proxy.proxy_services.proxy_git_http -->
<g id="node5" class="node">
<title>shoggoth_host.direct_access_group.service_proxy.proxy_services.proxy_git_http</title>
<polygon fill="lightgreen" stroke="black" points="253.98,-560 199.98,-560 199.98,-524 253.98,-524 253.98,-560"/>
<text text-anchor="middle" x="226.98" y="-538.3" font-family="Times,serif" font-size="11.00">git.</text>
</g>
<!-- shoggoth_host.behind_proxy_group.gitea_group.git_service -->
<g id="node16" class="node">
<title>shoggoth_host.behind_proxy_group.gitea_group.git_service</title>
<polygon fill="lightsteelblue" stroke="black" points="516.4,-381 462.4,-381 462.4,-377 458.4,-377 458.4,-373 462.4,-373 462.4,-353 458.4,-353 458.4,-349 462.4,-349 462.4,-345 516.4,-345 516.4,-381"/>
<polyline fill="none" stroke="black" points="462.4,-377 466.4,-377 466.4,-373 462.4,-373"/>
<polyline fill="none" stroke="black" points="462.4,-353 466.4,-353 466.4,-349 462.4,-349"/>
<text text-anchor="middle" x="489.4" y="-359.3" font-family="Times,serif" font-size="11.00">gitea</text>
</g>
<!-- shoggoth_host.direct_access_group.service_proxy.proxy_services.proxy_git_http&#45;&gt;shoggoth_host.behind_proxy_group.gitea_group.git_service -->
<g id="edge26" class="edge">
<title>shoggoth_host.direct_access_group.service_proxy.proxy_services.proxy_git_http&#45;&gt;shoggoth_host.behind_proxy_group.gitea_group.git_service</title>
<path fill="none" stroke="black" d="M254.4,-544.13C304.51,-547.91 409.6,-554.56 422.95,-545 463.39,-516.02 441.96,-485.76 458.95,-439 464.63,-423.36 471.31,-406.06 476.86,-391.92"/>
<polygon fill="black" stroke="black" points="480.06,-393.34 480.48,-382.75 473.55,-390.77 480.06,-393.34"/>
</g>
<!-- shoggoth_host.direct_access_group.service_proxy.proxy_services.proxy_ollama -->
<g id="node6" class="node">
<title>shoggoth_host.direct_access_group.service_proxy.proxy_services.proxy_ollama</title>
<polygon fill="lightgreen" stroke="black" points="255.18,-344 198.78,-344 198.78,-308 255.18,-308 255.18,-344"/>
<text text-anchor="middle" x="226.98" y="-322.3" font-family="Times,serif" font-size="11.00">ollama.</text>
</g>
<!-- shoggoth_host.behind_proxy_group.ollama_service -->
<g id="node19" class="node">
<title>shoggoth_host.behind_proxy_group.ollama_service</title>
<polygon fill="lightsteelblue" stroke="black" points="419.2,-328.7 338.8,-328.7 338.8,-324.7 334.8,-324.7 334.8,-320.7 338.8,-320.7 338.8,-295.3 334.8,-295.3 334.8,-291.3 338.8,-291.3 338.8,-287.3 419.2,-287.3 419.2,-328.7"/>
<polyline fill="none" stroke="black" points="338.8,-324.7 342.8,-324.7 342.8,-320.7 338.8,-320.7"/>
<polyline fill="none" stroke="black" points="338.8,-295.3 342.8,-295.3 342.8,-291.3 338.8,-291.3"/>
<text text-anchor="middle" x="379" y="-311.05" font-family="Times,serif" font-size="11.00">LLM server</text>
<text text-anchor="middle" x="379" y="-297.55" font-family="Times,serif" font-size="11.00">(ollama)</text>
</g>
<!-- shoggoth_host.direct_access_group.service_proxy.proxy_services.proxy_ollama&#45;&gt;shoggoth_host.behind_proxy_group.ollama_service -->
<g id="edge31" class="edge">
<title>shoggoth_host.direct_access_group.service_proxy.proxy_services.proxy_ollama&#45;&gt;shoggoth_host.behind_proxy_group.ollama_service</title>
<path fill="none" stroke="black" d="M255.49,-322.7C275.48,-320.3 303.12,-316.98 327.09,-314.11"/>
<polygon fill="black" stroke="black" points="327.49,-317.59 337,-312.92 326.66,-310.64 327.49,-317.59"/>
</g>
<!-- shoggoth_host.direct_access_group.service_proxy.proxy_services.proxy_redmine_mcp -->
<g id="node7" class="node">
<title>shoggoth_host.direct_access_group.service_proxy.proxy_services.proxy_redmine_mcp</title>
<polygon fill="lightgreen" stroke="black" points="272.8,-506 181.15,-506 181.15,-470 272.8,-470 272.8,-506"/>
<text text-anchor="middle" x="226.98" y="-484.3" font-family="Times,serif" font-size="11.00">redmine&#45;mcp.</text>
</g>
<!-- shoggoth_host.behind_proxy_group.redmine_group.redmine_mcp -->
<g id="node23" class="node">
<title>shoggoth_host.behind_proxy_group.redmine_group.redmine_mcp</title>
<polygon fill="lightsteelblue" stroke="black" points="422.95,-506 335.05,-506 335.05,-502 331.05,-502 331.05,-498 335.05,-498 335.05,-478 331.05,-478 331.05,-474 335.05,-474 335.05,-470 422.95,-470 422.95,-506"/>
<polyline fill="none" stroke="black" points="335.05,-502 339.05,-502 339.05,-498 335.05,-498"/>
<polyline fill="none" stroke="black" points="335.05,-478 339.05,-478 339.05,-474 335.05,-474"/>
<text text-anchor="middle" x="379" y="-484.3" font-family="Times,serif" font-size="11.00">redmine&#45;mcp</text>
</g>
<!-- shoggoth_host.direct_access_group.service_proxy.proxy_services.proxy_redmine_mcp&#45;&gt;shoggoth_host.behind_proxy_group.redmine_group.redmine_mcp -->
<g id="edge39" class="edge">
<title>shoggoth_host.direct_access_group.service_proxy.proxy_services.proxy_redmine_mcp&#45;&gt;shoggoth_host.behind_proxy_group.redmine_group.redmine_mcp</title>
<path fill="none" stroke="black" d="M272.99,-488C288.84,-488 306.82,-488 323.38,-488"/>
<polygon fill="black" stroke="black" points="323.05,-491.5 333.05,-488 323.05,-484.5 323.05,-491.5"/>
</g>
<!-- shoggoth_host.direct_access_group.service_proxy.proxy_services.proxy_git -->
<g id="node8" class="node">
<title>shoggoth_host.direct_access_group.service_proxy.proxy_services.proxy_git</title>
<polygon fill="lightgreen" stroke="black" points="253.98,-289.7 199.98,-289.7 199.98,-248.3 253.98,-248.3 253.98,-289.7"/>
<text text-anchor="middle" x="226.98" y="-272.05" font-family="Times,serif" font-size="11.00">:3022</text>
<text text-anchor="middle" x="226.98" y="-258.55" font-family="Times,serif" font-size="11.00">git/ssh</text>
</g>
<!-- shoggoth_host.direct_access_group.service_proxy.proxy_services.proxy_git&#45;&gt;shoggoth_host.behind_proxy_group.gitea_group.git_service -->
<g id="edge27" class="edge">
<title>shoggoth_host.direct_access_group.service_proxy.proxy_services.proxy_git&#45;&gt;shoggoth_host.behind_proxy_group.gitea_group.git_service</title>
<path fill="none" stroke="black" d="M254.39,-262.52C293.66,-254.38 368.63,-244.63 422.95,-273 447.74,-285.95 465.42,-313.03 476.11,-334.12"/>
<polygon fill="black" stroke="black" points="472.94,-335.62 480.41,-343.13 479.26,-332.6 472.94,-335.62"/>
</g>
<!-- shoggoth_host.direct_access_group.service_proxy.build_cache -->
<g id="node9" class="node">
<title>shoggoth_host.direct_access_group.service_proxy.build_cache</title>
<path fill="lightblue" stroke="black" d="M267.93,-172.69C267.93,-174.62 249.57,-176.18 226.98,-176.18 204.38,-176.18 186.03,-174.62 186.03,-172.69 186.03,-172.69 186.03,-141.31 186.03,-141.31 186.03,-139.38 204.38,-137.82 226.98,-137.82 249.57,-137.82 267.93,-139.38 267.93,-141.31 267.93,-141.31 267.93,-172.69 267.93,-172.69"/>
<path fill="none" stroke="black" d="M267.93,-172.69C267.93,-170.77 249.57,-169.21 226.98,-169.21 204.38,-169.21 186.03,-170.77 186.03,-172.69"/>
<text text-anchor="middle" x="226.98" y="-153.3" font-family="Times,serif" font-size="11.00">build&#45;cache.</text>
</g>
<!-- shoggoth_host.direct_access_group.service_proxy.build_cache&#45;&gt;shoggoth_host.behind_proxy_group.gitea_group.gitea_mcp -->
<!-- shoggoth_host.behind_proxy_group.gitea_group.ci_job -->
<g id="node14" class="node">
<title>shoggoth_host.behind_proxy_group.gitea_group.ci_job</title>
<polygon fill="lightsteelblue" stroke="black" points="742,-381 688,-381 688,-377 684,-377 684,-373 688,-373 688,-353 684,-353 684,-349 688,-349 688,-345 742,-345 742,-381"/>
<polyline fill="none" stroke="black" points="688,-377 692,-377 692,-373 688,-373"/>
<polyline fill="none" stroke="black" points="688,-353 692,-353 692,-349 688,-349"/>
<text text-anchor="middle" x="715" y="-359.3" font-family="Times,serif" font-size="11.00">CI job</text>
</g>
<!-- shoggoth_host.direct_access_group.service_proxy.build_cache&#45;&gt;shoggoth_host.behind_proxy_group.gitea_group.ci_job -->
<!-- shoggoth_host.direct_access_group.service_proxy.build_cache&#45;&gt;shoggoth_host.behind_proxy_group.gitea_group.git_service -->
<!-- shoggoth_host.behind_proxy_group.gitea_group.gitea_runner -->
<g id="node17" class="node">
<title>shoggoth_host.behind_proxy_group.gitea_group.gitea_runner</title>
<polygon fill="lightsteelblue" stroke="black" points="652,-381 555.85,-381 555.85,-377 551.85,-377 551.85,-373 555.85,-373 555.85,-353 551.85,-353 551.85,-349 555.85,-349 555.85,-345 652,-345 652,-381"/>
<polyline fill="none" stroke="black" points="555.85,-377 559.85,-377 559.85,-373 555.85,-373"/>
<polyline fill="none" stroke="black" points="555.85,-353 559.85,-353 559.85,-349 555.85,-349"/>
<text text-anchor="middle" x="603.92" y="-359.3" font-family="Times,serif" font-size="11.00">actions runner</text>
</g>
<!-- shoggoth_host.direct_access_group.service_proxy.build_cache&#45;&gt;shoggoth_host.behind_proxy_group.gitea_group.gitea_runner -->
<!-- shoggoth_host.direct_access_group.service_proxy.build_cache&#45;&gt;shoggoth_host.behind_proxy_group.apt_cache -->
<!-- shoggoth_host.direct_access_group.service_proxy.build_cache&#45;&gt;shoggoth_host.behind_proxy_group.ollama_service -->
<!-- shoggoth_host.direct_access_group.service_proxy.home_page -->
<g id="node10" class="node">
<title>shoggoth_host.direct_access_group.service_proxy.home_page</title>
<polygon fill="#f0f8ff" stroke="black" points="258.93,-696.7 189.03,-696.7 189.03,-655.3 264.93,-655.3 264.93,-690.7 258.93,-696.7"/>
<polyline fill="none" stroke="black" points="258.93,-696.7 258.93,-690.7"/>
<polyline fill="none" stroke="black" points="264.93,-690.7 258.93,-690.7"/>
<text text-anchor="middle" x="226.98" y="-679.05" font-family="Times,serif" font-size="11.00">:80</text>
<text text-anchor="middle" x="226.98" y="-665.55" font-family="Times,serif" font-size="11.00">home page</text>
</g>
<!-- shoggoth_host.direct_access_group.docker_cache -->
<g id="node11" class="node">
<title>shoggoth_host.direct_access_group.docker_cache</title>
<polygon fill="lightsteelblue" stroke="black" points="299.05,-119.7 154.9,-119.7 154.9,-115.7 150.9,-115.7 150.9,-111.7 154.9,-111.7 154.9,-86.3 150.9,-86.3 150.9,-82.3 154.9,-82.3 154.9,-78.3 299.05,-78.3 299.05,-119.7"/>
<polyline fill="none" stroke="black" points="154.9,-115.7 158.9,-115.7 158.9,-111.7 154.9,-111.7"/>
<polyline fill="none" stroke="black" points="154.9,-86.3 158.9,-86.3 158.9,-82.3 154.9,-82.3"/>
<text text-anchor="middle" x="226.98" y="-102.05" font-family="Times,serif" font-size="11.00">:3128</text>
<text text-anchor="middle" x="226.98" y="-88.55" font-family="Times,serif" font-size="11.00">(docker registry proxy)</text>
</g>
<!-- external_services.docker_registries -->
<g id="node26" class="node">
<title>external_services.docker_registries</title>
<path fill="honeydew" stroke="black" d="M1067.05,-130.29C1067.05,-133.14 1030.71,-135.46 985.97,-135.46 941.24,-135.46 904.9,-133.14 904.9,-130.29 904.9,-130.29 904.9,-83.71 904.9,-83.71 904.9,-80.86 941.24,-78.54 985.97,-78.54 1030.71,-78.54 1067.05,-80.86 1067.05,-83.71 1067.05,-83.71 1067.05,-130.29 1067.05,-130.29"/>
<path fill="none" stroke="black" d="M1067.05,-130.29C1067.05,-127.43 1030.71,-125.11 985.97,-125.11 941.24,-125.11 904.9,-127.43 904.9,-130.29"/>
<text text-anchor="middle" x="985.97" y="-110.05" font-family="Times,serif" font-size="11.00">Docker Registries</text>
<text text-anchor="middle" x="985.97" y="-96.55" font-family="Times,serif" font-size="11.00">(Docker Hub, GHCR, etc.)</text>
</g>
<!-- shoggoth_host.direct_access_group.docker_cache&#45;&gt;external_services.docker_registries -->
<g id="edge16" class="edge">
<title>shoggoth_host.direct_access_group.docker_cache&#45;&gt;external_services.docker_registries</title>
<path fill="none" stroke="black" d="M299.43,-90.55C351.7,-85.09 424.35,-79 488.4,-79 488.4,-79 488.4,-79 716,-79 775.27,-79 841.49,-85.81 893.39,-92.71"/>
<polygon fill="black" stroke="black" points="892.7,-96.15 903.08,-94.03 893.64,-89.21 892.7,-96.15"/>
</g>
<!-- shoggoth_host.direct_access_group.dns_service -->
<g id="node12" class="node">
<title>shoggoth_host.direct_access_group.dns_service</title>
<polygon fill="lightsteelblue" stroke="black" points="257.8,-60 196.15,-60 196.15,-56 192.15,-56 192.15,-52 196.15,-52 196.15,-32 192.15,-32 192.15,-28 196.15,-28 196.15,-24 257.8,-24 257.8,-60"/>
<polyline fill="none" stroke="black" points="196.15,-56 200.15,-56 200.15,-52 196.15,-52"/>
<polyline fill="none" stroke="black" points="196.15,-32 200.15,-32 200.15,-28 196.15,-28"/>
<text text-anchor="middle" x="226.98" y="-38.3" font-family="Times,serif" font-size="11.00">:53 DNS</text>
</g>
<!-- external_services.external_dns -->
<g id="node24" class="node">
<title>external_services.external_dns</title>
<ellipse fill="honeydew" stroke="black" cx="985.97" cy="-41" rx="65.34" ry="19.73"/>
<text text-anchor="middle" x="985.97" y="-37.3" font-family="Times,serif" font-size="11.00">External DNS</text>
</g>
<!-- shoggoth_host.direct_access_group.dns_service&#45;&gt;external_services.external_dns -->
<g id="edge3" class="edge">
<title>shoggoth_host.direct_access_group.dns_service&#45;&gt;external_services.external_dns</title>
<path fill="none" stroke="black" d="M258.05,-41.81C306.54,-41.52 404.98,-41 488.4,-41 488.4,-41 488.4,-41 716,-41 781.18,-41 855.24,-41 909.12,-41"/>
<polygon fill="black" stroke="black" points="908.79,-44.5 918.79,-41 908.79,-37.5 908.79,-44.5"/>
</g>
<!-- shoggoth_host.behind_proxy_group.gitea_group.gitea_mcp&#45;&gt;shoggoth_host.behind_proxy_group.gitea_group.git_service -->
<g id="edge18" class="edge">
<title>shoggoth_host.behind_proxy_group.gitea_group.gitea_mcp&#45;&gt;shoggoth_host.behind_proxy_group.gitea_group.git_service</title>
<path fill="none" stroke="black" d="M406.24,-364.52C419.59,-364.27 436.06,-363.97 450.73,-363.69"/>
<polygon fill="black" stroke="black" points="450.58,-367.2 460.51,-363.51 450.45,-360.2 450.58,-367.2"/>
</g>
<!-- shoggoth_host.behind_proxy_group.gitea_group.ci_job&#45;&gt;shoggoth_host.direct_access_group.service_proxy.build_cache -->
<g id="edge7" class="edge">
<title>shoggoth_host.behind_proxy_group.gitea_group.ci_job&#45;&gt;shoggoth_host.direct_access_group.service_proxy.build_cache</title>
<path fill="none" stroke="black" d="M708.18,-344.86C699.34,-319.6 680.5,-273.49 652,-243 605.12,-192.84 585.79,-182.14 519.85,-163 438.4,-139.36 338.71,-144.06 279.44,-150.15"/>
<polygon fill="black" stroke="black" points="279.21,-146.66 269.64,-151.22 279.96,-153.62 279.21,-146.66"/>
</g>
<!-- shoggoth_host.behind_proxy_group.gitea_group.ci_job&#45;&gt;shoggoth_host.direct_access_group.dns_service -->
<g id="edge23" class="edge">
<title>shoggoth_host.behind_proxy_group.gitea_group.ci_job&#45;&gt;shoggoth_host.direct_access_group.dns_service</title>
<path fill="none" stroke="black" d="M713.52,-344.71C711.51,-306.69 701.46,-218.59 652,-170 596.65,-115.61 365.01,-67.42 269.46,-49.46"/>
<polygon fill="black" stroke="black" points="270.2,-46.04 259.72,-47.65 268.92,-52.92 270.2,-46.04"/>
</g>
<!-- shoggoth_host.behind_proxy_group.gitea_group.cache_volume -->
<g id="node15" class="node">
<title>shoggoth_host.behind_proxy_group.gitea_group.cache_volume</title>
<path fill="lightblue" stroke="black" d="M861.03,-396.29C861.03,-399.14 844.18,-401.46 823.45,-401.46 802.72,-401.46 785.88,-399.14 785.88,-396.29 785.88,-396.29 785.88,-349.71 785.88,-349.71 785.88,-346.86 802.72,-344.54 823.45,-344.54 844.18,-344.54 861.03,-346.86 861.03,-349.71 861.03,-349.71 861.03,-396.29 861.03,-396.29"/>
<path fill="none" stroke="black" d="M861.03,-396.29C861.03,-393.43 844.18,-391.11 823.45,-391.11 802.72,-391.11 785.88,-393.43 785.88,-396.29"/>
<text text-anchor="middle" x="823.45" y="-376.05" font-family="Times,serif" font-size="11.00">data cache</text>
<text text-anchor="middle" x="823.45" y="-362.55" font-family="Times,serif" font-size="11.00">volume</text>
</g>
<!-- shoggoth_host.behind_proxy_group.gitea_group.ci_job&#45;&gt;shoggoth_host.behind_proxy_group.gitea_group.cache_volume -->
<g id="edge20" class="edge">
<title>shoggoth_host.behind_proxy_group.gitea_group.ci_job&#45;&gt;shoggoth_host.behind_proxy_group.gitea_group.cache_volume</title>
<path fill="none" stroke="black" d="M742.31,-365.47C752,-366.38 763.3,-367.44 774.31,-368.48"/>
<polygon fill="black" stroke="black" points="773.81,-371.95 784.09,-369.4 774.46,-364.98 773.81,-371.95"/>
</g>
<!-- shoggoth_host.behind_proxy_group.gitea_group.ci_job&#45;&gt;shoggoth_host.behind_proxy_group.apt_cache -->
<g id="edge22" class="edge">
<title>shoggoth_host.behind_proxy_group.gitea_group.ci_job&#45;&gt;shoggoth_host.behind_proxy_group.apt_cache</title>
<path fill="none" stroke="black" d="M742.31,-349.65C752.5,-344.48 764.48,-338.41 776.02,-332.55"/>
<polygon fill="black" stroke="black" points="777.32,-335.82 784.65,-328.18 774.15,-329.58 777.32,-335.82"/>
</g>
<!-- shoggoth_host.behind_proxy_group.gitea_group.ci_job&#45;&gt;shoggoth_host.behind_proxy_group.git_pages_service -->
<g id="edge21" class="edge">
<title>shoggoth_host.behind_proxy_group.gitea_group.ci_job&#45;&gt;shoggoth_host.behind_proxy_group.git_pages_service</title>
<path fill="none" stroke="black" d="M727.15,-344.7C738.44,-327.17 757.18,-300.69 778,-282 778.91,-281.19 779.84,-280.38 780.8,-279.59"/>
<polygon fill="black" stroke="black" points="782.74,-282.51 788.66,-273.72 778.55,-276.9 782.74,-282.51"/>
</g>
<!-- shoggoth_host.behind_proxy_group.gitea_group.git_service&#45;&gt;shoggoth_host.behind_proxy_group.gitea_group.gitea_runner -->
<g id="edge28" class="edge">
<title>shoggoth_host.behind_proxy_group.gitea_group.git_service&#45;&gt;shoggoth_host.behind_proxy_group.gitea_group.gitea_runner</title>
<path fill="none" stroke="black" d="M516.78,-363C525.09,-363 534.63,-363 544.26,-363"/>
<polygon fill="black" stroke="black" points="544.03,-366.5 554.03,-363 544.03,-359.5 544.03,-366.5"/>
</g>
<!-- shoggoth_host.behind_proxy_group.gitea_group.gitea_runner&#45;&gt;shoggoth_host.direct_access_group.docker_cache -->
<g id="edge15" class="edge">
<title>shoggoth_host.behind_proxy_group.gitea_group.gitea_runner&#45;&gt;shoggoth_host.direct_access_group.docker_cache</title>
<path fill="none" stroke="black" d="M597.29,-344.59C586.84,-313.22 561.61,-249.11 519.85,-211 461.23,-157.5 374.36,-128.58 310.62,-113.61"/>
<polygon fill="black" stroke="black" points="311.41,-110.2 300.88,-111.4 309.86,-117.02 311.41,-110.2"/>
</g>
<!-- shoggoth_host.behind_proxy_group.gitea_group.gitea_runner&#45;&gt;shoggoth_host.behind_proxy_group.gitea_group.ci_job -->
<g id="edge19" class="edge">
<title>shoggoth_host.behind_proxy_group.gitea_group.gitea_runner&#45;&gt;shoggoth_host.behind_proxy_group.gitea_group.ci_job</title>
<path fill="none" stroke="black" d="M652.45,-363C660.36,-363 668.47,-363 676.1,-363"/>
<polygon fill="black" stroke="black" points="676.09,-366.5 686.09,-363 676.09,-359.5 676.09,-366.5"/>
</g>
<!-- external_services.apt_repos -->
<g id="node25" class="node">
<title>external_services.apt_repos</title>
<path fill="honeydew" stroke="black" d="M1042.3,-205.29C1042.3,-208.14 1017.05,-210.46 985.97,-210.46 954.9,-210.46 929.65,-208.14 929.65,-205.29 929.65,-205.29 929.65,-158.71 929.65,-158.71 929.65,-155.86 954.9,-153.54 985.97,-153.54 1017.05,-153.54 1042.3,-155.86 1042.3,-158.71 1042.3,-158.71 1042.3,-205.29 1042.3,-205.29"/>
<path fill="none" stroke="black" d="M1042.3,-205.29C1042.3,-202.43 1017.05,-200.11 985.97,-200.11 954.9,-200.11 929.65,-202.43 929.65,-205.29"/>
<text text-anchor="middle" x="985.97" y="-185.05" font-family="Times,serif" font-size="11.00">APT Repositories</text>
<text text-anchor="middle" x="985.97" y="-171.55" font-family="Times,serif" font-size="11.00">(Ubuntu/Debian)</text>
</g>
<!-- shoggoth_host.behind_proxy_group.apt_cache&#45;&gt;external_services.apt_repos -->
<g id="edge24" class="edge">
<title>shoggoth_host.behind_proxy_group.apt_cache&#45;&gt;external_services.apt_repos</title>
<path fill="none" stroke="black" d="M869.14,-291.35C874.66,-288.52 880.09,-285.39 885.02,-282 910.68,-264.35 935.46,-239.63 953.93,-219.19"/>
<polygon fill="black" stroke="black" points="956.41,-221.66 960.43,-211.85 951.18,-217.01 956.41,-221.66"/>
</g>
<!-- shoggoth_host.behind_proxy_group.redmine_group.redmine_db -->
<g id="node21" class="node">
<title>shoggoth_host.behind_proxy_group.redmine_group.redmine_db</title>
<path fill="lightblue" stroke="black" d="M635.5,-502.29C635.5,-505.14 621.35,-507.46 603.92,-507.46 586.5,-507.46 572.35,-505.14 572.35,-502.29 572.35,-502.29 572.35,-455.71 572.35,-455.71 572.35,-452.86 586.5,-450.54 603.92,-450.54 621.35,-450.54 635.5,-452.86 635.5,-455.71 635.5,-455.71 635.5,-502.29 635.5,-502.29"/>
<path fill="none" stroke="black" d="M635.5,-502.29C635.5,-499.43 621.35,-497.11 603.92,-497.11 586.5,-497.11 572.35,-499.43 572.35,-502.29"/>
<text text-anchor="middle" x="603.92" y="-482.05" font-family="Times,serif" font-size="11.00">postgres</text>
<text text-anchor="middle" x="603.92" y="-468.55" font-family="Times,serif" font-size="11.00">db</text>
</g>
<!-- shoggoth_host.behind_proxy_group.redmine_group.redmine_service&#45;&gt;shoggoth_host.behind_proxy_group.redmine_group.redmine_db -->
<g id="edge34" class="edge">
<title>shoggoth_host.behind_proxy_group.redmine_group.redmine_service&#45;&gt;shoggoth_host.behind_proxy_group.redmine_group.redmine_db</title>
<path fill="none" stroke="black" d="M520.26,-485.61C532.65,-484.62 547.24,-483.45 560.7,-482.38"/>
<polygon fill="black" stroke="black" points="560.94,-485.87 570.63,-481.58 560.39,-478.89 560.94,-485.87"/>
</g>
<!-- shoggoth_host.behind_proxy_group.redmine_group.redmine_mcp&#45;&gt;shoggoth_host.behind_proxy_group.redmine_group.redmine_service -->
<g id="edge35" class="edge">
<title>shoggoth_host.behind_proxy_group.redmine_group.redmine_mcp&#45;&gt;shoggoth_host.behind_proxy_group.redmine_group.redmine_service</title>
<path fill="none" stroke="black" d="M423.15,-488C431.17,-488 439.52,-488 447.46,-488"/>
<polygon fill="black" stroke="black" points="447.21,-491.5 457.21,-488 447.21,-484.5 447.21,-491.5"/>
</g>
<!-- client_host.ai_agent -->
<g id="node27" class="node">
<title>client_host.ai_agent</title>
<polygon fill="lightyellow" stroke="black" points="118.9,-398 16,-398 16,-362 118.9,-362 118.9,-398"/>
<text text-anchor="middle" x="67.45" y="-376.3" font-family="Times,serif" font-size="11.00">AI coding agent</text>
</g>
<!-- client_host.ai_agent&#45;&gt;shoggoth_host.direct_access_group.service_proxy.proxy_services.proxy_mcp -->
<g id="edge25" class="edge">
<title>client_host.ai_agent&#45;&gt;shoggoth_host.direct_access_group.service_proxy.proxy_services.proxy_mcp</title>
<path fill="none" stroke="black" d="M119.16,-380C138.23,-380 159.82,-380 178.57,-380"/>
<polygon fill="black" stroke="black" points="178.32,-383.5 188.32,-380 178.32,-376.5 178.32,-383.5"/>
</g>
<!-- client_host.ai_agent&#45;&gt;shoggoth_host.direct_access_group.service_proxy.proxy_services.proxy_ollama -->
<g id="edge33" class="edge">
<title>client_host.ai_agent&#45;&gt;shoggoth_host.direct_access_group.service_proxy.proxy_services.proxy_ollama</title>
<path fill="none" stroke="black" d="M115.28,-361.56C123.14,-358.61 131.23,-355.66 138.9,-353 154.79,-347.5 172.48,-341.92 187.75,-337.26"/>
<polygon fill="black" stroke="black" points="188.36,-340.73 196.92,-334.49 186.34,-334.03 188.36,-340.73"/>
</g>
<!-- client_host.ai_agent&#45;&gt;shoggoth_host.direct_access_group.service_proxy.proxy_services.proxy_redmine_mcp -->
<g id="edge32" class="edge">
<title>client_host.ai_agent&#45;&gt;shoggoth_host.direct_access_group.service_proxy.proxy_services.proxy_redmine_mcp</title>
<path fill="none" stroke="black" d="M117.89,-398.4C121.24,-400.93 124.3,-403.78 126.9,-407 142.33,-426.14 122.24,-442.92 138.9,-461 147.19,-470 158.42,-476.03 170.05,-480.06"/>
<polygon fill="black" stroke="black" points="168.74,-483.32 179.33,-482.79 170.73,-476.61 168.74,-483.32"/>
</g>
<!-- client_host.client_docker -->
<g id="node28" class="node">
<title>client_host.client_docker</title>
<polygon fill="lightyellow" stroke="black" points="94.45,-182 40.45,-182 40.45,-146 94.45,-146 94.45,-182"/>
<text text-anchor="middle" x="67.45" y="-160.3" font-family="Times,serif" font-size="11.00">docker</text>
</g>
<!-- client_host.client_docker&#45;&gt;shoggoth_host.direct_access_group.docker_cache -->
<g id="edge14" class="edge">
<title>client_host.client_docker&#45;&gt;shoggoth_host.direct_access_group.docker_cache</title>
<path fill="none" stroke="black" d="M94.95,-148.13C107.91,-140.78 123.91,-132.3 138.9,-126 140.66,-125.26 142.44,-124.53 144.24,-123.82"/>
<polygon fill="black" stroke="black" points="145.23,-127.18 153.34,-120.36 142.75,-120.64 145.23,-127.18"/>
</g>
<!-- client_host.client_apt -->
<g id="node29" class="node">
<title>client_host.client_apt</title>
<polygon fill="lightyellow" stroke="black" points="94.45,-290 40.45,-290 40.45,-254 94.45,-254 94.45,-290"/>
<text text-anchor="middle" x="67.45" y="-268.3" font-family="Times,serif" font-size="11.00">apt</text>
</g>
<!-- client_host.client_apt&#45;&gt;shoggoth_host.direct_access_group.service_proxy.proxy_services.proxy_apt -->
<g id="edge1" class="edge">
<title>client_host.client_apt&#45;&gt;shoggoth_host.direct_access_group.service_proxy.proxy_services.proxy_apt</title>
<path fill="none" stroke="black" d="M94.72,-260.08C104.81,-255.44 116.42,-250.04 126.9,-245 132.27,-242.42 133.37,-241.22 138.9,-239 151.98,-233.74 166.5,-228.88 179.87,-224.76"/>
<polygon fill="black" stroke="black" points="180.75,-228.15 189.33,-221.93 178.74,-221.45 180.75,-228.15"/>
</g>
<!-- client_host.client_git -->
<g id="node30" class="node">
<title>client_host.client_git</title>
<polygon fill="lightyellow" stroke="black" points="94.45,-344 40.45,-344 40.45,-308 94.45,-308 94.45,-344"/>
<text text-anchor="middle" x="67.45" y="-322.3" font-family="Times,serif" font-size="11.00">git</text>
</g>
<!-- client_host.client_git&#45;&gt;shoggoth_host.direct_access_group.service_proxy.proxy_services.proxy_git -->
<g id="edge37" class="edge">
<title>client_host.client_git&#45;&gt;shoggoth_host.direct_access_group.service_proxy.proxy_services.proxy_git</title>
<path fill="none" stroke="black" d="M94.8,-315.66C108,-310.54 124.25,-304.33 138.9,-299 155.22,-293.06 173.37,-286.76 188.86,-281.48"/>
<polygon fill="black" stroke="black" points="189.83,-284.84 198.17,-278.31 187.57,-278.22 189.83,-284.84"/>
</g>
<!-- client_host.client_browser -->
<g id="node31" class="node">
<title>client_host.client_browser</title>
<polygon fill="lightyellow" stroke="black" points="98.65,-452 36.25,-452 36.25,-416 98.65,-416 98.65,-452"/>
<text text-anchor="middle" x="67.45" y="-430.3" font-family="Times,serif" font-size="11.00">Browser</text>
</g>
<!-- client_host.client_browser&#45;&gt;shoggoth_host.direct_access_group.service_proxy.proxy_services.proxy_git_pages -->
<g id="edge4" class="edge">
<title>client_host.client_browser&#45;&gt;shoggoth_host.direct_access_group.service_proxy.proxy_services.proxy_git_pages</title>
<path fill="none" stroke="black" d="M98.82,-434C121.95,-434 154.17,-434 180.39,-434"/>
<polygon fill="black" stroke="black" points="180.07,-437.5 190.07,-434 180.07,-430.5 180.07,-437.5"/>
</g>
<!-- client_host.client_browser&#45;&gt;shoggoth_host.direct_access_group.service_proxy.proxy_services.proxy_redmine -->
<g id="edge29" class="edge">
<title>client_host.client_browser&#45;&gt;shoggoth_host.direct_access_group.service_proxy.proxy_services.proxy_redmine</title>
<path fill="none" stroke="black" d="M73.03,-452.16C81.28,-481.12 101.34,-537.67 138.9,-569 151.52,-579.52 168.22,-585.95 183.62,-589.88"/>
<polygon fill="black" stroke="black" points="182.52,-593.22 193.05,-591.98 184.05,-586.39 182.52,-593.22"/>
</g>
<!-- client_host.client_browser&#45;&gt;shoggoth_host.direct_access_group.service_proxy.proxy_services.proxy_git_http -->
<g id="edge36" class="edge">
<title>client_host.client_browser&#45;&gt;shoggoth_host.direct_access_group.service_proxy.proxy_services.proxy_git_http</title>
<path fill="none" stroke="black" d="M79.97,-452.41C92.38,-470.8 113.77,-498.61 138.9,-515 153.87,-524.76 172.58,-531.17 188.82,-535.28"/>
<polygon fill="black" stroke="black" points="187.58,-538.58 198.11,-537.42 189.16,-531.76 187.58,-538.58"/>
</g>
<!-- client_host.client_browser&#45;&gt;shoggoth_host.direct_access_group.service_proxy.home_page -->
<g id="edge38" class="edge">
<title>client_host.client_browser&#45;&gt;shoggoth_host.direct_access_group.service_proxy.home_page</title>
<path fill="none" stroke="black" d="M68.9,-452.39C70.92,-493.96 81.79,-595.82 138.9,-651 149.34,-661.09 163.58,-667.15 177.51,-670.78"/>
<polygon fill="black" stroke="black" points="176.55,-674.15 187.06,-672.88 178.05,-667.32 176.55,-674.15"/>
</g>
<!-- client_host.client_ccache -->
<g id="node32" class="node">
<title>client_host.client_ccache</title>
<polygon fill="lightyellow" stroke="black" points="117.78,-236 17.13,-236 17.13,-200 117.78,-200 117.78,-236"/>
<text text-anchor="middle" x="67.45" y="-214.3" font-family="Times,serif" font-size="11.00">ccache/sccache</text>
</g>
<!-- client_host.client_ccache&#45;&gt;shoggoth_host.direct_access_group.service_proxy.build_cache -->
<g id="edge6" class="edge">
<title>client_host.client_ccache&#45;&gt;shoggoth_host.direct_access_group.service_proxy.build_cache</title>
<path fill="none" stroke="black" d="M111.14,-199.56C116.53,-196.86 121.91,-193.98 126.9,-191 132.62,-187.58 132.93,-184.97 138.9,-182 150.11,-176.42 162.77,-171.9 174.9,-168.31"/>
<polygon fill="black" stroke="black" points="175.67,-171.73 184.37,-165.68 173.8,-164.98 175.67,-171.73"/>
</g>
</g>
</svg>
