<?xml version="1.0" encoding="UTF-8" standalone="no"?>
<!DOCTYPE svg PUBLIC "-//W3C//DTD SVG 1.1//EN"
 "http://www.w3.org/Graphics/SVG/1.1/DTD/svg11.dtd">
<!-- Generated by graphviz version 12.2.1 (20241206.2353)
 -->
<!-- Title: architecture Pages: 1 -->
<svg width="1077pt" height="703pt"
 viewBox="0.00 0.00 1076.65 703.00" xmlns="http://www.w3.org/2000/svg" xmlns:xlink="http://www.w3.org/1999/xlink">
<g id="graph0" class="graph" transform="scale(1 1) rotate(0) translate(4 699)">
<title>architecture</title>
<polygon fill="white" stroke="none" points="-4,4 -4,-699 1072.65,-699 1072.65,4 -4,4"/>
<g id="clust1" class="cluster">
<title>shoggoth_host</title>
<polygon fill="#e8f4f8" stroke="black" stroke-dasharray="5,2" points="138.9,-32 138.9,-687 870.62,-687 870.62,-32 138.9,-32"/>
<text text-anchor="middle" x="504.76" y="-669.7" font-family="Times,serif" font-size="14.00">shoggoth.local</text>
</g>
<g id="clust2" class="cluster">
<title>shoggoth_host.behind_proxy_group</title>
</g>
<g id="clust3" class="cluster">
<title>shoggoth_host.behind_proxy_group.gitea_group</title>
<polygon fill="#e8f4f8" stroke="black" points="340.25,-153 340.25,-251 854.62,-251 854.62,-153 340.25,-153"/>
<text text-anchor="middle" x="597.44" y="-233.7" font-family="Times,serif" font-size="14.00">gitea</text>
</g>
<g id="clust4" class="cluster">
<title>shoggoth_host.direct_access_group</title>
</g>
<g id="clust5" class="cluster">
<title>shoggoth_host.direct_access_group.service_proxy</title>
<polygon fill="lightsteelblue" stroke="black" points="174.15,-154 174.15,-646 279.8,-646 279.8,-154 174.15,-154"/>
<text text-anchor="middle" x="226.97" y="-628.7" font-family="Times,serif" font-size="14.00">web (angie)</text>
</g>
<g id="clust6" class="cluster">
<title>shoggoth_host.direct_access_group.service_proxy.proxy_services</title>
<polygon fill="#f0f8ff" stroke="black" stroke-dasharray="5,2" points="182.15,-210 182.15,-563 271.8,-563 271.8,-210 182.15,-210"/>
<text text-anchor="middle" x="226.97" y="-545.7" font-family="Times,serif" font-size="14.00">proxies</text>
</g>
<g id="clust7" class="cluster">
<title>external_services</title>
<polygon fill="#fff8dc" stroke="black" stroke-dasharray="5,2" points="882.5,-8 882.5,-239 1060.65,-239 1060.65,-8 882.5,-8"/>
<text text-anchor="middle" x="971.57" y="-221.7" font-family="Times,serif" font-size="14.00">External Services</text>
</g>
<g id="clust8" class="cluster">
<title>client_host</title>
<polygon fill="#f0f0f0" stroke="black" stroke-dasharray="5,2" points="8,-159 8,-506 126.9,-506 126.9,-159 8,-159"/>
<text text-anchor="middle" x="67.45" y="-488.7" font-family="Times,serif" font-size="14.00">Client</text>
</g>
<!-- shoggoth_host.behind_proxy_group.apt_cache -->
<g id="node1" class="node">
<title>shoggoth_host.behind_proxy_group.apt_cache</title>
<polygon fill="lightsteelblue" stroke="black" points="854.5,-295 763.6,-295 763.6,-291 759.6,-291 759.6,-287 763.6,-287 763.6,-267 759.6,-267 759.6,-263 763.6,-263 763.6,-259 854.5,-259 854.5,-295"/>
<polyline fill="none" stroke="black" points="763.6,-291 767.6,-291 767.6,-287 763.6,-287"/>
<polyline fill="none" stroke="black" points="763.6,-267 767.6,-267 767.6,-263 763.6,-263"/>
<text text-anchor="middle" x="809.05" y="-273.3" font-family="Times,serif" font-size="11.00">apt&#45;cacher&#45;ng</text>
</g>
<!-- external_services.apt_repos -->
<g id="node19" class="node">
<title>external_services.apt_repos</title>
<path fill="honeydew" stroke="black" d="M1027.9,-200.29C1027.9,-203.14 1002.65,-205.46 971.57,-205.46 940.5,-205.46 915.25,-203.14 915.25,-200.29 915.25,-200.29 915.25,-153.71 915.25,-153.71 915.25,-150.86 940.5,-148.54 971.57,-148.54 1002.65,-148.54 1027.9,-150.86 1027.9,-153.71 1027.9,-153.71 1027.9,-200.29 1027.9,-200.29"/>
<path fill="none" stroke="black" d="M1027.9,-200.29C1027.9,-197.43 1002.65,-195.11 971.57,-195.11 940.5,-195.11 915.25,-197.43 915.25,-200.29"/>
<text text-anchor="middle" x="971.57" y="-180.05" font-family="Times,serif" font-size="11.00">APT Repositories</text>
<text text-anchor="middle" x="971.57" y="-166.55" font-family="Times,serif" font-size="11.00">(Ubuntu/Debian)</text>
</g>
<!-- shoggoth_host.behind_proxy_group.apt_cache&#45;&gt;external_services.apt_repos -->
<g id="edge4" class="edge">
<title>shoggoth_host.behind_proxy_group.apt_cache&#45;&gt;external_services.apt_repos</title>
<path fill="none" stroke="black" d="M854.77,-262.59C860.23,-260.3 865.63,-257.76 870.62,-255 891.62,-243.38 912.85,-227.52 930.32,-213.13"/>
<polygon fill="black" stroke="black" points="932.52,-215.85 937.93,-206.74 928.02,-210.49 932.52,-215.85"/>
</g>
<!-- shoggoth_host.behind_proxy_group.gitea_group.gitea_mcp -->
<g id="node2" class="node">
<title>shoggoth_host.behind_proxy_group.gitea_group.gitea_mcp</title>
<polygon fill="lightsteelblue" stroke="black" points="402.25,-218 348.25,-218 348.25,-214 344.25,-214 344.25,-210 348.25,-210 348.25,-190 344.25,-190 344.25,-186 348.25,-186 348.25,-182 402.25,-182 402.25,-218"/>
<polyline fill="none" stroke="black" points="348.25,-214 352.25,-214 352.25,-210 348.25,-210"/>
<polyline fill="none" stroke="black" points="348.25,-190 352.25,-190 352.25,-186 348.25,-186"/>
<text text-anchor="middle" x="375.25" y="-196.3" font-family="Times,serif" font-size="11.00">mcp</text>
</g>
<!-- shoggoth_host.behind_proxy_group.gitea_group.git_service -->
<g id="node5" class="node">
<title>shoggoth_host.behind_proxy_group.gitea_group.git_service</title>
<polygon fill="lightsteelblue" stroke="black" points="505.45,-218 451.45,-218 451.45,-214 447.45,-214 447.45,-210 451.45,-210 451.45,-190 447.45,-190 447.45,-186 451.45,-186 451.45,-182 505.45,-182 505.45,-218"/>
<polyline fill="none" stroke="black" points="451.45,-214 455.45,-214 455.45,-210 451.45,-210"/>
<polyline fill="none" stroke="black" points="451.45,-190 455.45,-190 455.45,-186 451.45,-186"/>
<text text-anchor="middle" x="478.45" y="-196.3" font-family="Times,serif" font-size="11.00">gitea</text>
</g>
<!-- shoggoth_host.behind_proxy_group.gitea_group.gitea_mcp&#45;&gt;shoggoth_host.behind_proxy_group.gitea_group.git_service -->
<g id="edge9" class="edge">
<title>shoggoth_host.behind_proxy_group.gitea_group.gitea_mcp&#45;&gt;shoggoth_host.behind_proxy_group.gitea_group.git_service</title>
<path fill="none" stroke="black" d="M402.57,-200C413.94,-200 427.44,-200 439.83,-200"/>
<polygon fill="black" stroke="black" points="439.74,-203.5 449.74,-200 439.74,-196.5 439.74,-203.5"/>
</g>
<!-- shoggoth_host.behind_proxy_group.gitea_group.cache_volume -->
<g id="node3" class="node">
<title>shoggoth_host.behind_proxy_group.gitea_group.cache_volume</title>
<path fill="lightblue" stroke="black" d="M846.62,-212.29C846.62,-215.14 829.78,-217.46 809.05,-217.46 788.32,-217.46 771.47,-215.14 771.47,-212.29 771.47,-212.29 771.47,-165.71 771.47,-165.71 771.47,-162.86 788.32,-160.54 809.05,-160.54 829.78,-160.54 846.62,-162.86 846.62,-165.71 846.62,-165.71 846.62,-212.29 846.62,-212.29"/>
<path fill="none" stroke="black" d="M846.62,-212.29C846.62,-209.43 829.78,-207.11 809.05,-207.11 788.32,-207.11 771.47,-209.43 771.47,-212.29"/>
<text text-anchor="middle" x="809.05" y="-192.05" font-family="Times,serif" font-size="11.00">data cache</text>
<text text-anchor="middle" x="809.05" y="-178.55" font-family="Times,serif" font-size="11.00">volume</text>
</g>
<!-- shoggoth_host.behind_proxy_group.gitea_group.ci_job -->
<g id="node4" class="node">
<title>shoggoth_host.behind_proxy_group.gitea_group.ci_job</title>
<polygon fill="lightsteelblue" stroke="black" points="727.6,-207 673.6,-207 673.6,-203 669.6,-203 669.6,-199 673.6,-199 673.6,-179 669.6,-179 669.6,-175 673.6,-175 673.6,-171 727.6,-171 727.6,-207"/>
<polyline fill="none" stroke="black" points="673.6,-203 677.6,-203 677.6,-199 673.6,-199"/>
<polyline fill="none" stroke="black" points="673.6,-179 677.6,-179 677.6,-175 673.6,-175"/>
<text text-anchor="middle" x="700.6" y="-185.3" font-family="Times,serif" font-size="11.00">CI job</text>
</g>
<!-- shoggoth_host.behind_proxy_group.gitea_group.ci_job&#45;&gt;shoggoth_host.behind_proxy_group.apt_cache -->
<g id="edge3" class="edge">
<title>shoggoth_host.behind_proxy_group.gitea_group.ci_job&#45;&gt;shoggoth_host.behind_proxy_group.apt_cache</title>
<path fill="none" stroke="black" d="M715.65,-207.22C725.84,-219.67 740.58,-236.24 759.91,-251.77"/>
<polygon fill="black" stroke="black" points="757.52,-254.35 767.59,-257.66 761.78,-248.79 757.52,-254.35"/>
</g>
<!-- shoggoth_host.behind_proxy_group.gitea_group.ci_job&#45;&gt;shoggoth_host.behind_proxy_group.gitea_group.cache_volume -->
<g id="edge17" class="edge">
<title>shoggoth_host.behind_proxy_group.gitea_group.ci_job&#45;&gt;shoggoth_host.behind_proxy_group.gitea_group.cache_volume</title>
<path fill="none" stroke="black" d="M727.91,-189C737.6,-189 748.9,-189 759.91,-189"/>
<polygon fill="black" stroke="black" points="759.68,-192.5 769.68,-189 759.68,-185.5 759.68,-192.5"/>
</g>
<!-- shoggoth_host.behind_proxy_group.git_pages_service -->
<g id="node7" class="node">
<title>shoggoth_host.behind_proxy_group.git_pages_service</title>
<polygon fill="lightsteelblue" stroke="black" points="842.12,-349 775.97,-349 775.97,-345 771.97,-345 771.97,-341 775.97,-341 775.97,-321 771.97,-321 771.97,-317 775.97,-317 775.97,-313 842.12,-313 842.12,-349"/>
<polyline fill="none" stroke="black" points="775.97,-345 779.97,-345 779.97,-341 775.97,-341"/>
<polyline fill="none" stroke="black" points="775.97,-321 779.97,-321 779.97,-317 775.97,-317"/>
<text text-anchor="middle" x="809.05" y="-327.3" font-family="Times,serif" font-size="11.00">git&#45;pages</text>
</g>
<!-- shoggoth_host.behind_proxy_group.gitea_group.ci_job&#45;&gt;shoggoth_host.behind_proxy_group.git_pages_service -->
<g id="edge26" class="edge">
<title>shoggoth_host.behind_proxy_group.gitea_group.ci_job&#45;&gt;shoggoth_host.behind_proxy_group.git_pages_service</title>
<path fill="none" stroke="black" d="M707.93,-207.19C717.11,-231.55 736.11,-275.06 763.6,-304 764.73,-305.19 765.92,-306.34 767.16,-307.46"/>
<polygon fill="black" stroke="black" points="764.68,-309.96 774.7,-313.41 769.01,-304.47 764.68,-309.96"/>
</g>
<!-- shoggoth_host.direct_access_group.service_proxy.build_cache -->
<g id="node15" class="node">
<title>shoggoth_host.direct_access_group.service_proxy.build_cache</title>
<path fill="lightblue" stroke="black" d="M267.92,-196.69C267.92,-198.62 249.57,-200.18 226.97,-200.18 204.38,-200.18 186.02,-198.62 186.02,-196.69 186.02,-196.69 186.02,-165.31 186.02,-165.31 186.02,-163.38 204.38,-161.82 226.97,-161.82 249.57,-161.82 267.92,-163.38 267.92,-165.31 267.92,-165.31 267.92,-196.69 267.92,-196.69"/>
<path fill="none" stroke="black" d="M267.92,-196.69C267.92,-194.77 249.57,-193.21 226.97,-193.21 204.38,-193.21 186.02,-194.77 186.02,-196.69"/>
<text text-anchor="middle" x="226.97" y="-177.3" font-family="Times,serif" font-size="11.00">build&#45;cache.</text>
</g>
<!-- shoggoth_host.behind_proxy_group.gitea_group.ci_job&#45;&gt;shoggoth_host.direct_access_group.service_proxy.build_cache -->
<g id="edge12" class="edge">
<title>shoggoth_host.behind_proxy_group.gitea_group.ci_job&#45;&gt;shoggoth_host.direct_access_group.service_proxy.build_cache</title>
<path fill="none" stroke="black" d="M673.23,-171.87C662.61,-165.92 649.96,-160 637.6,-157 503.42,-124.41 464.49,-152.75 327.05,-166 311.6,-167.49 294.87,-169.76 279.65,-172.09"/>
<polygon fill="black" stroke="black" points="279.17,-168.63 269.84,-173.64 280.26,-175.54 279.17,-168.63"/>
</g>
<!-- shoggoth_host.direct_access_group.dns_service -->
<g id="node18" class="node">
<title>shoggoth_host.direct_access_group.dns_service</title>
<polygon fill="lightsteelblue" stroke="black" points="257.8,-84 196.15,-84 196.15,-80 192.15,-80 192.15,-76 196.15,-76 196.15,-56 192.15,-56 192.15,-52 196.15,-52 196.15,-48 257.8,-48 257.8,-84"/>
<polyline fill="none" stroke="black" points="196.15,-80 200.15,-80 200.15,-76 196.15,-76"/>
<polyline fill="none" stroke="black" points="196.15,-56 200.15,-56 200.15,-52 196.15,-52"/>
<text text-anchor="middle" x="226.97" y="-62.3" font-family="Times,serif" font-size="11.00">:53 DNS</text>
</g>
<!-- shoggoth_host.behind_proxy_group.gitea_group.ci_job&#45;&gt;shoggoth_host.direct_access_group.dns_service -->
<g id="edge27" class="edge">
<title>shoggoth_host.behind_proxy_group.gitea_group.ci_job&#45;&gt;shoggoth_host.direct_access_group.dns_service</title>
<path fill="none" stroke="black" d="M682.34,-170.61C670.76,-159.41 654.57,-145.81 637.6,-138 512.29,-80.35 345.9,-68.65 269.52,-66.42"/>
<polygon fill="black" stroke="black" points="269.65,-62.92 259.57,-66.17 269.48,-69.92 269.65,-62.92"/>
</g>
<!-- shoggoth_host.behind_proxy_group.gitea_group.gitea_runner -->
<g id="node6" class="node">
<title>shoggoth_host.behind_proxy_group.gitea_group.gitea_runner</title>
<polygon fill="lightsteelblue" stroke="black" points="637.6,-202 541.45,-202 541.45,-198 537.45,-198 537.45,-194 541.45,-194 541.45,-174 537.45,-174 537.45,-170 541.45,-170 541.45,-166 637.6,-166 637.6,-202"/>
<polyline fill="none" stroke="black" points="541.45,-198 545.45,-198 545.45,-194 541.45,-194"/>
<polyline fill="none" stroke="black" points="541.45,-174 545.45,-174 545.45,-170 541.45,-170"/>
<text text-anchor="middle" x="589.52" y="-180.3" font-family="Times,serif" font-size="11.00">actions runner</text>
</g>
<!-- shoggoth_host.behind_proxy_group.gitea_group.git_service&#45;&gt;shoggoth_host.behind_proxy_group.gitea_group.gitea_runner -->
<g id="edge33" class="edge">
<title>shoggoth_host.behind_proxy_group.gitea_group.git_service&#45;&gt;shoggoth_host.behind_proxy_group.gitea_group.gitea_runner</title>
<path fill="none" stroke="black" d="M505.85,-196.13C513.14,-195.06 521.34,-193.86 529.68,-192.63"/>
<polygon fill="black" stroke="black" points="530.18,-196.1 539.56,-191.18 529.16,-189.17 530.18,-196.1"/>
</g>
<!-- shoggoth_host.behind_proxy_group.gitea_group.gitea_runner&#45;&gt;shoggoth_host.behind_proxy_group.gitea_group.ci_job -->
<g id="edge25" class="edge">
<title>shoggoth_host.behind_proxy_group.gitea_group.gitea_runner&#45;&gt;shoggoth_host.behind_proxy_group.gitea_group.ci_job</title>
<path fill="none" stroke="black" d="M638.05,-186.18C645.96,-186.54 654.07,-186.91 661.7,-187.26"/>
<polygon fill="black" stroke="black" points="661.54,-190.76 671.69,-187.72 661.86,-183.77 661.54,-190.76"/>
</g>
<!-- shoggoth_host.direct_access_group.docker_cache -->
<g id="node17" class="node">
<title>shoggoth_host.direct_access_group.docker_cache</title>
<polygon fill="lightsteelblue" stroke="black" points="299.05,-143.7 154.9,-143.7 154.9,-139.7 150.9,-139.7 150.9,-135.7 154.9,-135.7 154.9,-110.3 150.9,-110.3 150.9,-106.3 154.9,-106.3 154.9,-102.3 299.05,-102.3 299.05,-143.7"/>
<polyline fill="none" stroke="black" points="154.9,-139.7 158.9,-139.7 158.9,-135.7 154.9,-135.7"/>
<polyline fill="none" stroke="black" points="154.9,-110.3 158.9,-110.3 158.9,-106.3 154.9,-106.3"/>
<text text-anchor="middle" x="226.97" y="-126.05" font-family="Times,serif" font-size="11.00">:3128</text>
<text text-anchor="middle" x="226.97" y="-112.55" font-family="Times,serif" font-size="11.00">(docker registry proxy)</text>
</g>
<!-- shoggoth_host.behind_proxy_group.gitea_group.gitea_runner&#45;&gt;shoggoth_host.direct_access_group.docker_cache -->
<g id="edge30" class="edge">
<title>shoggoth_host.behind_proxy_group.gitea_group.gitea_runner&#45;&gt;shoggoth_host.direct_access_group.docker_cache</title>
<path fill="none" stroke="black" d="M541.18,-173.23C529.52,-170.72 517.06,-168.15 505.45,-166 440.21,-153.89 365.9,-142.5 310.61,-134.49"/>
<polygon fill="black" stroke="black" points="311.35,-131.06 300.96,-133.1 310.36,-137.99 311.35,-131.06"/>
</g>
<!-- shoggoth_host.behind_proxy_group.ollama_service -->
<g id="node8" class="node">
<title>shoggoth_host.behind_proxy_group.ollama_service</title>
<polygon fill="lightsteelblue" stroke="black" points="415.45,-300.7 335.05,-300.7 335.05,-296.7 331.05,-296.7 331.05,-292.7 335.05,-292.7 335.05,-267.3 331.05,-267.3 331.05,-263.3 335.05,-263.3 335.05,-259.3 415.45,-259.3 415.45,-300.7"/>
<polyline fill="none" stroke="black" points="335.05,-296.7 339.05,-296.7 339.05,-292.7 335.05,-292.7"/>
<polyline fill="none" stroke="black" points="335.05,-267.3 339.05,-267.3 339.05,-263.3 335.05,-263.3"/>
<text text-anchor="middle" x="375.25" y="-283.05" font-family="Times,serif" font-size="11.00">LLM server</text>
<text text-anchor="middle" x="375.25" y="-269.55" font-family="Times,serif" font-size="11.00">(ollama)</text>
</g>
<!-- shoggoth_host.direct_access_group.service_proxy.proxy_services.proxy_mcp -->
<g id="node9" class="node">
<title>shoggoth_host.direct_access_group.service_proxy.proxy_services.proxy_mcp</title>
<polygon fill="lightgreen" stroke="black" points="263.8,-254 190.15,-254 190.15,-218 263.8,-218 263.8,-254"/>
<text text-anchor="middle" x="226.97" y="-232.3" font-family="Times,serif" font-size="11.00">gitea&#45;mcp.</text>
</g>
<!-- shoggoth_host.direct_access_group.service_proxy.proxy_services.proxy_mcp&#45;&gt;shoggoth_host.behind_proxy_group.gitea_group.gitea_mcp -->
<g id="edge6" class="edge">
<title>shoggoth_host.direct_access_group.service_proxy.proxy_services.proxy_mcp&#45;&gt;shoggoth_host.behind_proxy_group.gitea_group.gitea_mcp</title>
<path fill="none" stroke="black" d="M264.13,-227.1C286.32,-221.64 314.67,-214.66 337.05,-209.15"/>
<polygon fill="black" stroke="black" points="337.8,-212.57 346.68,-206.79 336.13,-205.78 337.8,-212.57"/>
</g>
<!-- shoggoth_host.direct_access_group.service_proxy.proxy_services.proxy_git_http -->
<g id="node10" class="node">
<title>shoggoth_host.direct_access_group.service_proxy.proxy_services.proxy_git_http</title>
<polygon fill="lightgreen" stroke="black" points="253.97,-476 199.97,-476 199.97,-440 253.97,-440 253.97,-476"/>
<text text-anchor="middle" x="226.97" y="-454.3" font-family="Times,serif" font-size="11.00">git.</text>
</g>
<!-- shoggoth_host.direct_access_group.service_proxy.proxy_services.proxy_git_http&#45;&gt;shoggoth_host.behind_proxy_group.gitea_group.git_service -->
<g id="edge11" class="edge">
<title>shoggoth_host.direct_access_group.service_proxy.proxy_services.proxy_git_http&#45;&gt;shoggoth_host.behind_proxy_group.gitea_group.git_service</title>
<path fill="none" stroke="black" d="M254.16,-451.42C270.01,-446.87 290.32,-440.01 307.05,-431 360.71,-402.09 378.31,-395.32 415.45,-347 443.14,-310.98 460.8,-260.76 469.92,-229.33"/>
<polygon fill="black" stroke="black" points="473.28,-230.31 472.59,-219.73 466.53,-228.43 473.28,-230.31"/>
</g>
<!-- shoggoth_host.direct_access_group.service_proxy.proxy_services.proxy_git -->
<g id="node11" class="node">
<title>shoggoth_host.direct_access_group.service_proxy.proxy_services.proxy_git</title>
<polygon fill="lightgreen" stroke="black" points="253.97,-367.7 199.97,-367.7 199.97,-326.3 253.97,-326.3 253.97,-367.7"/>
<text text-anchor="middle" x="226.97" y="-350.05" font-family="Times,serif" font-size="11.00">:3022</text>
<text text-anchor="middle" x="226.97" y="-336.55" font-family="Times,serif" font-size="11.00">git/ssh</text>
</g>
<!-- shoggoth_host.direct_access_group.service_proxy.proxy_services.proxy_git&#45;&gt;shoggoth_host.behind_proxy_group.gitea_group.git_service -->
<g id="edge19" class="edge">
<title>shoggoth_host.direct_access_group.service_proxy.proxy_services.proxy_git&#45;&gt;shoggoth_host.behind_proxy_group.gitea_group.git_service</title>
<path fill="none" stroke="black" d="M254.32,-351.99C293.29,-357.84 366.92,-362.87 415.45,-329 448.73,-305.78 464.78,-259.68 472.04,-229.35"/>
<polygon fill="black" stroke="black" points="475.44,-230.19 474.16,-219.67 468.6,-228.69 475.44,-230.19"/>
</g>
<!-- shoggoth_host.direct_access_group.service_proxy.proxy_services.proxy_apt -->
<g id="node12" class="node">
<title>shoggoth_host.direct_access_group.service_proxy.proxy_services.proxy_apt</title>
<polygon fill="lightgreen" stroke="black" points="263.05,-422 190.9,-422 190.9,-386 263.05,-386 263.05,-422"/>
<text text-anchor="middle" x="226.97" y="-400.3" font-family="Times,serif" font-size="11.00">apt&#45;cache.</text>
</g>
<!-- shoggoth_host.direct_access_group.service_proxy.proxy_services.proxy_apt&#45;&gt;shoggoth_host.behind_proxy_group.apt_cache -->
<g id="edge2" class="edge">
<title>shoggoth_host.direct_access_group.service_proxy.proxy_services.proxy_apt&#45;&gt;shoggoth_host.behind_proxy_group.apt_cache</title>
<path fill="none" stroke="black" d="M263.46,-407.71C311.79,-412.44 401.06,-420 477.45,-420 477.45,-420 477.45,-420 590.52,-420 660.62,-420 672.44,-385.25 727.6,-342 745.91,-327.65 745.5,-318.61 763.6,-304 764.4,-303.35 765.22,-302.71 766.04,-302.08"/>
<polygon fill="black" stroke="black" points="767.96,-305.01 774.08,-296.37 763.9,-299.31 767.96,-305.01"/>
</g>
<!-- shoggoth_host.direct_access_group.service_proxy.proxy_services.proxy_ollama -->
<g id="node13" class="node">
<title>shoggoth_host.direct_access_group.service_proxy.proxy_services.proxy_ollama</title>
<polygon fill="lightgreen" stroke="black" points="255.17,-308 198.77,-308 198.77,-272 255.17,-272 255.17,-308"/>
<text text-anchor="middle" x="226.97" y="-286.3" font-family="Times,serif" font-size="11.00">ollama.</text>
</g>
<!-- shoggoth_host.direct_access_group.service_proxy.proxy_services.proxy_ollama&#45;&gt;shoggoth_host.behind_proxy_group.ollama_service -->
<g id="edge28" class="edge">
<title>shoggoth_host.direct_access_group.service_proxy.proxy_services.proxy_ollama&#45;&gt;shoggoth_host.behind_proxy_group.ollama_service</title>
<path fill="none" stroke="black" d="M255.49,-288.12C274.6,-286.81 300.64,-285.03 323.47,-283.47"/>
<polygon fill="black" stroke="black" points="323.46,-286.98 333.2,-282.81 322.99,-280 323.46,-286.98"/>
</g>
<!-- shoggoth_host.direct_access_group.service_proxy.proxy_services.proxy_git_pages -->
<g id="node14" class="node">
<title>shoggoth_host.direct_access_group.service_proxy.proxy_services.proxy_git_pages</title>
<polygon fill="lightgreen" stroke="black" points="261.92,-530 192.02,-530 192.02,-494 261.92,-494 261.92,-530"/>
<text text-anchor="middle" x="226.97" y="-508.3" font-family="Times,serif" font-size="11.00">git&#45;pages.</text>
</g>
<!-- shoggoth_host.direct_access_group.service_proxy.proxy_services.proxy_git_pages&#45;&gt;shoggoth_host.behind_proxy_group.git_pages_service -->
<g id="edge29" class="edge">
<title>shoggoth_host.direct_access_group.service_proxy.proxy_services.proxy_git_pages&#45;&gt;shoggoth_host.behind_proxy_group.git_pages_service</title>
<path fill="none" stroke="black" d="M262.05,-503.92C309.88,-493.31 399.78,-476 477.45,-476 477.45,-476 477.45,-476 590.52,-476 674.67,-476 751.02,-399.95 786.74,-358"/>
<polygon fill="black" stroke="black" points="789.26,-360.45 792.96,-350.53 783.88,-355.97 789.26,-360.45"/>
</g>
<!-- shoggoth_host.direct_access_group.service_proxy.build_cache&#45;&gt;shoggoth_host.behind_proxy_group.apt_cache -->
<!-- shoggoth_host.direct_access_group.service_proxy.build_cache&#45;&gt;shoggoth_host.behind_proxy_group.gitea_group.gitea_mcp -->
<!-- shoggoth_host.direct_access_group.service_proxy.build_cache&#45;&gt;shoggoth_host.behind_proxy_group.gitea_group.ci_job -->
<!-- shoggoth_host.direct_access_group.service_proxy.build_cache&#45;&gt;shoggoth_host.behind_proxy_group.gitea_group.git_service -->
<!-- shoggoth_host.direct_access_group.service_proxy.build_cache&#45;&gt;shoggoth_host.behind_proxy_group.gitea_group.gitea_runner -->
<!-- shoggoth_host.direct_access_group.service_proxy.build_cache&#45;&gt;shoggoth_host.behind_proxy_group.ollama_service -->
<!-- shoggoth_host.direct_access_group.service_proxy.home_page -->
<g id="node16" class="node">
<title>shoggoth_host.direct_access_group.service_proxy.home_page</title>
<polygon fill="#f0f8ff" stroke="black" points="258.92,-612.7 189.02,-612.7 189.02,-571.3 264.92,-571.3 264.92,-606.7 258.92,-612.7"/>
<polyline fill="none" stroke="black" points="258.92,-612.7 258.92,-606.7"/>
<polyline fill="none" stroke="black" points="264.92,-606.7 258.92,-606.7"/>
<text text-anchor="middle" x="226.97" y="-595.05" font-family="Times,serif" font-size="11.00">:80</text>
<text text-anchor="middle" x="226.97" y="-581.55" font-family="Times,serif" font-size="11.00">home page</text>
</g>
<!-- external_services.docker_registries -->
<g id="node20" class="node">
<title>external_services.docker_registries</title>
<path fill="honeydew" stroke="black" d="M1052.65,-125.29C1052.65,-128.14 1016.31,-130.46 971.57,-130.46 926.84,-130.46 890.5,-128.14 890.5,-125.29 890.5,-125.29 890.5,-78.71 890.5,-78.71 890.5,-75.86 926.84,-73.54 971.57,-73.54 1016.31,-73.54 1052.65,-75.86 1052.65,-78.71 1052.65,-78.71 1052.65,-125.29 1052.65,-125.29"/>
<path fill="none" stroke="black" d="M1052.65,-125.29C1052.65,-122.43 1016.31,-120.11 971.57,-120.11 926.84,-120.11 890.5,-122.43 890.5,-125.29"/>
<text text-anchor="middle" x="971.57" y="-105.05" font-family="Times,serif" font-size="11.00">Docker Registries</text>
<text text-anchor="middle" x="971.57" y="-91.55" font-family="Times,serif" font-size="11.00">(Docker Hub, GHCR, etc.)</text>
</g>
<!-- shoggoth_host.direct_access_group.docker_cache&#45;&gt;external_services.docker_registries -->
<g id="edge31" class="edge">
<title>shoggoth_host.direct_access_group.docker_cache&#45;&gt;external_services.docker_registries</title>
<path fill="none" stroke="black" d="M297.43,-101.86C347.08,-88.6 415.77,-74 477.45,-74 477.45,-74 477.45,-74 701.6,-74 760.87,-74 827.09,-80.81 878.99,-87.71"/>
<polygon fill="black" stroke="black" points="878.3,-91.15 888.68,-89.03 879.24,-84.21 878.3,-91.15"/>
</g>
<!-- external_services.external_dns -->
<g id="node21" class="node">
<title>external_services.external_dns</title>
<ellipse fill="honeydew" stroke="black" cx="971.57" cy="-36" rx="65.34" ry="19.73"/>
<text text-anchor="middle" x="971.57" y="-32.3" font-family="Times,serif" font-size="11.00">External DNS</text>
</g>
<!-- shoggoth_host.direct_access_group.dns_service&#45;&gt;external_services.external_dns -->
<g id="edge32" class="edge">
<title>shoggoth_host.direct_access_group.dns_service&#45;&gt;external_services.external_dns</title>
<path fill="none" stroke="black" d="M258.17,-60C304.95,-51.25 397.84,-36 477.45,-36 477.45,-36 477.45,-36 701.6,-36 766.78,-36 840.84,-36 894.72,-36"/>
<polygon fill="black" stroke="black" points="894.39,-39.5 904.39,-36 894.39,-32.5 894.39,-39.5"/>
</g>
<!-- client_host.client_ccache -->
<g id="node22" class="node">
<title>client_host.client_ccache</title>
<polygon fill="lightyellow" stroke="black" points="117.77,-257 17.12,-257 17.12,-221 117.77,-221 117.77,-257"/>
<text text-anchor="middle" x="67.45" y="-235.3" font-family="Times,serif" font-size="11.00">ccache/sccache</text>
</g>
<!-- client_host.client_ccache&#45;&gt;shoggoth_host.direct_access_group.service_proxy.build_cache -->
<g id="edge7" class="edge">
<title>client_host.client_ccache&#45;&gt;shoggoth_host.direct_access_group.service_proxy.build_cache</title>
<path fill="none" stroke="black" d="M108.77,-220.57C114.86,-217.73 121.06,-214.81 126.9,-212 132.27,-209.42 133.34,-208.17 138.9,-206 150.34,-201.54 162.91,-197.47 174.85,-193.98"/>
<polygon fill="black" stroke="black" points="175.46,-197.44 184.13,-191.35 173.55,-190.71 175.46,-197.44"/>
</g>
<!-- client_host.client_git -->
<g id="node23" class="node">
<title>client_host.client_git</title>
<polygon fill="lightyellow" stroke="black" points="94.45,-365 40.45,-365 40.45,-329 94.45,-329 94.45,-365"/>
<text text-anchor="middle" x="67.45" y="-343.3" font-family="Times,serif" font-size="11.00">git</text>
</g>
<!-- client_host.client_git&#45;&gt;shoggoth_host.direct_access_group.service_proxy.proxy_services.proxy_git -->
<g id="edge18" class="edge">
<title>client_host.client_git&#45;&gt;shoggoth_host.direct_access_group.service_proxy.proxy_services.proxy_git</title>
<path fill="none" stroke="black" d="M94.82,-347C120.37,-347 159.4,-347 188.24,-347"/>
<polygon fill="black" stroke="black" points="188.01,-350.5 198.01,-347 188.01,-343.5 188.01,-350.5"/>
</g>
<!-- client_host.client_browser -->
<g id="node24" class="node">
<title>client_host.client_browser</title>
<polygon fill="lightyellow" stroke="black" points="98.65,-473 36.25,-473 36.25,-437 98.65,-437 98.65,-473"/>
<text text-anchor="middle" x="67.45" y="-451.3" font-family="Times,serif" font-size="11.00">Browser</text>
</g>
<!-- client_host.client_browser&#45;&gt;shoggoth_host.direct_access_group.service_proxy.proxy_services.proxy_git_http -->
<g id="edge10" class="edge">
<title>client_host.client_browser&#45;&gt;shoggoth_host.direct_access_group.service_proxy.proxy_services.proxy_git_http</title>
<path fill="none" stroke="black" d="M98.82,-455.58C124.29,-456.06 160.78,-456.76 188.14,-457.28"/>
<polygon fill="black" stroke="black" points="188.04,-460.78 198.11,-457.47 188.18,-453.78 188.04,-460.78"/>
</g>
<!-- client_host.client_browser&#45;&gt;shoggoth_host.direct_access_group.service_proxy.proxy_services.proxy_git_pages -->
<g id="edge21" class="edge">
<title>client_host.client_browser&#45;&gt;shoggoth_host.direct_access_group.service_proxy.proxy_services.proxy_git_pages</title>
<path fill="none" stroke="black" d="M99.04,-468.83C111.32,-474.17 125.67,-480.15 138.9,-485 152.5,-489.99 167.51,-494.86 181.18,-499.07"/>
<polygon fill="black" stroke="black" points="179.76,-502.29 190.35,-501.84 181.79,-495.59 179.76,-502.29"/>
</g>
<!-- client_host.client_browser&#45;&gt;shoggoth_host.direct_access_group.service_proxy.home_page -->
<g id="edge22" class="edge">
<title>client_host.client_browser&#45;&gt;shoggoth_host.direct_access_group.service_proxy.home_page</title>
<path fill="none" stroke="black" d="M75.15,-473.44C85.16,-498.38 106.4,-542.57 138.9,-567 150.1,-575.42 164.04,-581 177.47,-584.71"/>
<polygon fill="black" stroke="black" points="176.54,-588.08 187.08,-587.04 178.19,-581.28 176.54,-588.08"/>
</g>
<!-- client_host.client_docker -->
<g id="node25" class="node">
<title>client_host.client_docker</title>
<polygon fill="lightyellow" stroke="black" points="94.45,-203 40.45,-203 40.45,-167 94.45,-167 94.45,-203"/>
<text text-anchor="middle" x="67.45" y="-181.3" font-family="Times,serif" font-size="11.00">docker</text>
</g>
<!-- client_host.client_docker&#45;&gt;shoggoth_host.direct_access_group.docker_cache -->
<g id="edge23" class="edge">
<title>client_host.client_docker&#45;&gt;shoggoth_host.direct_access_group.docker_cache</title>
<path fill="none" stroke="black" d="M94.75,-170.68C107.8,-163.89 123.94,-155.99 138.9,-150 140.67,-149.29 142.46,-148.59 144.28,-147.9"/>
<polygon fill="black" stroke="black" points="145.23,-151.27 153.41,-144.54 142.82,-144.7 145.23,-151.27"/>
</g>
<!-- client_host.ai_agent -->
<g id="node26" class="node">
<title>client_host.ai_agent</title>
<polygon fill="lightyellow" stroke="black" points="118.9,-311 16,-311 16,-275 118.9,-275 118.9,-311"/>
<text text-anchor="middle" x="67.45" y="-289.3" font-family="Times,serif" font-size="11.00">AI coding agent</text>
</g>
<!-- client_host.ai_agent&#45;&gt;shoggoth_host.direct_access_group.service_proxy.proxy_services.proxy_mcp -->
<g id="edge5" class="edge">
<title>client_host.ai_agent&#45;&gt;shoggoth_host.direct_access_group.service_proxy.proxy_services.proxy_mcp</title>
<path fill="none" stroke="black" d="M109.89,-274.52C119.35,-270.54 129.41,-266.48 138.9,-263 151.79,-258.27 165.93,-253.65 179.01,-249.6"/>
<polygon fill="black" stroke="black" points="179.69,-253.05 188.24,-246.79 177.66,-246.36 179.69,-253.05"/>
</g>
<!-- client_host.ai_agent&#45;&gt;shoggoth_host.direct_access_group.service_proxy.proxy_services.proxy_ollama -->
<g id="edge24" class="edge">
<title>client_host.ai_agent&#45;&gt;shoggoth_host.direct_access_group.service_proxy.proxy_services.proxy_ollama</title>
<path fill="none" stroke="black" d="M119.16,-292.03C141.11,-291.62 166.41,-291.13 186.88,-290.74"/>
<polygon fill="black" stroke="black" points="186.86,-294.25 196.79,-290.56 186.73,-287.25 186.86,-294.25"/>
</g>
<!-- client_host.client_apt -->
<g id="node27" class="node">
<title>client_host.client_apt</title>
<polygon fill="lightyellow" stroke="black" points="94.45,-419 40.45,-419 40.45,-383 94.45,-383 94.45,-419"/>
<text text-anchor="middle" x="67.45" y="-397.3" font-family="Times,serif" font-size="11.00">apt</text>
</g>
<!-- client_host.client_apt&#45;&gt;shoggoth_host.direct_access_group.service_proxy.proxy_services.proxy_apt -->
<g id="edge20" class="edge">
<title>client_host.client_apt&#45;&gt;shoggoth_host.direct_access_group.service_proxy.proxy_services.proxy_apt</title>
<path fill="none" stroke="black" d="M94.82,-401.5C117.81,-401.94 151.7,-402.59 179.27,-403.11"/>
<polygon fill="black" stroke="black" points="179.07,-406.61 189.14,-403.3 179.21,-399.61 179.07,-406.61"/>
</g>
</g>
</svg>
