<?xml version="1.0" encoding="UTF-8" standalone="no"?>
<!DOCTYPE svg PUBLIC "-//W3C//DTD SVG 1.1//EN"
 "http://www.w3.org/Graphics/SVG/1.1/DTD/svg11.dtd">
<!-- Generated by graphviz version 12.2.1 (20241206.2353)
 -->
<!-- Title: architecture Pages: 1 -->
<svg width="1091pt" height="847pt"
 viewBox="0.00 0.00 1091.05 847.00" xmlns="http://www.w3.org/2000/svg" xmlns:xlink="http://www.w3.org/1999/xlink">
<g id="graph0" class="graph" transform="scale(1 1) rotate(0) translate(4 843)">
<title>architecture</title>
<polygon fill="white" stroke="none" points="-4,4 -4,-843 1087.05,-843 1087.05,4 -4,4"/>
<g id="clust1" class="cluster">
<title>shoggoth_host</title>
<polygon fill="#e8f4f8" stroke="black" stroke-dasharray="5,2" points="138.9,-8 138.9,-831 885.02,-831 885.02,-8 138.9,-8"/>
<text text-anchor="middle" x="511.96" y="-813.7" font-family="Times,serif" font-size="14.00">shoggoth.local</text>
</g>
<g id="clust2" class="cluster">
<title>shoggoth_host.behind_proxy_group</title>
</g>
<g id="clust3" class="cluster">
<title>shoggoth_host.behind_proxy_group.gitea_group</title>
<polygon fill="#e8f4f8" stroke="black" points="344,-306 344,-404 869.02,-404 869.02,-306 344,-306"/>
<text text-anchor="middle" x="606.51" y="-386.7" font-family="Times,serif" font-size="14.00">gitea</text>
</g>
<g id="clust4" class="cluster">
<title>shoggoth_host.behind_proxy_group.redmine_group</title>
<polygon fill="#e8f4f8" stroke="black" points="327.05,-200 327.05,-298 643.5,-298 643.5,-200 327.05,-200"/>
<text text-anchor="middle" x="485.27" y="-280.7" font-family="Times,serif" font-size="14.00">redmine</text>
</g>
<g id="clust5" class="cluster">
<title>shoggoth_host.direct_access_group</title>
</g>
<g id="clust6" class="cluster">
<title>shoggoth_host.direct_access_group.service_proxy</title>
<polygon fill="lightsteelblue" stroke="black" points="165.15,-128 165.15,-790 288.8,-790 288.8,-128 165.15,-128"/>
<text text-anchor="middle" x="226.98" y="-772.7" font-family="Times,serif" font-size="14.00">web (angie)</text>
</g>
<g id="clust7" class="cluster">
<title>shoggoth_host.direct_access_group.service_proxy.proxy_services</title>
<polygon fill="#f0f8ff" stroke="black" stroke-dasharray="5,2" points="173.15,-136 173.15,-651 280.8,-651 280.8,-136 173.15,-136"/>
<text text-anchor="middle" x="226.98" y="-633.7" font-family="Times,serif" font-size="14.00">proxies</text>
</g>
<g id="clust8" class="cluster">
<title>client_host</title>
<polygon fill="#f0f0f0" stroke="black" stroke-dasharray="5,2" points="8,-223 8,-570 126.9,-570 126.9,-223 8,-223"/>
<text text-anchor="middle" x="67.45" y="-552.7" font-family="Times,serif" font-size="14.00">Client</text>
</g>
<g id="clust9" class="cluster">
<title>external_services</title>
<polygon fill="#fff8dc" stroke="black" stroke-dasharray="5,2" points="896.9,-157 896.9,-462 1075.05,-462 1075.05,-157 896.9,-157"/>
<text text-anchor="middle" x="985.97" y="-444.7" font-family="Times,serif" font-size="14.00">External Services</text>
</g>
<!-- shoggoth_host.behind_proxy_group.gitea_group.git_service -->
<g id="node1" class="node">
<title>shoggoth_host.behind_proxy_group.gitea_group.git_service</title>
<polygon fill="lightsteelblue" stroke="black" points="516.4,-365 462.4,-365 462.4,-361 458.4,-361 458.4,-357 462.4,-357 462.4,-337 458.4,-337 458.4,-333 462.4,-333 462.4,-329 516.4,-329 516.4,-365"/>
<polyline fill="none" stroke="black" points="462.4,-361 466.4,-361 466.4,-357 462.4,-357"/>
<polyline fill="none" stroke="black" points="462.4,-337 466.4,-337 466.4,-333 462.4,-333"/>
<text text-anchor="middle" x="489.4" y="-343.3" font-family="Times,serif" font-size="11.00">gitea</text>
</g>
<!-- shoggoth_host.behind_proxy_group.gitea_group.gitea_runner -->
<g id="node5" class="node">
<title>shoggoth_host.behind_proxy_group.gitea_group.gitea_runner</title>
<polygon fill="lightsteelblue" stroke="black" points="652,-360 555.85,-360 555.85,-356 551.85,-356 551.85,-352 555.85,-352 555.85,-332 551.85,-332 551.85,-328 555.85,-328 555.85,-324 652,-324 652,-360"/>
<polyline fill="none" stroke="black" points="555.85,-356 559.85,-356 559.85,-352 555.85,-352"/>
<polyline fill="none" stroke="black" points="555.85,-332 559.85,-332 559.85,-328 555.85,-328"/>
<text text-anchor="middle" x="603.92" y="-338.3" font-family="Times,serif" font-size="11.00">actions runner</text>
</g>
<!-- shoggoth_host.behind_proxy_group.gitea_group.git_service&#45;&gt;shoggoth_host.behind_proxy_group.gitea_group.gitea_runner -->
<g id="edge5" class="edge">
<title>shoggoth_host.behind_proxy_group.gitea_group.git_service&#45;&gt;shoggoth_host.behind_proxy_group.gitea_group.gitea_runner</title>
<path fill="none" stroke="black" d="M516.78,-345.83C525.09,-345.46 534.63,-345.03 544.26,-344.61"/>
<polygon fill="black" stroke="black" points="544.19,-348.11 554.03,-344.17 543.88,-341.12 544.19,-348.11"/>
</g>
<!-- shoggoth_host.behind_proxy_group.gitea_group.ci_job -->
<g id="node2" class="node">
<title>shoggoth_host.behind_proxy_group.gitea_group.ci_job</title>
<polygon fill="lightsteelblue" stroke="black" points="742,-371 688,-371 688,-367 684,-367 684,-363 688,-363 688,-343 684,-343 684,-339 688,-339 688,-335 742,-335 742,-371"/>
<polyline fill="none" stroke="black" points="688,-367 692,-367 692,-363 688,-363"/>
<polyline fill="none" stroke="black" points="688,-343 692,-343 692,-339 688,-339"/>
<text text-anchor="middle" x="715" y="-349.3" font-family="Times,serif" font-size="11.00">CI job</text>
</g>
<!-- shoggoth_host.behind_proxy_group.gitea_group.cache_volume -->
<g id="node4" class="node">
<title>shoggoth_host.behind_proxy_group.gitea_group.cache_volume</title>
<path fill="lightblue" stroke="black" d="M861.03,-365.29C861.03,-368.14 844.18,-370.46 823.45,-370.46 802.72,-370.46 785.88,-368.14 785.88,-365.29 785.88,-365.29 785.88,-318.71 785.88,-318.71 785.88,-315.86 802.72,-313.54 823.45,-313.54 844.18,-313.54 861.03,-315.86 861.03,-318.71 861.03,-318.71 861.03,-365.29 861.03,-365.29"/>
<path fill="none" stroke="black" d="M861.03,-365.29C861.03,-362.43 844.18,-360.11 823.45,-360.11 802.72,-360.11 785.88,-362.43 785.88,-365.29"/>
<text text-anchor="middle" x="823.45" y="-345.05" font-family="Times,serif" font-size="11.00">data cache</text>
<text text-anchor="middle" x="823.45" y="-331.55" font-family="Times,serif" font-size="11.00">volume</text>
</g>
<!-- shoggoth_host.behind_proxy_group.gitea_group.ci_job&#45;&gt;shoggoth_host.behind_proxy_group.gitea_group.cache_volume -->
<g id="edge21" class="edge">
<title>shoggoth_host.behind_proxy_group.gitea_group.ci_job&#45;&gt;shoggoth_host.behind_proxy_group.gitea_group.cache_volume</title>
<path fill="none" stroke="black" d="M742.31,-350.28C752,-349.28 763.3,-348.11 774.31,-346.97"/>
<polygon fill="black" stroke="black" points="774.5,-350.47 784.09,-345.96 773.78,-343.51 774.5,-350.47"/>
</g>
<!-- shoggoth_host.behind_proxy_group.apt_cache -->
<g id="node6" class="node">
<title>shoggoth_host.behind_proxy_group.apt_cache</title>
<polygon fill="lightsteelblue" stroke="black" points="868.9,-502 778,-502 778,-498 774,-498 774,-494 778,-494 778,-474 774,-474 774,-470 778,-470 778,-466 868.9,-466 868.9,-502"/>
<polyline fill="none" stroke="black" points="778,-498 782,-498 782,-494 778,-494"/>
<polyline fill="none" stroke="black" points="778,-474 782,-474 782,-470 778,-470"/>
<text text-anchor="middle" x="823.45" y="-480.3" font-family="Times,serif" font-size="11.00">apt&#45;cacher&#45;ng</text>
</g>
<!-- shoggoth_host.behind_proxy_group.gitea_group.ci_job&#45;&gt;shoggoth_host.behind_proxy_group.apt_cache -->
<g id="edge7" class="edge">
<title>shoggoth_host.behind_proxy_group.gitea_group.ci_job&#45;&gt;shoggoth_host.behind_proxy_group.apt_cache</title>
<path fill="none" stroke="black" d="M739.02,-371.38C740.08,-372.56 741.08,-373.77 742,-375 765.81,-406.9 751.78,-427.06 778,-457 778.34,-457.39 778.69,-457.78 779.05,-458.16"/>
<polygon fill="black" stroke="black" points="776.42,-460.5 786.19,-464.6 781.1,-455.3 776.42,-460.5"/>
</g>
<!-- shoggoth_host.behind_proxy_group.git_pages_service -->
<g id="node10" class="node">
<title>shoggoth_host.behind_proxy_group.git_pages_service</title>
<polygon fill="lightsteelblue" stroke="black" points="856.53,-448 790.38,-448 790.38,-444 786.38,-444 786.38,-440 790.38,-440 790.38,-420 786.38,-420 786.38,-416 790.38,-416 790.38,-412 856.53,-412 856.53,-448"/>
<polyline fill="none" stroke="black" points="790.38,-444 794.38,-444 794.38,-440 790.38,-440"/>
<polyline fill="none" stroke="black" points="790.38,-420 794.38,-420 794.38,-416 790.38,-416"/>
<text text-anchor="middle" x="823.45" y="-426.3" font-family="Times,serif" font-size="11.00">git&#45;pages</text>
</g>
<!-- shoggoth_host.behind_proxy_group.gitea_group.ci_job&#45;&gt;shoggoth_host.behind_proxy_group.git_pages_service -->
<g id="edge19" class="edge">
<title>shoggoth_host.behind_proxy_group.gitea_group.ci_job&#45;&gt;shoggoth_host.behind_proxy_group.git_pages_service</title>
<path fill="none" stroke="black" d="M737.9,-371.42C739.29,-372.63 740.67,-373.83 742,-375 758.29,-389.35 760.1,-395.73 778,-408 778.84,-408.57 779.7,-409.14 780.57,-409.71"/>
<polygon fill="black" stroke="black" points="778.57,-412.59 788.96,-414.66 782.13,-406.56 778.57,-412.59"/>
</g>
<!-- shoggoth_host.behind_proxy_group.proxpi_service -->
<g id="node12" class="node">
<title>shoggoth_host.behind_proxy_group.proxpi_service</title>
<polygon fill="lightsteelblue" stroke="black" points="850.45,-556 796.45,-556 796.45,-552 792.45,-552 792.45,-548 796.45,-548 796.45,-528 792.45,-528 792.45,-524 796.45,-524 796.45,-520 850.45,-520 850.45,-556"/>
<polyline fill="none" stroke="black" points="796.45,-552 800.45,-552 800.45,-548 796.45,-548"/>
<polyline fill="none" stroke="black" points="796.45,-528 800.45,-528 800.45,-524 796.45,-524"/>
<text text-anchor="middle" x="823.45" y="-534.3" font-family="Times,serif" font-size="11.00">proxpi</text>
</g>
<!-- shoggoth_host.behind_proxy_group.gitea_group.ci_job&#45;&gt;shoggoth_host.behind_proxy_group.proxpi_service -->
<g id="edge22" class="edge">
<title>shoggoth_host.behind_proxy_group.gitea_group.ci_job&#45;&gt;shoggoth_host.behind_proxy_group.proxpi_service</title>
<path fill="none" stroke="black" d="M719.15,-371.05C725.44,-402.57 742.15,-468.38 778,-511 780.58,-514.06 783.6,-516.88 786.83,-519.43"/>
<polygon fill="black" stroke="black" points="784.83,-522.3 795.05,-525.1 788.8,-516.54 784.83,-522.3"/>
</g>
<!-- shoggoth_host.direct_access_group.service_proxy.build_cache -->
<g id="node22" class="node">
<title>shoggoth_host.direct_access_group.service_proxy.build_cache</title>
<path fill="lightblue" stroke="black" d="M267.93,-753.69C267.93,-755.62 249.57,-757.18 226.98,-757.18 204.38,-757.18 186.03,-755.62 186.03,-753.69 186.03,-753.69 186.03,-722.31 186.03,-722.31 186.03,-720.38 204.38,-718.82 226.98,-718.82 249.57,-718.82 267.93,-720.38 267.93,-722.31 267.93,-722.31 267.93,-753.69 267.93,-753.69"/>
<path fill="none" stroke="black" d="M267.93,-753.69C267.93,-751.77 249.57,-750.21 226.98,-750.21 204.38,-750.21 186.03,-751.77 186.03,-753.69"/>
<text text-anchor="middle" x="226.98" y="-734.3" font-family="Times,serif" font-size="11.00">build&#45;cache.</text>
</g>
<!-- shoggoth_host.behind_proxy_group.gitea_group.ci_job&#45;&gt;shoggoth_host.direct_access_group.service_proxy.build_cache -->
<g id="edge20" class="edge">
<title>shoggoth_host.behind_proxy_group.gitea_group.ci_job&#45;&gt;shoggoth_host.direct_access_group.service_proxy.build_cache</title>
<path fill="none" stroke="black" d="M708.06,-371.36C699.2,-396.41 680.46,-441.54 652,-471 644.6,-478.66 325.46,-652.5 319.05,-661 305.55,-678.9 322.09,-693.37 307.05,-710 299.5,-718.34 289.31,-724.2 278.76,-728.31"/>
<polygon fill="black" stroke="black" points="277.96,-724.89 269.6,-731.39 280.19,-731.52 277.96,-724.89"/>
</g>
<!-- shoggoth_host.direct_access_group.dns_service -->
<g id="node25" class="node">
<title>shoggoth_host.direct_access_group.dns_service</title>
<polygon fill="lightsteelblue" stroke="black" points="257.8,-120 196.15,-120 196.15,-116 192.15,-116 192.15,-112 196.15,-112 196.15,-92 192.15,-92 192.15,-88 196.15,-88 196.15,-84 257.8,-84 257.8,-120"/>
<polyline fill="none" stroke="black" points="196.15,-116 200.15,-116 200.15,-112 196.15,-112"/>
<polyline fill="none" stroke="black" points="196.15,-92 200.15,-92 200.15,-88 196.15,-88"/>
<text text-anchor="middle" x="226.98" y="-98.3" font-family="Times,serif" font-size="11.00">:53 DNS</text>
</g>
<!-- shoggoth_host.behind_proxy_group.gitea_group.ci_job&#45;&gt;shoggoth_host.direct_access_group.dns_service -->
<g id="edge23" class="edge">
<title>shoggoth_host.behind_proxy_group.gitea_group.ci_job&#45;&gt;shoggoth_host.direct_access_group.dns_service</title>
<path fill="none" stroke="black" d="M689.65,-371.41C641.71,-406.34 530.43,-481.17 422.95,-508 400.55,-513.59 335.63,-524.06 319.05,-508 289.03,-478.92 331.34,-166.02 307.05,-132 298.14,-119.53 283.35,-112.24 268.96,-107.98"/>
<polygon fill="black" stroke="black" points="270.15,-104.67 259.6,-105.64 268.45,-111.46 270.15,-104.67"/>
</g>
<!-- shoggoth_host.behind_proxy_group.gitea_group.gitea_mcp -->
<g id="node3" class="node">
<title>shoggoth_host.behind_proxy_group.gitea_group.gitea_mcp</title>
<polygon fill="lightsteelblue" stroke="black" points="406,-365 352,-365 352,-361 348,-361 348,-357 352,-357 352,-337 348,-337 348,-333 352,-333 352,-329 406,-329 406,-365"/>
<polyline fill="none" stroke="black" points="352,-361 356,-361 356,-357 352,-357"/>
<polyline fill="none" stroke="black" points="352,-337 356,-337 356,-333 352,-333"/>
<text text-anchor="middle" x="379" y="-343.3" font-family="Times,serif" font-size="11.00">mcp</text>
</g>
<!-- shoggoth_host.behind_proxy_group.gitea_group.gitea_mcp&#45;&gt;shoggoth_host.behind_proxy_group.gitea_group.git_service -->
<g id="edge1" class="edge">
<title>shoggoth_host.behind_proxy_group.gitea_group.gitea_mcp&#45;&gt;shoggoth_host.behind_proxy_group.gitea_group.git_service</title>
<path fill="none" stroke="black" d="M406.24,-347C419.59,-347 436.06,-347 450.73,-347"/>
<polygon fill="black" stroke="black" points="450.51,-350.5 460.51,-347 450.51,-343.5 450.51,-350.5"/>
</g>
<!-- shoggoth_host.behind_proxy_group.gitea_group.gitea_runner&#45;&gt;shoggoth_host.behind_proxy_group.gitea_group.ci_job -->
<g id="edge18" class="edge">
<title>shoggoth_host.behind_proxy_group.gitea_group.gitea_runner&#45;&gt;shoggoth_host.behind_proxy_group.gitea_group.ci_job</title>
<path fill="none" stroke="black" d="M652.45,-346.79C660.46,-347.6 668.67,-348.43 676.38,-349.21"/>
<polygon fill="black" stroke="black" points="675.8,-352.66 686.1,-350.19 676.5,-345.7 675.8,-352.66"/>
</g>
<!-- shoggoth_host.direct_access_group.docker_cache -->
<g id="node24" class="node">
<title>shoggoth_host.direct_access_group.docker_cache</title>
<polygon fill="lightsteelblue" stroke="black" points="299.05,-65.7 154.9,-65.7 154.9,-61.7 150.9,-61.7 150.9,-57.7 154.9,-57.7 154.9,-32.3 150.9,-32.3 150.9,-28.3 154.9,-28.3 154.9,-24.3 299.05,-24.3 299.05,-65.7"/>
<polyline fill="none" stroke="black" points="154.9,-61.7 158.9,-61.7 158.9,-57.7 154.9,-57.7"/>
<polyline fill="none" stroke="black" points="154.9,-32.3 158.9,-32.3 158.9,-28.3 154.9,-28.3"/>
<text text-anchor="middle" x="226.98" y="-48.05" font-family="Times,serif" font-size="11.00">:3128</text>
<text text-anchor="middle" x="226.98" y="-34.55" font-family="Times,serif" font-size="11.00">(docker registry proxy)</text>
</g>
<!-- shoggoth_host.behind_proxy_group.gitea_group.gitea_runner&#45;&gt;shoggoth_host.direct_access_group.docker_cache -->
<g id="edge28" class="edge">
<title>shoggoth_host.behind_proxy_group.gitea_group.gitea_runner&#45;&gt;shoggoth_host.direct_access_group.docker_cache</title>
<path fill="none" stroke="black" d="M575.54,-323.76C568.18,-317.64 560.87,-310.25 555.85,-302 518.86,-241.21 567.42,-198.92 519.85,-146 505.27,-129.78 391.33,-93.38 310.22,-69.01"/>
<polygon fill="black" stroke="black" points="311.54,-65.75 300.95,-66.23 309.53,-72.45 311.54,-65.75"/>
</g>
<!-- external_services.apt_repos -->
<g id="node33" class="node">
<title>external_services.apt_repos</title>
<path fill="honeydew" stroke="black" d="M1042.3,-348.29C1042.3,-351.14 1017.05,-353.46 985.97,-353.46 954.9,-353.46 929.65,-351.14 929.65,-348.29 929.65,-348.29 929.65,-301.71 929.65,-301.71 929.65,-298.86 954.9,-296.54 985.97,-296.54 1017.05,-296.54 1042.3,-298.86 1042.3,-301.71 1042.3,-301.71 1042.3,-348.29 1042.3,-348.29"/>
<path fill="none" stroke="black" d="M1042.3,-348.29C1042.3,-345.43 1017.05,-343.11 985.97,-343.11 954.9,-343.11 929.65,-345.43 929.65,-348.29"/>
<text text-anchor="middle" x="985.97" y="-328.05" font-family="Times,serif" font-size="11.00">APT Repositories</text>
<text text-anchor="middle" x="985.97" y="-314.55" font-family="Times,serif" font-size="11.00">(Ubuntu/Debian)</text>
</g>
<!-- shoggoth_host.behind_proxy_group.apt_cache&#45;&gt;external_services.apt_repos -->
<g id="edge9" class="edge">
<title>shoggoth_host.behind_proxy_group.apt_cache&#45;&gt;external_services.apt_repos</title>
<path fill="none" stroke="black" d="M869.36,-470.51C875.39,-466.98 880.91,-462.55 885.02,-457 910.12,-423.19 871.6,-396.66 896.9,-363 902.86,-355.07 910.82,-348.77 919.52,-343.78"/>
<polygon fill="black" stroke="black" points="920.9,-347 928.24,-339.36 917.74,-340.75 920.9,-347"/>
</g>
<!-- shoggoth_host.behind_proxy_group.redmine_group.redmine_service -->
<g id="node7" class="node">
<title>shoggoth_host.behind_proxy_group.redmine_group.redmine_service</title>
<polygon fill="lightsteelblue" stroke="black" points="519.85,-246 458.95,-246 458.95,-242 454.95,-242 454.95,-238 458.95,-238 458.95,-218 454.95,-218 454.95,-214 458.95,-214 458.95,-210 519.85,-210 519.85,-246"/>
<polyline fill="none" stroke="black" points="458.95,-242 462.95,-242 462.95,-238 458.95,-238"/>
<polyline fill="none" stroke="black" points="458.95,-218 462.95,-218 462.95,-214 458.95,-214"/>
<text text-anchor="middle" x="489.4" y="-224.3" font-family="Times,serif" font-size="11.00">redmine</text>
</g>
<!-- shoggoth_host.behind_proxy_group.redmine_group.redmine_db -->
<g id="node8" class="node">
<title>shoggoth_host.behind_proxy_group.redmine_group.redmine_db</title>
<path fill="lightblue" stroke="black" d="M635.5,-259.29C635.5,-262.14 621.35,-264.46 603.92,-264.46 586.5,-264.46 572.35,-262.14 572.35,-259.29 572.35,-259.29 572.35,-212.71 572.35,-212.71 572.35,-209.86 586.5,-207.54 603.92,-207.54 621.35,-207.54 635.5,-209.86 635.5,-212.71 635.5,-212.71 635.5,-259.29 635.5,-259.29"/>
<path fill="none" stroke="black" d="M635.5,-259.29C635.5,-256.43 621.35,-254.11 603.92,-254.11 586.5,-254.11 572.35,-256.43 572.35,-259.29"/>
<text text-anchor="middle" x="603.92" y="-239.05" font-family="Times,serif" font-size="11.00">postgres</text>
<text text-anchor="middle" x="603.92" y="-225.55" font-family="Times,serif" font-size="11.00">db</text>
</g>
<!-- shoggoth_host.behind_proxy_group.redmine_group.redmine_service&#45;&gt;shoggoth_host.behind_proxy_group.redmine_group.redmine_db -->
<g id="edge16" class="edge">
<title>shoggoth_host.behind_proxy_group.redmine_group.redmine_service&#45;&gt;shoggoth_host.behind_proxy_group.redmine_group.redmine_db</title>
<path fill="none" stroke="black" d="M520.26,-230.12C532.65,-231 547.24,-232.04 560.7,-233"/>
<polygon fill="black" stroke="black" points="560.41,-236.49 570.63,-233.7 560.9,-229.5 560.41,-236.49"/>
</g>
<!-- shoggoth_host.behind_proxy_group.redmine_group.redmine_mcp -->
<g id="node9" class="node">
<title>shoggoth_host.behind_proxy_group.redmine_group.redmine_mcp</title>
<polygon fill="lightsteelblue" stroke="black" points="422.95,-246 335.05,-246 335.05,-242 331.05,-242 331.05,-238 335.05,-238 335.05,-218 331.05,-218 331.05,-214 335.05,-214 335.05,-210 422.95,-210 422.95,-246"/>
<polyline fill="none" stroke="black" points="335.05,-242 339.05,-242 339.05,-238 335.05,-238"/>
<polyline fill="none" stroke="black" points="335.05,-218 339.05,-218 339.05,-214 335.05,-214"/>
<text text-anchor="middle" x="379" y="-224.3" font-family="Times,serif" font-size="11.00">redmine&#45;mcp</text>
</g>
<!-- shoggoth_host.behind_proxy_group.redmine_group.redmine_mcp&#45;&gt;shoggoth_host.behind_proxy_group.redmine_group.redmine_service -->
<g id="edge15" class="edge">
<title>shoggoth_host.behind_proxy_group.redmine_group.redmine_mcp&#45;&gt;shoggoth_host.behind_proxy_group.redmine_group.redmine_service</title>
<path fill="none" stroke="black" d="M423.15,-228C431.17,-228 439.52,-228 447.46,-228"/>
<polygon fill="black" stroke="black" points="447.21,-231.5 457.21,-228 447.21,-224.5 447.21,-231.5"/>
</g>
<!-- shoggoth_host.behind_proxy_group.ollama_service -->
<g id="node11" class="node">
<title>shoggoth_host.behind_proxy_group.ollama_service</title>
<polygon fill="lightsteelblue" stroke="black" points="419.2,-453.7 338.8,-453.7 338.8,-449.7 334.8,-449.7 334.8,-445.7 338.8,-445.7 338.8,-420.3 334.8,-420.3 334.8,-416.3 338.8,-416.3 338.8,-412.3 419.2,-412.3 419.2,-453.7"/>
<polyline fill="none" stroke="black" points="338.8,-449.7 342.8,-449.7 342.8,-445.7 338.8,-445.7"/>
<polyline fill="none" stroke="black" points="338.8,-420.3 342.8,-420.3 342.8,-416.3 338.8,-416.3"/>
<text text-anchor="middle" x="379" y="-436.05" font-family="Times,serif" font-size="11.00">LLM server</text>
<text text-anchor="middle" x="379" y="-422.55" font-family="Times,serif" font-size="11.00">(ollama)</text>
</g>
<!-- external_services.pypi_index -->
<g id="node32" class="node">
<title>external_services.pypi_index</title>
<path fill="honeydew" stroke="black" d="M1059.17,-423.29C1059.17,-426.14 1026.37,-428.46 985.97,-428.46 945.58,-428.46 912.77,-426.14 912.77,-423.29 912.77,-423.29 912.77,-376.71 912.77,-376.71 912.77,-373.86 945.58,-371.54 985.97,-371.54 1026.37,-371.54 1059.17,-373.86 1059.17,-376.71 1059.17,-376.71 1059.17,-423.29 1059.17,-423.29"/>
<path fill="none" stroke="black" d="M1059.17,-423.29C1059.17,-420.43 1026.37,-418.11 985.97,-418.11 945.58,-418.11 912.77,-420.43 912.77,-423.29"/>
<text text-anchor="middle" x="985.97" y="-403.05" font-family="Times,serif" font-size="11.00">PyPI</text>
<text text-anchor="middle" x="985.97" y="-389.55" font-family="Times,serif" font-size="11.00">(Python Package Index)</text>
</g>
<!-- shoggoth_host.behind_proxy_group.proxpi_service&#45;&gt;external_services.pypi_index -->
<g id="edge32" class="edge">
<title>shoggoth_host.behind_proxy_group.proxpi_service&#45;&gt;external_services.pypi_index</title>
<path fill="none" stroke="black" d="M850.79,-529.06C861.93,-524.59 874.69,-518.51 885.02,-511 913.17,-490.54 939.27,-461.03 957.74,-437.58"/>
<polygon fill="black" stroke="black" points="960.41,-439.85 963.75,-429.8 954.87,-435.57 960.41,-439.85"/>
</g>
<!-- shoggoth_host.direct_access_group.service_proxy.proxy_services.proxy_mcp -->
<g id="node13" class="node">
<title>shoggoth_host.direct_access_group.service_proxy.proxy_services.proxy_mcp</title>
<polygon fill="lightgreen" stroke="black" points="263.8,-234 190.15,-234 190.15,-198 263.8,-198 263.8,-234"/>
<text text-anchor="middle" x="226.98" y="-212.3" font-family="Times,serif" font-size="11.00">gitea&#45;mcp.</text>
</g>
<!-- shoggoth_host.direct_access_group.service_proxy.proxy_services.proxy_mcp&#45;&gt;shoggoth_host.behind_proxy_group.gitea_group.gitea_mcp -->
<g id="edge13" class="edge">
<title>shoggoth_host.direct_access_group.service_proxy.proxy_services.proxy_mcp&#45;&gt;shoggoth_host.behind_proxy_group.gitea_group.gitea_mcp</title>
<path fill="none" stroke="black" d="M264.3,-220.34C279.55,-223.99 296.23,-230.69 307.05,-243 324.72,-263.1 304.84,-279.32 319.05,-302 324.94,-311.39 333.53,-319.56 342.35,-326.26"/>
<polygon fill="black" stroke="black" points="340.08,-328.94 350.27,-331.83 344.1,-323.22 340.08,-328.94"/>
</g>
<!-- shoggoth_host.direct_access_group.service_proxy.proxy_services.proxy_git_http -->
<g id="node14" class="node">
<title>shoggoth_host.direct_access_group.service_proxy.proxy_services.proxy_git_http</title>
<polygon fill="lightgreen" stroke="black" points="253.98,-456 199.98,-456 199.98,-420 253.98,-420 253.98,-456"/>
<text text-anchor="middle" x="226.98" y="-434.3" font-family="Times,serif" font-size="11.00">git.</text>
</g>
<!-- shoggoth_host.direct_access_group.service_proxy.proxy_services.proxy_git_http&#45;&gt;shoggoth_host.behind_proxy_group.gitea_group.git_service -->
<g id="edge3" class="edge">
<title>shoggoth_host.direct_access_group.service_proxy.proxy_services.proxy_git_http&#45;&gt;shoggoth_host.behind_proxy_group.gitea_group.git_service</title>
<path fill="none" stroke="black" d="M254.37,-443.51C270.48,-447.7 291,-454.55 307.05,-465 313.64,-469.29 311.85,-474.85 319.05,-478 361.35,-496.52 385.53,-505.05 422.95,-478 461.31,-450.27 433.82,-415.81 456,-374.81"/>
<polygon fill="black" stroke="black" points="458.94,-376.7 461.34,-366.38 453.03,-372.96 458.94,-376.7"/>
</g>
<!-- shoggoth_host.direct_access_group.service_proxy.proxy_services.proxy_git -->
<g id="node15" class="node">
<title>shoggoth_host.direct_access_group.service_proxy.proxy_services.proxy_git</title>
<polygon fill="lightgreen" stroke="black" points="253.98,-347.7 199.98,-347.7 199.98,-306.3 253.98,-306.3 253.98,-347.7"/>
<text text-anchor="middle" x="226.98" y="-330.05" font-family="Times,serif" font-size="11.00">:3022</text>
<text text-anchor="middle" x="226.98" y="-316.55" font-family="Times,serif" font-size="11.00">git/ssh</text>
</g>
<!-- shoggoth_host.direct_access_group.service_proxy.proxy_services.proxy_git&#45;&gt;shoggoth_host.behind_proxy_group.gitea_group.git_service -->
<g id="edge4" class="edge">
<title>shoggoth_host.direct_access_group.service_proxy.proxy_services.proxy_git&#45;&gt;shoggoth_host.behind_proxy_group.gitea_group.git_service</title>
<path fill="none" stroke="black" d="M254.23,-329.88C272.01,-333.29 294.48,-340.73 307.05,-357 322.22,-376.63 300.59,-451.43 319.05,-468 336.23,-483.42 404.04,-481.25 422.95,-468 458.3,-443.24 435.34,-411.93 455.74,-374.95"/>
<polygon fill="black" stroke="black" points="458.59,-376.99 461.1,-366.7 452.72,-373.18 458.59,-376.99"/>
</g>
<!-- shoggoth_host.direct_access_group.service_proxy.proxy_services.proxy_redmine -->
<g id="node16" class="node">
<title>shoggoth_host.direct_access_group.service_proxy.proxy_services.proxy_redmine</title>
<polygon fill="lightgreen" stroke="black" points="259.3,-402 194.65,-402 194.65,-366 259.3,-366 259.3,-402"/>
<text text-anchor="middle" x="226.98" y="-380.3" font-family="Times,serif" font-size="11.00">redmine.</text>
</g>
<!-- shoggoth_host.direct_access_group.service_proxy.proxy_services.proxy_redmine&#45;&gt;shoggoth_host.behind_proxy_group.redmine_group.redmine_service -->
<g id="edge14" class="edge">
<title>shoggoth_host.direct_access_group.service_proxy.proxy_services.proxy_redmine&#45;&gt;shoggoth_host.behind_proxy_group.redmine_group.redmine_service</title>
<path fill="none" stroke="black" d="M259.42,-381.46C276.27,-378.36 295.81,-371.6 307.05,-357 330.28,-326.81 291.19,-211.98 319.05,-186 352.83,-154.51 378.64,-173.01 422.95,-186 435.03,-189.54 446.99,-196.07 457.31,-202.95"/>
<polygon fill="black" stroke="black" points="455.24,-205.77 465.43,-208.68 459.28,-200.05 455.24,-205.77"/>
</g>
<!-- shoggoth_host.direct_access_group.service_proxy.proxy_services.proxy_git_pages -->
<g id="node17" class="node">
<title>shoggoth_host.direct_access_group.service_proxy.proxy_services.proxy_git_pages</title>
<polygon fill="lightgreen" stroke="black" points="261.93,-510 192.03,-510 192.03,-474 261.93,-474 261.93,-510"/>
<text text-anchor="middle" x="226.98" y="-488.3" font-family="Times,serif" font-size="11.00">git&#45;pages.</text>
</g>
<!-- shoggoth_host.direct_access_group.service_proxy.proxy_services.proxy_git_pages&#45;&gt;shoggoth_host.behind_proxy_group.git_pages_service -->
<g id="edge34" class="edge">
<title>shoggoth_host.direct_access_group.service_proxy.proxy_services.proxy_git_pages&#45;&gt;shoggoth_host.behind_proxy_group.git_pages_service</title>
<path fill="none" stroke="black" d="M262.25,-502.92C279.18,-507.93 300.02,-513.52 319.05,-517 393.42,-530.61 412.8,-533 488.4,-533 488.4,-533 488.4,-533 604.92,-533 641.55,-533 730.03,-484.7 782.16,-454.25"/>
<polygon fill="black" stroke="black" points="783.93,-457.27 790.77,-449.18 780.38,-451.23 783.93,-457.27"/>
</g>
<!-- shoggoth_host.direct_access_group.service_proxy.proxy_services.proxy_apt -->
<g id="node18" class="node">
<title>shoggoth_host.direct_access_group.service_proxy.proxy_services.proxy_apt</title>
<polygon fill="lightgreen" stroke="black" points="263.05,-564 190.9,-564 190.9,-528 263.05,-528 263.05,-564"/>
<text text-anchor="middle" x="226.98" y="-542.3" font-family="Times,serif" font-size="11.00">apt&#45;cache.</text>
</g>
<!-- shoggoth_host.direct_access_group.service_proxy.proxy_services.proxy_apt&#45;&gt;shoggoth_host.behind_proxy_group.apt_cache -->
<g id="edge8" class="edge">
<title>shoggoth_host.direct_access_group.service_proxy.proxy_services.proxy_apt&#45;&gt;shoggoth_host.behind_proxy_group.apt_cache</title>
<path fill="none" stroke="black" d="M263.35,-547.55C313.44,-549.62 407.89,-553 488.4,-553 488.4,-553 488.4,-553 604.92,-553 666.21,-553 685,-560.52 742,-538 760.6,-530.65 761.43,-522.2 778,-511 779.36,-510.08 780.74,-509.16 782.15,-508.24"/>
<polygon fill="black" stroke="black" points="783.78,-511.35 790.32,-503.02 780.01,-505.45 783.78,-511.35"/>
</g>
<!-- shoggoth_host.direct_access_group.service_proxy.proxy_services.proxy_redmine_mcp -->
<g id="node19" class="node">
<title>shoggoth_host.direct_access_group.service_proxy.proxy_services.proxy_redmine_mcp</title>
<polygon fill="lightgreen" stroke="black" points="272.8,-180 181.15,-180 181.15,-144 272.8,-144 272.8,-180"/>
<text text-anchor="middle" x="226.98" y="-158.3" font-family="Times,serif" font-size="11.00">redmine&#45;mcp.</text>
</g>
<!-- shoggoth_host.direct_access_group.service_proxy.proxy_services.proxy_redmine_mcp&#45;&gt;shoggoth_host.behind_proxy_group.redmine_group.redmine_mcp -->
<g id="edge44" class="edge">
<title>shoggoth_host.direct_access_group.service_proxy.proxy_services.proxy_redmine_mcp&#45;&gt;shoggoth_host.behind_proxy_group.redmine_group.redmine_mcp</title>
<path fill="none" stroke="black" d="M273.24,-175.95C284.44,-179.81 296.3,-184.25 307.05,-189 317.07,-193.42 327.56,-198.77 337.32,-204.06"/>
<polygon fill="black" stroke="black" points="335.39,-207 345.83,-208.79 338.79,-200.88 335.39,-207"/>
</g>
<!-- shoggoth_host.direct_access_group.service_proxy.proxy_services.proxy_proxpi -->
<g id="node20" class="node">
<title>shoggoth_host.direct_access_group.service_proxy.proxy_services.proxy_proxpi</title>
<polygon fill="lightgreen" stroke="black" points="253.98,-618 199.98,-618 199.98,-582 253.98,-582 253.98,-618"/>
<text text-anchor="middle" x="226.98" y="-596.3" font-family="Times,serif" font-size="11.00">proxpi.</text>
</g>
<!-- shoggoth_host.direct_access_group.service_proxy.proxy_services.proxy_proxpi&#45;&gt;shoggoth_host.behind_proxy_group.proxpi_service -->
<g id="edge43" class="edge">
<title>shoggoth_host.direct_access_group.service_proxy.proxy_services.proxy_proxpi&#45;&gt;shoggoth_host.behind_proxy_group.proxpi_service</title>
<path fill="none" stroke="black" d="M254.24,-597.92C330.02,-591.83 555.57,-572.96 742,-550 755.98,-548.28 771.29,-546.08 784.76,-544.03"/>
<polygon fill="black" stroke="black" points="785.2,-547.5 794.55,-542.52 784.13,-540.58 785.2,-547.5"/>
</g>
<!-- shoggoth_host.direct_access_group.service_proxy.proxy_services.proxy_ollama -->
<g id="node21" class="node">
<title>shoggoth_host.direct_access_group.service_proxy.proxy_services.proxy_ollama</title>
<polygon fill="lightgreen" stroke="black" points="255.18,-288 198.78,-288 198.78,-252 255.18,-252 255.18,-288"/>
<text text-anchor="middle" x="226.98" y="-266.3" font-family="Times,serif" font-size="11.00">ollama.</text>
</g>
<!-- shoggoth_host.direct_access_group.service_proxy.proxy_services.proxy_ollama&#45;&gt;shoggoth_host.behind_proxy_group.ollama_service -->
<g id="edge42" class="edge">
<title>shoggoth_host.direct_access_group.service_proxy.proxy_services.proxy_ollama&#45;&gt;shoggoth_host.behind_proxy_group.ollama_service</title>
<path fill="none" stroke="black" d="M255.3,-272.02C272.86,-274.84 294.64,-281.48 307.05,-297 338.05,-335.75 289.47,-368.16 319.05,-408 321.73,-411.61 325.04,-414.71 328.71,-417.36"/>
<polygon fill="black" stroke="black" points="326.72,-420.25 337.11,-422.31 330.27,-414.22 326.72,-420.25"/>
</g>
<!-- shoggoth_host.direct_access_group.service_proxy.build_cache&#45;&gt;shoggoth_host.behind_proxy_group.gitea_group.git_service -->
<!-- shoggoth_host.direct_access_group.service_proxy.build_cache&#45;&gt;shoggoth_host.behind_proxy_group.gitea_group.ci_job -->
<!-- shoggoth_host.direct_access_group.service_proxy.build_cache&#45;&gt;shoggoth_host.behind_proxy_group.gitea_group.gitea_mcp -->
<!-- shoggoth_host.direct_access_group.service_proxy.build_cache&#45;&gt;shoggoth_host.behind_proxy_group.gitea_group.gitea_runner -->
<!-- shoggoth_host.direct_access_group.service_proxy.build_cache&#45;&gt;shoggoth_host.behind_proxy_group.apt_cache -->
<!-- shoggoth_host.direct_access_group.service_proxy.build_cache&#45;&gt;shoggoth_host.behind_proxy_group.ollama_service -->
<!-- shoggoth_host.direct_access_group.service_proxy.build_cache&#45;&gt;shoggoth_host.behind_proxy_group.proxpi_service -->
<!-- shoggoth_host.direct_access_group.service_proxy.home_page -->
<g id="node23" class="node">
<title>shoggoth_host.direct_access_group.service_proxy.home_page</title>
<polygon fill="#f0f8ff" stroke="black" points="258.93,-700.7 189.03,-700.7 189.03,-659.3 264.93,-659.3 264.93,-694.7 258.93,-700.7"/>
<polyline fill="none" stroke="black" points="258.93,-700.7 258.93,-694.7"/>
<polyline fill="none" stroke="black" points="264.93,-694.7 258.93,-694.7"/>
<text text-anchor="middle" x="226.98" y="-683.05" font-family="Times,serif" font-size="11.00">:80</text>
<text text-anchor="middle" x="226.98" y="-669.55" font-family="Times,serif" font-size="11.00">home page</text>
</g>
<!-- external_services.docker_registries -->
<g id="node34" class="node">
<title>external_services.docker_registries</title>
<path fill="honeydew" stroke="black" d="M1067.05,-216.29C1067.05,-219.14 1030.71,-221.46 985.97,-221.46 941.24,-221.46 904.9,-219.14 904.9,-216.29 904.9,-216.29 904.9,-169.71 904.9,-169.71 904.9,-166.86 941.24,-164.54 985.97,-164.54 1030.71,-164.54 1067.05,-166.86 1067.05,-169.71 1067.05,-169.71 1067.05,-216.29 1067.05,-216.29"/>
<path fill="none" stroke="black" d="M1067.05,-216.29C1067.05,-213.43 1030.71,-211.11 985.97,-211.11 941.24,-211.11 904.9,-213.43 904.9,-216.29"/>
<text text-anchor="middle" x="985.97" y="-196.05" font-family="Times,serif" font-size="11.00">Docker Registries</text>
<text text-anchor="middle" x="985.97" y="-182.55" font-family="Times,serif" font-size="11.00">(Docker Hub, GHCR, etc.)</text>
</g>
<!-- shoggoth_host.direct_access_group.docker_cache&#45;&gt;external_services.docker_registries -->
<g id="edge30" class="edge">
<title>shoggoth_host.direct_access_group.docker_cache&#45;&gt;external_services.docker_registries</title>
<path fill="none" stroke="black" d="M299.52,-49.23C351.82,-51.96 424.49,-55 488.4,-55 488.4,-55 488.4,-55 716,-55 792.54,-55 817.91,-51.21 885.02,-88 914.64,-104.23 940.67,-132.3 958.74,-155.33"/>
<polygon fill="black" stroke="black" points="955.73,-157.17 964.58,-162.99 961.3,-152.92 955.73,-157.17"/>
</g>
<!-- external_services.external_dns -->
<g id="node35" class="node">
<title>external_services.external_dns</title>
<ellipse fill="honeydew" stroke="black" cx="985.97" cy="-259" rx="65.34" ry="19.73"/>
<text text-anchor="middle" x="985.97" y="-255.3" font-family="Times,serif" font-size="11.00">External DNS</text>
</g>
<!-- shoggoth_host.direct_access_group.dns_service&#45;&gt;external_services.external_dns -->
<g id="edge31" class="edge">
<title>shoggoth_host.direct_access_group.dns_service&#45;&gt;external_services.external_dns</title>
<path fill="none" stroke="black" d="M258.05,-102C306.54,-102 404.98,-102 488.4,-102 488.4,-102 488.4,-102 716,-102 814.49,-102 808.95,-185.66 896.9,-230 905.98,-234.58 915.94,-238.66 925.79,-242.22"/>
<polygon fill="black" stroke="black" points="924.37,-245.43 934.96,-245.37 926.65,-238.81 924.37,-245.43"/>
</g>
<!-- client_host.ai_agent -->
<g id="node26" class="node">
<title>client_host.ai_agent</title>
<polygon fill="lightyellow" stroke="black" points="118.9,-321 16,-321 16,-285 118.9,-285 118.9,-321"/>
<text text-anchor="middle" x="67.45" y="-299.3" font-family="Times,serif" font-size="11.00">AI coding agent</text>
</g>
<!-- client_host.ai_agent&#45;&gt;shoggoth_host.direct_access_group.service_proxy.proxy_services.proxy_mcp -->
<g id="edge10" class="edge">
<title>client_host.ai_agent&#45;&gt;shoggoth_host.direct_access_group.service_proxy.proxy_services.proxy_mcp</title>
<path fill="none" stroke="black" d="M116.88,-284.61C120.54,-282.07 123.95,-279.21 126.9,-276 137.46,-264.51 127.6,-253.77 138.9,-243 149.86,-232.56 164.78,-226.15 179.17,-222.22"/>
<polygon fill="black" stroke="black" points="179.6,-225.71 188.53,-220.02 177.99,-218.9 179.6,-225.71"/>
</g>
<!-- client_host.ai_agent&#45;&gt;shoggoth_host.direct_access_group.service_proxy.proxy_services.proxy_redmine_mcp -->
<g id="edge12" class="edge">
<title>client_host.ai_agent&#45;&gt;shoggoth_host.direct_access_group.service_proxy.proxy_services.proxy_redmine_mcp</title>
<path fill="none" stroke="black" d="M118.45,-284.62C121.63,-282.09 124.5,-279.23 126.9,-276 150.13,-244.64 113.65,-218.76 138.9,-189 146.9,-179.58 158.12,-173.39 169.85,-169.34"/>
<polygon fill="black" stroke="black" points="170.61,-172.76 179.24,-166.61 168.66,-166.04 170.61,-172.76"/>
</g>
<!-- client_host.ai_agent&#45;&gt;shoggoth_host.direct_access_group.service_proxy.proxy_services.proxy_ollama -->
<g id="edge11" class="edge">
<title>client_host.ai_agent&#45;&gt;shoggoth_host.direct_access_group.service_proxy.proxy_services.proxy_ollama</title>
<path fill="none" stroke="black" d="M119.16,-292.38C141.22,-287.76 166.65,-282.43 187.16,-278.13"/>
<polygon fill="black" stroke="black" points="187.75,-281.58 196.82,-276.11 186.32,-274.73 187.75,-281.58"/>
</g>
<!-- client_host.client_browser -->
<g id="node27" class="node">
<title>client_host.client_browser</title>
<polygon fill="lightyellow" stroke="black" points="98.65,-429 36.25,-429 36.25,-393 98.65,-393 98.65,-429"/>
<text text-anchor="middle" x="67.45" y="-407.3" font-family="Times,serif" font-size="11.00">Browser</text>
</g>
<!-- client_host.client_browser&#45;&gt;shoggoth_host.direct_access_group.service_proxy.proxy_services.proxy_git_http -->
<g id="edge24" class="edge">
<title>client_host.client_browser&#45;&gt;shoggoth_host.direct_access_group.service_proxy.proxy_services.proxy_git_http</title>
<path fill="none" stroke="black" d="M98.82,-416.21C124.4,-420.59 161.1,-426.88 188.5,-431.58"/>
<polygon fill="black" stroke="black" points="187.68,-434.99 198.13,-433.23 188.86,-428.09 187.68,-434.99"/>
</g>
<!-- client_host.client_browser&#45;&gt;shoggoth_host.direct_access_group.service_proxy.proxy_services.proxy_redmine -->
<g id="edge26" class="edge">
<title>client_host.client_browser&#45;&gt;shoggoth_host.direct_access_group.service_proxy.proxy_services.proxy_redmine</title>
<path fill="none" stroke="black" d="M98.82,-405.79C122.73,-401.7 156.35,-395.93 183.02,-391.36"/>
<polygon fill="black" stroke="black" points="183.59,-394.82 192.85,-389.68 182.41,-387.92 183.59,-394.82"/>
</g>
<!-- client_host.client_browser&#45;&gt;shoggoth_host.direct_access_group.service_proxy.proxy_services.proxy_git_pages -->
<g id="edge27" class="edge">
<title>client_host.client_browser&#45;&gt;shoggoth_host.direct_access_group.service_proxy.proxy_services.proxy_git_pages</title>
<path fill="none" stroke="black" d="M98.97,-420.24C108.84,-424.41 119.21,-430.2 126.9,-438 136.12,-447.35 129.09,-456.28 138.9,-465 150.49,-475.31 165.98,-481.68 180.67,-485.62"/>
<polygon fill="black" stroke="black" points="179.66,-488.98 190.2,-487.84 181.25,-482.16 179.66,-488.98"/>
</g>
<!-- client_host.client_browser&#45;&gt;shoggoth_host.direct_access_group.service_proxy.home_page -->
<g id="edge25" class="edge">
<title>client_host.client_browser&#45;&gt;shoggoth_host.direct_access_group.service_proxy.home_page</title>
<path fill="none" stroke="black" d="M98.89,-418.08C109.5,-422.12 120.37,-428.38 126.9,-438 154.04,-477.95 108.79,-617.24 138.9,-655 148.36,-666.86 163.04,-673.33 177.68,-676.79"/>
<polygon fill="black" stroke="black" points="176.81,-680.19 187.28,-678.61 178.11,-673.31 176.81,-680.19"/>
</g>
<!-- client_host.client_git -->
<g id="node28" class="node">
<title>client_host.client_git</title>
<polygon fill="lightyellow" stroke="black" points="94.45,-375 40.45,-375 40.45,-339 94.45,-339 94.45,-375"/>
<text text-anchor="middle" x="67.45" y="-353.3" font-family="Times,serif" font-size="11.00">git</text>
</g>
<!-- client_host.client_git&#45;&gt;shoggoth_host.direct_access_group.service_proxy.proxy_services.proxy_git -->
<g id="edge33" class="edge">
<title>client_host.client_git&#45;&gt;shoggoth_host.direct_access_group.service_proxy.proxy_services.proxy_git</title>
<path fill="none" stroke="black" d="M94.82,-351.98C120.37,-347.11 159.4,-339.68 188.24,-334.19"/>
<polygon fill="black" stroke="black" points="188.87,-337.63 198.04,-332.32 187.56,-330.75 188.87,-337.63"/>
</g>
<!-- client_host.client_apt -->
<g id="node29" class="node">
<title>client_host.client_apt</title>
<polygon fill="lightyellow" stroke="black" points="94.45,-483 40.45,-483 40.45,-447 94.45,-447 94.45,-483"/>
<text text-anchor="middle" x="67.45" y="-461.3" font-family="Times,serif" font-size="11.00">apt</text>
</g>
<!-- client_host.client_apt&#45;&gt;shoggoth_host.direct_access_group.service_proxy.proxy_services.proxy_apt -->
<g id="edge35" class="edge">
<title>client_host.client_apt&#45;&gt;shoggoth_host.direct_access_group.service_proxy.proxy_services.proxy_apt</title>
<path fill="none" stroke="black" d="M94.78,-472.55C105.83,-476.8 118.11,-483.08 126.9,-492 136.12,-501.35 129.09,-510.28 138.9,-519 150.31,-529.14 165.47,-535.47 179.95,-539.42"/>
<polygon fill="black" stroke="black" points="178.8,-542.75 189.34,-541.66 180.42,-535.94 178.8,-542.75"/>
</g>
<!-- client_host.client_ccache -->
<g id="node30" class="node">
<title>client_host.client_ccache</title>
<polygon fill="lightyellow" stroke="black" points="117.78,-537 17.13,-537 17.13,-501 117.78,-501 117.78,-537"/>
<text text-anchor="middle" x="67.45" y="-515.3" font-family="Times,serif" font-size="11.00">ccache/sccache</text>
</g>
<!-- client_host.client_ccache&#45;&gt;shoggoth_host.direct_access_group.service_proxy.proxy_services.proxy_proxpi -->
<g id="edge37" class="edge">
<title>client_host.client_ccache&#45;&gt;shoggoth_host.direct_access_group.service_proxy.proxy_services.proxy_proxpi</title>
<path fill="none" stroke="black" d="M88.4,-537.38C101.84,-548.95 120.42,-563.44 138.9,-573 154.4,-581.02 172.7,-587.13 188.51,-591.5"/>
<polygon fill="black" stroke="black" points="187.48,-594.85 198.04,-594 189.25,-588.08 187.48,-594.85"/>
</g>
<!-- client_host.client_ccache&#45;&gt;shoggoth_host.direct_access_group.service_proxy.build_cache -->
<g id="edge36" class="edge">
<title>client_host.client_ccache&#45;&gt;shoggoth_host.direct_access_group.service_proxy.build_cache</title>
<path fill="none" stroke="black" d="M69.97,-537.37C74.09,-575.13 88.77,-661.94 138.9,-710 148.75,-719.44 161.8,-725.7 174.79,-729.85"/>
<polygon fill="black" stroke="black" points="173.59,-733.15 184.16,-732.46 175.46,-726.4 173.59,-733.15"/>
</g>
<!-- client_host.client_docker -->
<g id="node31" class="node">
<title>client_host.client_docker</title>
<polygon fill="lightyellow" stroke="black" points="94.45,-267 40.45,-267 40.45,-231 94.45,-231 94.45,-267"/>
<text text-anchor="middle" x="67.45" y="-245.3" font-family="Times,serif" font-size="11.00">docker</text>
</g>
<!-- client_host.client_docker&#45;&gt;shoggoth_host.direct_access_group.docker_cache -->
<g id="edge29" class="edge">
<title>client_host.client_docker&#45;&gt;shoggoth_host.direct_access_group.docker_cache</title>
<path fill="none" stroke="black" d="M70.82,-230.71C76.31,-195.6 93.14,-118.4 138.9,-75 140.93,-73.07 143.09,-71.27 145.35,-69.58"/>
<polygon fill="black" stroke="black" points="146.77,-72.84 153.25,-64.46 142.96,-66.96 146.77,-72.84"/>
</g>
</g>
</svg>
