<?xml version="1.0" encoding="UTF-8" standalone="no"?>
<!DOCTYPE svg PUBLIC "-//W3C//DTD SVG 1.1//EN"
 "http://www.w3.org/Graphics/SVG/1.1/DTD/svg11.dtd">
<!-- Generated by graphviz version 12.2.1 (20241206.2353)
 -->
<!-- Title: architecture Pages: 1 -->
<svg width="1091pt" height="855pt"
 viewBox="0.00 0.00 1091.05 855.00" xmlns="http://www.w3.org/2000/svg" xmlns:xlink="http://www.w3.org/1999/xlink">
<g id="graph0" class="graph" transform="scale(1 1) rotate(0) translate(4 851)">
<title>architecture</title>
<polygon fill="white" stroke="none" points="-4,4 -4,-851 1087.05,-851 1087.05,4 -4,4"/>
<g id="clust1" class="cluster">
<title>external_services</title>
<polygon fill="#fff8dc" stroke="black" stroke-dasharray="5,2" points="896.9,-8 896.9,-313 1075.05,-313 1075.05,-8 896.9,-8"/>
<text text-anchor="middle" x="985.97" y="-295.7" font-family="Times,serif" font-size="14.00">External Services</text>
</g>
<g id="clust2" class="cluster">
<title>shoggoth_host</title>
<polygon fill="#e8f4f8" stroke="black" stroke-dasharray="5,2" points="138.9,-16 138.9,-839 885.02,-839 885.02,-16 138.9,-16"/>
<text text-anchor="middle" x="511.96" y="-821.7" font-family="Times,serif" font-size="14.00">shoggoth.local</text>
</g>
<g id="clust3" class="cluster">
<title>shoggoth_host.behind_proxy_group</title>
</g>
<g id="clust4" class="cluster">
<title>shoggoth_host.behind_proxy_group.redmine_group</title>
<polygon fill="#e8f4f8" stroke="black" points="327.05,-253 327.05,-351 643.5,-351 643.5,-253 327.05,-253"/>
<text text-anchor="middle" x="485.27" y="-333.7" font-family="Times,serif" font-size="14.00">redmine</text>
</g>
<g id="clust5" class="cluster">
<title>shoggoth_host.behind_proxy_group.gitea_group</title>
<polygon fill="#e8f4f8" stroke="black" points="344,-359 344,-457 869.02,-457 869.02,-359 344,-359"/>
<text text-anchor="middle" x="606.51" y="-439.7" font-family="Times,serif" font-size="14.00">gitea</text>
</g>
<g id="clust6" class="cluster">
<title>shoggoth_host.direct_access_group</title>
</g>
<g id="clust7" class="cluster">
<title>shoggoth_host.direct_access_group.service_proxy</title>
<polygon fill="lightsteelblue" stroke="black" points="165.15,-136 165.15,-798 288.8,-798 288.8,-136 165.15,-136"/>
<text text-anchor="middle" x="226.98" y="-780.7" font-family="Times,serif" font-size="14.00">web (angie)</text>
</g>
<g id="clust8" class="cluster">
<title>shoggoth_host.direct_access_group.service_proxy.proxy_services</title>
<polygon fill="#f0f8ff" stroke="black" stroke-dasharray="5,2" points="173.15,-144 173.15,-659 280.8,-659 280.8,-144 173.15,-144"/>
<text text-anchor="middle" x="226.98" y="-641.7" font-family="Times,serif" font-size="14.00">proxies</text>
</g>
<g id="clust9" class="cluster">
<title>client_host</title>
<polygon fill="#f0f0f0" stroke="black" stroke-dasharray="5,2" points="8,-201 8,-548 126.9,-548 126.9,-201 8,-201"/>
<text text-anchor="middle" x="67.45" y="-530.7" font-family="Times,serif" font-size="14.00">Client</text>
</g>
<!-- external_services.apt_repos -->
<g id="node1" class="node">
<title>external_services.apt_repos</title>
<path fill="honeydew" stroke="black" d="M1042.3,-274.29C1042.3,-277.14 1017.05,-279.46 985.97,-279.46 954.9,-279.46 929.65,-277.14 929.65,-274.29 929.65,-274.29 929.65,-227.71 929.65,-227.71 929.65,-224.86 954.9,-222.54 985.97,-222.54 1017.05,-222.54 1042.3,-224.86 1042.3,-227.71 1042.3,-227.71 1042.3,-274.29 1042.3,-274.29"/>
<path fill="none" stroke="black" d="M1042.3,-274.29C1042.3,-271.43 1017.05,-269.11 985.97,-269.11 954.9,-269.11 929.65,-271.43 929.65,-274.29"/>
<text text-anchor="middle" x="985.97" y="-254.05" font-family="Times,serif" font-size="11.00">APT Repositories</text>
<text text-anchor="middle" x="985.97" y="-240.55" font-family="Times,serif" font-size="11.00">(Ubuntu/Debian)</text>
</g>
<!-- external_services.external_dns -->
<g id="node2" class="node">
<title>external_services.external_dns</title>
<ellipse fill="honeydew" stroke="black" cx="985.97" cy="-110" rx="65.34" ry="19.73"/>
<text text-anchor="middle" x="985.97" y="-106.3" font-family="Times,serif" font-size="11.00">External DNS</text>
</g>
<!-- external_services.pypi_index -->
<g id="node3" class="node">
<title>external_services.pypi_index</title>
<path fill="honeydew" stroke="black" d="M1059.17,-199.29C1059.17,-202.14 1026.37,-204.46 985.97,-204.46 945.58,-204.46 912.77,-202.14 912.77,-199.29 912.77,-199.29 912.77,-152.71 912.77,-152.71 912.77,-149.86 945.58,-147.54 985.97,-147.54 1026.37,-147.54 1059.17,-149.86 1059.17,-152.71 1059.17,-152.71 1059.17,-199.29 1059.17,-199.29"/>
<path fill="none" stroke="black" d="M1059.17,-199.29C1059.17,-196.43 1026.37,-194.11 985.97,-194.11 945.58,-194.11 912.77,-196.43 912.77,-199.29"/>
<text text-anchor="middle" x="985.97" y="-179.05" font-family="Times,serif" font-size="11.00">PyPI</text>
<text text-anchor="middle" x="985.97" y="-165.55" font-family="Times,serif" font-size="11.00">(Python Package Index)</text>
</g>
<!-- external_services.docker_registries -->
<g id="node4" class="node">
<title>external_services.docker_registries</title>
<path fill="honeydew" stroke="black" d="M1067.05,-67.29C1067.05,-70.14 1030.71,-72.46 985.97,-72.46 941.24,-72.46 904.9,-70.14 904.9,-67.29 904.9,-67.29 904.9,-20.71 904.9,-20.71 904.9,-17.86 941.24,-15.54 985.97,-15.54 1030.71,-15.54 1067.05,-17.86 1067.05,-20.71 1067.05,-20.71 1067.05,-67.29 1067.05,-67.29"/>
<path fill="none" stroke="black" d="M1067.05,-67.29C1067.05,-64.43 1030.71,-62.11 985.97,-62.11 941.24,-62.11 904.9,-64.43 904.9,-67.29"/>
<text text-anchor="middle" x="985.97" y="-47.05" font-family="Times,serif" font-size="11.00">Docker Registries</text>
<text text-anchor="middle" x="985.97" y="-33.55" font-family="Times,serif" font-size="11.00">(Docker Hub, GHCR, etc.)</text>
</g>
<!-- shoggoth_host.behind_proxy_group.proxpi_service -->
<g id="node5" class="node">
<title>shoggoth_host.behind_proxy_group.proxpi_service</title>
<polygon fill="lightsteelblue" stroke="black" points="406,-245 352,-245 352,-241 348,-241 348,-237 352,-237 352,-217 348,-217 348,-213 352,-213 352,-209 406,-209 406,-245"/>
<polyline fill="none" stroke="black" points="352,-241 356,-241 356,-237 352,-237"/>
<polyline fill="none" stroke="black" points="352,-217 356,-217 356,-213 352,-213"/>
<text text-anchor="middle" x="379" y="-223.3" font-family="Times,serif" font-size="11.00">proxpi</text>
</g>
<!-- shoggoth_host.behind_proxy_group.proxpi_service&#45;&gt;external_services.pypi_index -->
<g id="edge4" class="edge">
<title>shoggoth_host.behind_proxy_group.proxpi_service&#45;&gt;external_services.pypi_index</title>
<path fill="none" stroke="black" d="M406.19,-209.6C446.6,-184.47 527.43,-141 602.92,-141 602.92,-141 602.92,-141 716,-141 778.54,-141 848.58,-150.42 901.5,-159.48"/>
<polygon fill="black" stroke="black" points="900.59,-162.88 911.04,-161.15 901.79,-155.98 900.59,-162.88"/>
</g>
<!-- shoggoth_host.behind_proxy_group.redmine_group.redmine_service -->
<g id="node6" class="node">
<title>shoggoth_host.behind_proxy_group.redmine_group.redmine_service</title>
<polygon fill="lightsteelblue" stroke="black" points="519.85,-307 458.95,-307 458.95,-303 454.95,-303 454.95,-299 458.95,-299 458.95,-279 454.95,-279 454.95,-275 458.95,-275 458.95,-271 519.85,-271 519.85,-307"/>
<polyline fill="none" stroke="black" points="458.95,-303 462.95,-303 462.95,-299 458.95,-299"/>
<polyline fill="none" stroke="black" points="458.95,-279 462.95,-279 462.95,-275 458.95,-275"/>
<text text-anchor="middle" x="489.4" y="-285.3" font-family="Times,serif" font-size="11.00">redmine</text>
</g>
<!-- shoggoth_host.behind_proxy_group.redmine_group.redmine_db -->
<g id="node7" class="node">
<title>shoggoth_host.behind_proxy_group.redmine_group.redmine_db</title>
<path fill="lightblue" stroke="black" d="M635.5,-312.29C635.5,-315.14 621.35,-317.46 603.92,-317.46 586.5,-317.46 572.35,-315.14 572.35,-312.29 572.35,-312.29 572.35,-265.71 572.35,-265.71 572.35,-262.86 586.5,-260.54 603.92,-260.54 621.35,-260.54 635.5,-262.86 635.5,-265.71 635.5,-265.71 635.5,-312.29 635.5,-312.29"/>
<path fill="none" stroke="black" d="M635.5,-312.29C635.5,-309.43 621.35,-307.11 603.92,-307.11 586.5,-307.11 572.35,-309.43 572.35,-312.29"/>
<text text-anchor="middle" x="603.92" y="-292.05" font-family="Times,serif" font-size="11.00">postgres</text>
<text text-anchor="middle" x="603.92" y="-278.55" font-family="Times,serif" font-size="11.00">db</text>
</g>
<!-- shoggoth_host.behind_proxy_group.redmine_group.redmine_service&#45;&gt;shoggoth_host.behind_proxy_group.redmine_group.redmine_db -->
<g id="edge9" class="edge">
<title>shoggoth_host.behind_proxy_group.redmine_group.redmine_service&#45;&gt;shoggoth_host.behind_proxy_group.redmine_group.redmine_db</title>
<path fill="none" stroke="black" d="M520.26,-289C532.65,-289 547.24,-289 560.7,-289"/>
<polygon fill="black" stroke="black" points="560.63,-292.5 570.63,-289 560.63,-285.5 560.63,-292.5"/>
</g>
<!-- shoggoth_host.behind_proxy_group.redmine_group.redmine_mcp -->
<g id="node8" class="node">
<title>shoggoth_host.behind_proxy_group.redmine_group.redmine_mcp</title>
<polygon fill="lightsteelblue" stroke="black" points="422.95,-303 335.05,-303 335.05,-299 331.05,-299 331.05,-295 335.05,-295 335.05,-275 331.05,-275 331.05,-271 335.05,-271 335.05,-267 422.95,-267 422.95,-303"/>
<polyline fill="none" stroke="black" points="335.05,-299 339.05,-299 339.05,-295 335.05,-295"/>
<polyline fill="none" stroke="black" points="335.05,-275 339.05,-275 339.05,-271 335.05,-271"/>
<text text-anchor="middle" x="379" y="-281.3" font-family="Times,serif" font-size="11.00">redmine&#45;mcp</text>
</g>
<!-- shoggoth_host.behind_proxy_group.redmine_group.redmine_mcp&#45;&gt;shoggoth_host.behind_proxy_group.redmine_group.redmine_service -->
<g id="edge7" class="edge">
<title>shoggoth_host.behind_proxy_group.redmine_group.redmine_mcp&#45;&gt;shoggoth_host.behind_proxy_group.redmine_group.redmine_service</title>
<path fill="none" stroke="black" d="M423.15,-286.59C431.17,-286.89 439.52,-287.2 447.46,-287.49"/>
<polygon fill="black" stroke="black" points="447.09,-290.98 457.21,-287.85 447.35,-283.98 447.09,-290.98"/>
</g>
<!-- shoggoth_host.behind_proxy_group.gitea_group.gitea_mcp -->
<g id="node9" class="node">
<title>shoggoth_host.behind_proxy_group.gitea_group.gitea_mcp</title>
<polygon fill="lightsteelblue" stroke="black" points="406,-424 352,-424 352,-420 348,-420 348,-416 352,-416 352,-396 348,-396 348,-392 352,-392 352,-388 406,-388 406,-424"/>
<polyline fill="none" stroke="black" points="352,-420 356,-420 356,-416 352,-416"/>
<polyline fill="none" stroke="black" points="352,-396 356,-396 356,-392 352,-392"/>
<text text-anchor="middle" x="379" y="-402.3" font-family="Times,serif" font-size="11.00">mcp</text>
</g>
<!-- shoggoth_host.behind_proxy_group.gitea_group.git_service -->
<g id="node13" class="node">
<title>shoggoth_host.behind_proxy_group.gitea_group.git_service</title>
<polygon fill="lightsteelblue" stroke="black" points="516.4,-424 462.4,-424 462.4,-420 458.4,-420 458.4,-416 462.4,-416 462.4,-396 458.4,-396 458.4,-392 462.4,-392 462.4,-388 516.4,-388 516.4,-424"/>
<polyline fill="none" stroke="black" points="462.4,-420 466.4,-420 466.4,-416 462.4,-416"/>
<polyline fill="none" stroke="black" points="462.4,-396 466.4,-396 466.4,-392 462.4,-392"/>
<text text-anchor="middle" x="489.4" y="-402.3" font-family="Times,serif" font-size="11.00">gitea</text>
</g>
<!-- shoggoth_host.behind_proxy_group.gitea_group.gitea_mcp&#45;&gt;shoggoth_host.behind_proxy_group.gitea_group.git_service -->
<g id="edge17" class="edge">
<title>shoggoth_host.behind_proxy_group.gitea_group.gitea_mcp&#45;&gt;shoggoth_host.behind_proxy_group.gitea_group.git_service</title>
<path fill="none" stroke="black" d="M406.24,-406C419.59,-406 436.06,-406 450.73,-406"/>
<polygon fill="black" stroke="black" points="450.51,-409.5 460.51,-406 450.51,-402.5 450.51,-409.5"/>
</g>
<!-- shoggoth_host.behind_proxy_group.gitea_group.ci_job -->
<g id="node10" class="node">
<title>shoggoth_host.behind_proxy_group.gitea_group.ci_job</title>
<polygon fill="lightsteelblue" stroke="black" points="742,-424 688,-424 688,-420 684,-420 684,-416 688,-416 688,-396 684,-396 684,-392 688,-392 688,-388 742,-388 742,-424"/>
<polyline fill="none" stroke="black" points="688,-420 692,-420 692,-416 688,-416"/>
<polyline fill="none" stroke="black" points="688,-396 692,-396 692,-392 688,-392"/>
<text text-anchor="middle" x="715" y="-402.3" font-family="Times,serif" font-size="11.00">CI job</text>
</g>
<!-- shoggoth_host.behind_proxy_group.gitea_group.cache_volume -->
<g id="node11" class="node">
<title>shoggoth_host.behind_proxy_group.gitea_group.cache_volume</title>
<path fill="lightblue" stroke="black" d="M861.03,-418.29C861.03,-421.14 844.18,-423.46 823.45,-423.46 802.72,-423.46 785.88,-421.14 785.88,-418.29 785.88,-418.29 785.88,-371.71 785.88,-371.71 785.88,-368.86 802.72,-366.54 823.45,-366.54 844.18,-366.54 861.03,-368.86 861.03,-371.71 861.03,-371.71 861.03,-418.29 861.03,-418.29"/>
<path fill="none" stroke="black" d="M861.03,-418.29C861.03,-415.43 844.18,-413.11 823.45,-413.11 802.72,-413.11 785.88,-415.43 785.88,-418.29"/>
<text text-anchor="middle" x="823.45" y="-398.05" font-family="Times,serif" font-size="11.00">data cache</text>
<text text-anchor="middle" x="823.45" y="-384.55" font-family="Times,serif" font-size="11.00">volume</text>
</g>
<!-- shoggoth_host.behind_proxy_group.gitea_group.ci_job&#45;&gt;shoggoth_host.behind_proxy_group.gitea_group.cache_volume -->
<g id="edge23" class="edge">
<title>shoggoth_host.behind_proxy_group.gitea_group.ci_job&#45;&gt;shoggoth_host.behind_proxy_group.gitea_group.cache_volume</title>
<path fill="none" stroke="black" d="M742.31,-403.28C752,-402.28 763.3,-401.11 774.31,-399.97"/>
<polygon fill="black" stroke="black" points="774.5,-403.47 784.09,-398.96 773.78,-396.51 774.5,-403.47"/>
</g>
<!-- shoggoth_host.behind_proxy_group.apt_cache -->
<g id="node14" class="node">
<title>shoggoth_host.behind_proxy_group.apt_cache</title>
<polygon fill="lightsteelblue" stroke="black" points="868.9,-309 778,-309 778,-305 774,-305 774,-301 778,-301 778,-281 774,-281 774,-277 778,-277 778,-273 868.9,-273 868.9,-309"/>
<polyline fill="none" stroke="black" points="778,-305 782,-305 782,-301 778,-301"/>
<polyline fill="none" stroke="black" points="778,-281 782,-281 782,-277 778,-277"/>
<text text-anchor="middle" x="823.45" y="-287.3" font-family="Times,serif" font-size="11.00">apt&#45;cacher&#45;ng</text>
</g>
<!-- shoggoth_host.behind_proxy_group.gitea_group.ci_job&#45;&gt;shoggoth_host.behind_proxy_group.apt_cache -->
<g id="edge22" class="edge">
<title>shoggoth_host.behind_proxy_group.gitea_group.ci_job&#45;&gt;shoggoth_host.behind_proxy_group.apt_cache</title>
<path fill="none" stroke="black" d="M733.1,-387.52C750.56,-368.66 777.84,-339.19 797.66,-317.78"/>
<polygon fill="black" stroke="black" points="800.14,-320.26 804.36,-310.54 795,-315.5 800.14,-320.26"/>
</g>
<!-- shoggoth_host.behind_proxy_group.git_pages_service -->
<g id="node16" class="node">
<title>shoggoth_host.behind_proxy_group.git_pages_service</title>
<polygon fill="lightsteelblue" stroke="black" points="856.53,-504 790.38,-504 790.38,-500 786.38,-500 786.38,-496 790.38,-496 790.38,-476 786.38,-476 786.38,-472 790.38,-472 790.38,-468 856.53,-468 856.53,-504"/>
<polyline fill="none" stroke="black" points="790.38,-500 794.38,-500 794.38,-496 790.38,-496"/>
<polyline fill="none" stroke="black" points="790.38,-476 794.38,-476 794.38,-472 790.38,-472"/>
<text text-anchor="middle" x="823.45" y="-482.3" font-family="Times,serif" font-size="11.00">git&#45;pages</text>
</g>
<!-- shoggoth_host.behind_proxy_group.gitea_group.ci_job&#45;&gt;shoggoth_host.behind_proxy_group.git_pages_service -->
<g id="edge21" class="edge">
<title>shoggoth_host.behind_proxy_group.gitea_group.ci_job&#45;&gt;shoggoth_host.behind_proxy_group.git_pages_service</title>
<path fill="none" stroke="black" d="M734.66,-424.45C746.53,-435.7 762.53,-449.98 778,-461 778.82,-461.58 779.66,-462.17 780.5,-462.74"/>
<polygon fill="black" stroke="black" points="778.32,-465.5 788.63,-467.95 782.09,-459.61 778.32,-465.5"/>
</g>
<!-- shoggoth_host.direct_access_group.service_proxy.build_cache -->
<g id="node27" class="node">
<title>shoggoth_host.direct_access_group.service_proxy.build_cache</title>
<path fill="lightblue" stroke="black" d="M267.93,-701.69C267.93,-703.62 249.57,-705.18 226.98,-705.18 204.38,-705.18 186.03,-703.62 186.03,-701.69 186.03,-701.69 186.03,-670.31 186.03,-670.31 186.03,-668.38 204.38,-666.82 226.98,-666.82 249.57,-666.82 267.93,-668.38 267.93,-670.31 267.93,-670.31 267.93,-701.69 267.93,-701.69"/>
<path fill="none" stroke="black" d="M267.93,-701.69C267.93,-699.77 249.57,-698.21 226.98,-698.21 204.38,-698.21 186.03,-699.77 186.03,-701.69"/>
<text text-anchor="middle" x="226.98" y="-682.3" font-family="Times,serif" font-size="11.00">build&#45;cache.</text>
</g>
<!-- shoggoth_host.behind_proxy_group.gitea_group.ci_job&#45;&gt;shoggoth_host.direct_access_group.service_proxy.build_cache -->
<g id="edge24" class="edge">
<title>shoggoth_host.behind_proxy_group.gitea_group.ci_job&#45;&gt;shoggoth_host.direct_access_group.service_proxy.build_cache</title>
<path fill="none" stroke="black" d="M714.23,-424.2C713.7,-464.83 706.53,-563.54 652,-617 600.06,-667.92 381.16,-681.3 279.84,-684.79"/>
<polygon fill="black" stroke="black" points="279.77,-681.29 269.89,-685.11 279.99,-688.28 279.77,-681.29"/>
</g>
<!-- shoggoth_host.direct_access_group.dns_service -->
<g id="node29" class="node">
<title>shoggoth_host.direct_access_group.dns_service</title>
<polygon fill="lightsteelblue" stroke="black" points="257.8,-128 196.15,-128 196.15,-124 192.15,-124 192.15,-120 196.15,-120 196.15,-100 192.15,-100 192.15,-96 196.15,-96 196.15,-92 257.8,-92 257.8,-128"/>
<polyline fill="none" stroke="black" points="196.15,-124 200.15,-124 200.15,-120 196.15,-120"/>
<polyline fill="none" stroke="black" points="196.15,-100 200.15,-100 200.15,-96 196.15,-96"/>
<text text-anchor="middle" x="226.98" y="-106.3" font-family="Times,serif" font-size="11.00">:53 DNS</text>
</g>
<!-- shoggoth_host.behind_proxy_group.gitea_group.ci_job&#45;&gt;shoggoth_host.direct_access_group.dns_service -->
<g id="edge25" class="edge">
<title>shoggoth_host.behind_proxy_group.gitea_group.ci_job&#45;&gt;shoggoth_host.direct_access_group.dns_service</title>
<path fill="none" stroke="black" d="M694.1,-424.43C630.48,-481.21 429.67,-643.32 319.05,-536 287.46,-505.35 332.6,-175.85 307.05,-140 298.15,-127.52 283.36,-120.23 268.97,-115.97"/>
<polygon fill="black" stroke="black" points="270.16,-112.66 259.61,-113.64 268.46,-119.45 270.16,-112.66"/>
</g>
<!-- shoggoth_host.behind_proxy_group.gitea_group.gitea_runner -->
<g id="node12" class="node">
<title>shoggoth_host.behind_proxy_group.gitea_group.gitea_runner</title>
<polygon fill="lightsteelblue" stroke="black" points="652,-424 555.85,-424 555.85,-420 551.85,-420 551.85,-416 555.85,-416 555.85,-396 551.85,-396 551.85,-392 555.85,-392 555.85,-388 652,-388 652,-424"/>
<polyline fill="none" stroke="black" points="555.85,-420 559.85,-420 559.85,-416 555.85,-416"/>
<polyline fill="none" stroke="black" points="555.85,-396 559.85,-396 559.85,-392 555.85,-392"/>
<text text-anchor="middle" x="603.92" y="-402.3" font-family="Times,serif" font-size="11.00">actions runner</text>
</g>
<!-- shoggoth_host.behind_proxy_group.gitea_group.gitea_runner&#45;&gt;shoggoth_host.behind_proxy_group.gitea_group.ci_job -->
<g id="edge19" class="edge">
<title>shoggoth_host.behind_proxy_group.gitea_group.gitea_runner&#45;&gt;shoggoth_host.behind_proxy_group.gitea_group.ci_job</title>
<path fill="none" stroke="black" d="M652.45,-406C660.36,-406 668.47,-406 676.1,-406"/>
<polygon fill="black" stroke="black" points="676.09,-409.5 686.09,-406 676.09,-402.5 676.09,-409.5"/>
</g>
<!-- shoggoth_host.direct_access_group.docker_cache -->
<g id="node28" class="node">
<title>shoggoth_host.direct_access_group.docker_cache</title>
<polygon fill="lightsteelblue" stroke="black" points="299.05,-73.7 154.9,-73.7 154.9,-69.7 150.9,-69.7 150.9,-65.7 154.9,-65.7 154.9,-40.3 150.9,-40.3 150.9,-36.3 154.9,-36.3 154.9,-32.3 299.05,-32.3 299.05,-73.7"/>
<polyline fill="none" stroke="black" points="154.9,-69.7 158.9,-69.7 158.9,-65.7 154.9,-65.7"/>
<polyline fill="none" stroke="black" points="154.9,-40.3 158.9,-40.3 158.9,-36.3 154.9,-36.3"/>
<text text-anchor="middle" x="226.98" y="-56.05" font-family="Times,serif" font-size="11.00">:3128</text>
<text text-anchor="middle" x="226.98" y="-42.55" font-family="Times,serif" font-size="11.00">(docker registry proxy)</text>
</g>
<!-- shoggoth_host.behind_proxy_group.gitea_group.gitea_runner&#45;&gt;shoggoth_host.direct_access_group.docker_cache -->
<g id="edge34" class="edge">
<title>shoggoth_host.behind_proxy_group.gitea_group.gitea_runner&#45;&gt;shoggoth_host.direct_access_group.docker_cache</title>
<path fill="none" stroke="black" d="M585.42,-424.19C536.77,-472.66 398.32,-596.12 319.05,-519 301.68,-502.1 321.09,-102.75 307.05,-83 306.9,-82.79 306.75,-82.58 306.6,-82.38"/>
<polygon fill="black" stroke="black" points="309.19,-80.02 299.79,-75.13 304.09,-84.81 309.19,-80.02"/>
</g>
<!-- shoggoth_host.behind_proxy_group.gitea_group.git_service&#45;&gt;shoggoth_host.behind_proxy_group.gitea_group.gitea_runner -->
<g id="edge33" class="edge">
<title>shoggoth_host.behind_proxy_group.gitea_group.git_service&#45;&gt;shoggoth_host.behind_proxy_group.gitea_group.gitea_runner</title>
<path fill="none" stroke="black" d="M516.78,-406C525.09,-406 534.63,-406 544.26,-406"/>
<polygon fill="black" stroke="black" points="544.03,-409.5 554.03,-406 544.03,-402.5 544.03,-409.5"/>
</g>
<!-- shoggoth_host.behind_proxy_group.apt_cache&#45;&gt;external_services.apt_repos -->
<g id="edge1" class="edge">
<title>shoggoth_host.behind_proxy_group.apt_cache&#45;&gt;external_services.apt_repos</title>
<path fill="none" stroke="black" d="M869.17,-279.86C884.46,-276.05 901.92,-271.7 918.55,-267.55"/>
<polygon fill="black" stroke="black" points="919.01,-271.04 927.87,-265.23 917.32,-264.25 919.01,-271.04"/>
</g>
<!-- shoggoth_host.behind_proxy_group.ollama_service -->
<g id="node15" class="node">
<title>shoggoth_host.behind_proxy_group.ollama_service</title>
<polygon fill="lightsteelblue" stroke="black" points="419.2,-506.7 338.8,-506.7 338.8,-502.7 334.8,-502.7 334.8,-498.7 338.8,-498.7 338.8,-473.3 334.8,-473.3 334.8,-469.3 338.8,-469.3 338.8,-465.3 419.2,-465.3 419.2,-506.7"/>
<polyline fill="none" stroke="black" points="338.8,-502.7 342.8,-502.7 342.8,-498.7 338.8,-498.7"/>
<polyline fill="none" stroke="black" points="338.8,-473.3 342.8,-473.3 342.8,-469.3 338.8,-469.3"/>
<text text-anchor="middle" x="379" y="-489.05" font-family="Times,serif" font-size="11.00">LLM server</text>
<text text-anchor="middle" x="379" y="-475.55" font-family="Times,serif" font-size="11.00">(ollama)</text>
</g>
<!-- shoggoth_host.direct_access_group.service_proxy.proxy_services.proxy_ollama -->
<g id="node17" class="node">
<title>shoggoth_host.direct_access_group.service_proxy.proxy_services.proxy_ollama</title>
<polygon fill="lightgreen" stroke="black" points="255.18,-350 198.78,-350 198.78,-314 255.18,-314 255.18,-350"/>
<text text-anchor="middle" x="226.98" y="-328.3" font-family="Times,serif" font-size="11.00">ollama.</text>
</g>
<!-- shoggoth_host.direct_access_group.service_proxy.proxy_services.proxy_ollama&#45;&gt;shoggoth_host.behind_proxy_group.ollama_service -->
<g id="edge6" class="edge">
<title>shoggoth_host.direct_access_group.service_proxy.proxy_services.proxy_ollama&#45;&gt;shoggoth_host.behind_proxy_group.ollama_service</title>
<path fill="none" stroke="black" d="M255.64,-334.12C273.11,-336.99 294.65,-343.65 307.05,-359 335.73,-394.51 291.67,-424.48 319.05,-461 321.75,-464.6 325.07,-467.69 328.74,-470.33"/>
<polygon fill="black" stroke="black" points="326.76,-473.23 337.16,-475.27 330.31,-467.19 326.76,-473.23"/>
</g>
<!-- shoggoth_host.direct_access_group.service_proxy.proxy_services.proxy_git_http -->
<g id="node18" class="node">
<title>shoggoth_host.direct_access_group.service_proxy.proxy_services.proxy_git_http</title>
<polygon fill="lightgreen" stroke="black" points="253.98,-572 199.98,-572 199.98,-536 253.98,-536 253.98,-572"/>
<text text-anchor="middle" x="226.98" y="-550.3" font-family="Times,serif" font-size="11.00">git.</text>
</g>
<!-- shoggoth_host.direct_access_group.service_proxy.proxy_services.proxy_git_http&#45;&gt;shoggoth_host.behind_proxy_group.gitea_group.git_service -->
<g id="edge14" class="edge">
<title>shoggoth_host.direct_access_group.service_proxy.proxy_services.proxy_git_http&#45;&gt;shoggoth_host.behind_proxy_group.gitea_group.git_service</title>
<path fill="none" stroke="black" d="M254.19,-561.79C294.21,-572 371.31,-584.92 422.95,-551 462.08,-525.3 478.09,-470.06 484.44,-435.67"/>
<polygon fill="black" stroke="black" points="487.87,-436.39 486.05,-425.95 480.96,-435.24 487.87,-436.39"/>
</g>
<!-- shoggoth_host.direct_access_group.service_proxy.proxy_services.proxy_apt -->
<g id="node19" class="node">
<title>shoggoth_host.direct_access_group.service_proxy.proxy_services.proxy_apt</title>
<polygon fill="lightgreen" stroke="black" points="263.05,-188 190.9,-188 190.9,-152 263.05,-152 263.05,-188"/>
<text text-anchor="middle" x="226.98" y="-166.3" font-family="Times,serif" font-size="11.00">apt&#45;cache.</text>
</g>
<!-- shoggoth_host.direct_access_group.service_proxy.proxy_services.proxy_apt&#45;&gt;shoggoth_host.behind_proxy_group.apt_cache -->
<g id="edge27" class="edge">
<title>shoggoth_host.direct_access_group.service_proxy.proxy_services.proxy_apt&#45;&gt;shoggoth_host.behind_proxy_group.apt_cache</title>
<path fill="none" stroke="black" d="M263.36,-170C313.45,-170 407.92,-170 488.4,-170 488.4,-170 488.4,-170 604.92,-170 682.46,-170 758.17,-229.44 796.52,-265"/>
<polygon fill="black" stroke="black" points="793.8,-267.24 803.47,-271.58 798.61,-262.16 793.8,-267.24"/>
</g>
<!-- shoggoth_host.direct_access_group.service_proxy.proxy_services.proxy_mcp -->
<g id="node20" class="node">
<title>shoggoth_host.direct_access_group.service_proxy.proxy_services.proxy_mcp</title>
<polygon fill="lightgreen" stroke="black" points="263.8,-296 190.15,-296 190.15,-260 263.8,-260 263.8,-296"/>
<text text-anchor="middle" x="226.98" y="-274.3" font-family="Times,serif" font-size="11.00">gitea&#45;mcp.</text>
</g>
<!-- shoggoth_host.direct_access_group.service_proxy.proxy_services.proxy_mcp&#45;&gt;shoggoth_host.behind_proxy_group.gitea_group.gitea_mcp -->
<g id="edge16" class="edge">
<title>shoggoth_host.direct_access_group.service_proxy.proxy_services.proxy_mcp&#45;&gt;shoggoth_host.behind_proxy_group.gitea_group.gitea_mcp</title>
<path fill="none" stroke="black" d="M264.1,-282.52C279.31,-286.2 296.01,-292.88 307.05,-305 322.44,-321.9 307.17,-335.48 319.05,-355 325.17,-365.06 333.94,-374.17 342.85,-381.82"/>
<polygon fill="black" stroke="black" points="340.55,-384.46 350.53,-388.01 344.94,-379.01 340.55,-384.46"/>
</g>
<!-- shoggoth_host.direct_access_group.service_proxy.proxy_services.proxy_redmine_mcp -->
<g id="node21" class="node">
<title>shoggoth_host.direct_access_group.service_proxy.proxy_services.proxy_redmine_mcp</title>
<polygon fill="lightgreen" stroke="black" points="272.8,-242 181.15,-242 181.15,-206 272.8,-206 272.8,-242"/>
<text text-anchor="middle" x="226.98" y="-220.3" font-family="Times,serif" font-size="11.00">redmine&#45;mcp.</text>
</g>
<!-- shoggoth_host.direct_access_group.service_proxy.proxy_services.proxy_redmine_mcp&#45;&gt;shoggoth_host.behind_proxy_group.redmine_group.redmine_mcp -->
<g id="edge31" class="edge">
<title>shoggoth_host.direct_access_group.service_proxy.proxy_services.proxy_redmine_mcp&#45;&gt;shoggoth_host.behind_proxy_group.redmine_group.redmine_mcp</title>
<path fill="none" stroke="black" d="M273.09,-235.46C284.64,-239.43 296.71,-244.56 307.05,-251 313.45,-254.99 312.71,-258.92 319.05,-263 320.88,-264.17 322.77,-265.3 324.72,-266.37"/>
<polygon fill="black" stroke="black" points="322.9,-269.38 333.41,-270.67 326,-263.1 322.9,-269.38"/>
</g>
<!-- shoggoth_host.direct_access_group.service_proxy.proxy_services.proxy_redmine -->
<g id="node22" class="node">
<title>shoggoth_host.direct_access_group.service_proxy.proxy_services.proxy_redmine</title>
<polygon fill="lightgreen" stroke="black" points="259.3,-518 194.65,-518 194.65,-482 259.3,-482 259.3,-518"/>
<text text-anchor="middle" x="226.98" y="-496.3" font-family="Times,serif" font-size="11.00">redmine.</text>
</g>
<!-- shoggoth_host.direct_access_group.service_proxy.proxy_services.proxy_redmine&#45;&gt;shoggoth_host.behind_proxy_group.redmine_group.redmine_service -->
<g id="edge8" class="edge">
<title>shoggoth_host.direct_access_group.service_proxy.proxy_services.proxy_redmine&#45;&gt;shoggoth_host.behind_proxy_group.redmine_group.redmine_service</title>
<path fill="none" stroke="black" d="M259.78,-508.32C308.51,-520.22 398.57,-538.61 422.95,-519 481.1,-472.23 435.63,-425.89 458.95,-355 463.08,-342.45 468.8,-329.05 474.1,-317.63"/>
<polygon fill="black" stroke="black" points="477.19,-319.27 478.33,-308.74 470.87,-316.26 477.19,-319.27"/>
</g>
<!-- shoggoth_host.direct_access_group.service_proxy.proxy_services.proxy_git_pages -->
<g id="node23" class="node">
<title>shoggoth_host.direct_access_group.service_proxy.proxy_services.proxy_git_pages</title>
<polygon fill="lightgreen" stroke="black" points="261.93,-626 192.03,-626 192.03,-590 261.93,-590 261.93,-626"/>
<text text-anchor="middle" x="226.98" y="-604.3" font-family="Times,serif" font-size="11.00">git&#45;pages.</text>
</g>
<!-- shoggoth_host.direct_access_group.service_proxy.proxy_services.proxy_git_pages&#45;&gt;shoggoth_host.behind_proxy_group.git_pages_service -->
<g id="edge41" class="edge">
<title>shoggoth_host.direct_access_group.service_proxy.proxy_services.proxy_git_pages&#45;&gt;shoggoth_host.behind_proxy_group.git_pages_service</title>
<path fill="none" stroke="black" d="M262.2,-617.58C322.26,-634.05 444.4,-666 488.4,-666 488.4,-666 488.4,-666 604.92,-666 699.16,-666 774.54,-564.48 806.23,-513.92"/>
<polygon fill="black" stroke="black" points="809.13,-515.9 811.36,-505.54 803.16,-512.24 809.13,-515.9"/>
</g>
<!-- shoggoth_host.direct_access_group.service_proxy.proxy_services.proxy_git -->
<g id="node24" class="node">
<title>shoggoth_host.direct_access_group.service_proxy.proxy_services.proxy_git</title>
<polygon fill="lightgreen" stroke="black" points="253.98,-463.7 199.98,-463.7 199.98,-422.3 253.98,-422.3 253.98,-463.7"/>
<text text-anchor="middle" x="226.98" y="-446.05" font-family="Times,serif" font-size="11.00">:3022</text>
<text text-anchor="middle" x="226.98" y="-432.55" font-family="Times,serif" font-size="11.00">git/ssh</text>
</g>
<!-- shoggoth_host.direct_access_group.service_proxy.proxy_services.proxy_git&#45;&gt;shoggoth_host.behind_proxy_group.gitea_group.git_service -->
<g id="edge37" class="edge">
<title>shoggoth_host.direct_access_group.service_proxy.proxy_services.proxy_git&#45;&gt;shoggoth_host.behind_proxy_group.gitea_group.git_service</title>
<path fill="none" stroke="black" d="M254.26,-446.64C271.59,-450.38 293.51,-457.92 307.05,-473 321.17,-488.72 302.33,-506.08 319.05,-519 355.59,-547.23 382.94,-542.06 422.95,-519 454.06,-501.07 471.73,-462.08 480.68,-434.94"/>
<polygon fill="black" stroke="black" points="483.96,-436.17 483.55,-425.58 477.27,-434.12 483.96,-436.17"/>
</g>
<!-- shoggoth_host.direct_access_group.service_proxy.proxy_services.proxy_proxpi -->
<g id="node25" class="node">
<title>shoggoth_host.direct_access_group.service_proxy.proxy_services.proxy_proxpi</title>
<polygon fill="lightgreen" stroke="black" points="253.98,-404 199.98,-404 199.98,-368 253.98,-368 253.98,-404"/>
<text text-anchor="middle" x="226.98" y="-382.3" font-family="Times,serif" font-size="11.00">proxpi.</text>
</g>
<!-- shoggoth_host.direct_access_group.service_proxy.proxy_services.proxy_proxpi&#45;&gt;shoggoth_host.behind_proxy_group.proxpi_service -->
<g id="edge2" class="edge">
<title>shoggoth_host.direct_access_group.service_proxy.proxy_services.proxy_proxpi&#45;&gt;shoggoth_host.behind_proxy_group.proxpi_service</title>
<path fill="none" stroke="black" d="M254.15,-384.16C271.9,-381.44 294.36,-374.85 307.05,-359 337.79,-320.61 288.85,-287.82 319.05,-249 324.51,-241.99 332.45,-237.21 340.74,-233.95"/>
<polygon fill="black" stroke="black" points="341.76,-237.3 350.23,-230.95 339.64,-230.63 341.76,-237.3"/>
</g>
<!-- shoggoth_host.direct_access_group.service_proxy.home_page -->
<g id="node26" class="node">
<title>shoggoth_host.direct_access_group.service_proxy.home_page</title>
<polygon fill="#f0f8ff" stroke="black" points="258.93,-764.7 189.03,-764.7 189.03,-723.3 264.93,-723.3 264.93,-758.7 258.93,-764.7"/>
<polyline fill="none" stroke="black" points="258.93,-764.7 258.93,-758.7"/>
<polyline fill="none" stroke="black" points="264.93,-758.7 258.93,-758.7"/>
<text text-anchor="middle" x="226.98" y="-747.05" font-family="Times,serif" font-size="11.00">:80</text>
<text text-anchor="middle" x="226.98" y="-733.55" font-family="Times,serif" font-size="11.00">home page</text>
</g>
<!-- shoggoth_host.direct_access_group.service_proxy.build_cache&#45;&gt;shoggoth_host.behind_proxy_group.proxpi_service -->
<!-- shoggoth_host.direct_access_group.service_proxy.build_cache&#45;&gt;shoggoth_host.behind_proxy_group.gitea_group.gitea_mcp -->
<!-- shoggoth_host.direct_access_group.service_proxy.build_cache&#45;&gt;shoggoth_host.behind_proxy_group.gitea_group.ci_job -->
<!-- shoggoth_host.direct_access_group.service_proxy.build_cache&#45;&gt;shoggoth_host.behind_proxy_group.gitea_group.gitea_runner -->
<!-- shoggoth_host.direct_access_group.service_proxy.build_cache&#45;&gt;shoggoth_host.behind_proxy_group.gitea_group.git_service -->
<!-- shoggoth_host.direct_access_group.service_proxy.build_cache&#45;&gt;shoggoth_host.behind_proxy_group.apt_cache -->
<!-- shoggoth_host.direct_access_group.service_proxy.build_cache&#45;&gt;shoggoth_host.behind_proxy_group.ollama_service -->
<!-- shoggoth_host.direct_access_group.docker_cache&#45;&gt;external_services.docker_registries -->
<g id="edge36" class="edge">
<title>shoggoth_host.direct_access_group.docker_cache&#45;&gt;external_services.docker_registries</title>
<path fill="none" stroke="black" d="M299.54,-51.31C351.86,-50.22 424.53,-49 488.4,-49 488.4,-49 488.4,-49 716,-49 775.07,-49 841.42,-47.78 893.44,-46.54"/>
<polygon fill="black" stroke="black" points="893.23,-50.05 903.14,-46.31 893.06,-43.05 893.23,-50.05"/>
</g>
<!-- shoggoth_host.direct_access_group.dns_service&#45;&gt;external_services.external_dns -->
<g id="edge28" class="edge">
<title>shoggoth_host.direct_access_group.dns_service&#45;&gt;external_services.external_dns</title>
<path fill="none" stroke="black" d="M258.04,-108.67C306.52,-106.64 404.95,-103 488.4,-103 488.4,-103 488.4,-103 716,-103 781.42,-103 855.75,-105.09 909.67,-106.99"/>
<polygon fill="black" stroke="black" points="909.23,-110.48 919.35,-107.34 909.48,-103.48 909.23,-110.48"/>
</g>
<!-- client_host.client_browser -->
<g id="node30" class="node">
<title>client_host.client_browser</title>
<polygon fill="lightyellow" stroke="black" points="98.65,-515 36.25,-515 36.25,-479 98.65,-479 98.65,-515"/>
<text text-anchor="middle" x="67.45" y="-493.3" font-family="Times,serif" font-size="11.00">Browser</text>
</g>
<!-- client_host.client_browser&#45;&gt;shoggoth_host.direct_access_group.service_proxy.proxy_services.proxy_git_http -->
<g id="edge12" class="edge">
<title>client_host.client_browser&#45;&gt;shoggoth_host.direct_access_group.service_proxy.proxy_services.proxy_git_http</title>
<path fill="none" stroke="black" d="M99.04,-510.83C111.32,-516.17 125.67,-522.15 138.9,-527 155.16,-532.97 173.43,-538.77 189.02,-543.45"/>
<polygon fill="black" stroke="black" points="187.8,-546.74 198.38,-546.22 189.79,-540.03 187.8,-546.74"/>
</g>
<!-- client_host.client_browser&#45;&gt;shoggoth_host.direct_access_group.service_proxy.proxy_services.proxy_redmine -->
<g id="edge10" class="edge">
<title>client_host.client_browser&#45;&gt;shoggoth_host.direct_access_group.service_proxy.proxy_services.proxy_redmine</title>
<path fill="none" stroke="black" d="M98.82,-497.58C122.73,-498.03 156.35,-498.67 183.02,-499.18"/>
<polygon fill="black" stroke="black" points="182.77,-502.68 192.83,-499.37 182.9,-495.68 182.77,-502.68"/>
</g>
<!-- client_host.client_browser&#45;&gt;shoggoth_host.direct_access_group.service_proxy.proxy_services.proxy_git_pages -->
<g id="edge11" class="edge">
<title>client_host.client_browser&#45;&gt;shoggoth_host.direct_access_group.service_proxy.proxy_services.proxy_git_pages</title>
<path fill="none" stroke="black" d="M79.36,-515.4C91.57,-534.46 113.07,-563.82 138.9,-581 151.38,-589.3 166.54,-595.15 180.69,-599.23"/>
<polygon fill="black" stroke="black" points="179.73,-602.6 190.29,-601.76 181.51,-595.83 179.73,-602.6"/>
</g>
<!-- client_host.client_browser&#45;&gt;shoggoth_host.direct_access_group.service_proxy.home_page -->
<g id="edge13" class="edge">
<title>client_host.client_browser&#45;&gt;shoggoth_host.direct_access_group.service_proxy.home_page</title>
<path fill="none" stroke="black" d="M69.12,-515.5C71.61,-556.83 83.39,-657.49 138.9,-714 149.44,-724.73 163.98,-731.62 178.17,-736.05"/>
<polygon fill="black" stroke="black" points="176.84,-739.32 187.41,-738.58 178.69,-732.56 176.84,-739.32"/>
</g>
<!-- client_host.client_git -->
<g id="node31" class="node">
<title>client_host.client_git</title>
<polygon fill="lightyellow" stroke="black" points="94.45,-407 40.45,-407 40.45,-371 94.45,-371 94.45,-407"/>
<text text-anchor="middle" x="67.45" y="-385.3" font-family="Times,serif" font-size="11.00">git</text>
</g>
<!-- client_host.client_git&#45;&gt;shoggoth_host.direct_access_group.service_proxy.proxy_services.proxy_git -->
<g id="edge18" class="edge">
<title>client_host.client_git&#45;&gt;shoggoth_host.direct_access_group.service_proxy.proxy_services.proxy_git</title>
<path fill="none" stroke="black" d="M94.82,-398.04C120.6,-406.88 160.1,-420.42 189.01,-430.33"/>
<polygon fill="black" stroke="black" points="187.5,-433.51 198.09,-433.44 189.77,-426.89 187.5,-433.51"/>
</g>
<!-- client_host.client_apt -->
<g id="node32" class="node">
<title>client_host.client_apt</title>
<polygon fill="lightyellow" stroke="black" points="94.45,-299 40.45,-299 40.45,-263 94.45,-263 94.45,-299"/>
<text text-anchor="middle" x="67.45" y="-277.3" font-family="Times,serif" font-size="11.00">apt</text>
</g>
<!-- client_host.client_apt&#45;&gt;shoggoth_host.direct_access_group.service_proxy.proxy_services.proxy_apt -->
<g id="edge26" class="edge">
<title>client_host.client_apt&#45;&gt;shoggoth_host.direct_access_group.service_proxy.proxy_services.proxy_apt</title>
<path fill="none" stroke="black" d="M94.82,-274.6C106.28,-270.52 118.89,-264.05 126.9,-254 143.03,-233.75 121.47,-216.14 138.9,-197 149.35,-185.53 164.56,-178.89 179.35,-175.05"/>
<polygon fill="black" stroke="black" points="179.99,-178.5 189.02,-172.96 178.51,-171.66 179.99,-178.5"/>
</g>
<!-- client_host.client_docker -->
<g id="node33" class="node">
<title>client_host.client_docker</title>
<polygon fill="lightyellow" stroke="black" points="94.45,-245 40.45,-245 40.45,-209 94.45,-209 94.45,-245"/>
<text text-anchor="middle" x="67.45" y="-223.3" font-family="Times,serif" font-size="11.00">docker</text>
</g>
<!-- client_host.client_docker&#45;&gt;shoggoth_host.direct_access_group.docker_cache -->
<g id="edge35" class="edge">
<title>client_host.client_docker&#45;&gt;shoggoth_host.direct_access_group.docker_cache</title>
<path fill="none" stroke="black" d="M72.55,-208.77C80.29,-178.42 99.9,-117.47 138.9,-83 140.8,-81.32 142.79,-79.74 144.87,-78.24"/>
<polygon fill="black" stroke="black" points="146.55,-81.32 153.14,-73.03 142.81,-75.4 146.55,-81.32"/>
</g>
<!-- client_host.client_ccache -->
<g id="node34" class="node">
<title>client_host.client_ccache</title>
<polygon fill="lightyellow" stroke="black" points="117.78,-461 17.13,-461 17.13,-425 117.78,-425 117.78,-461"/>
<text text-anchor="middle" x="67.45" y="-439.3" font-family="Times,serif" font-size="11.00">ccache/sccache</text>
</g>
<!-- client_host.client_ccache&#45;&gt;shoggoth_host.direct_access_group.service_proxy.proxy_services.proxy_proxpi -->
<g id="edge43" class="edge">
<title>client_host.client_ccache&#45;&gt;shoggoth_host.direct_access_group.service_proxy.proxy_services.proxy_proxpi</title>
<path fill="none" stroke="black" d="M109.89,-424.52C119.35,-420.54 129.41,-416.48 138.9,-413 155.16,-407.03 173.43,-401.23 189.02,-396.55"/>
<polygon fill="black" stroke="black" points="189.79,-399.97 198.38,-393.78 187.8,-393.26 189.79,-399.97"/>
</g>
<!-- client_host.client_ccache&#45;&gt;shoggoth_host.direct_access_group.service_proxy.build_cache -->
<g id="edge42" class="edge">
<title>client_host.client_ccache&#45;&gt;shoggoth_host.direct_access_group.service_proxy.build_cache</title>
<path fill="none" stroke="black" d="M118.2,-460.77C121.53,-463.43 124.5,-466.49 126.9,-470 151.17,-505.46 111.64,-629.79 138.9,-663 147.82,-673.87 161.23,-679.94 174.86,-683.24"/>
<polygon fill="black" stroke="black" points="173.79,-686.6 184.28,-685.05 175.12,-679.73 173.79,-686.6"/>
</g>
<!-- client_host.ai_agent -->
<g id="node35" class="node">
<title>client_host.ai_agent</title>
<polygon fill="lightyellow" stroke="black" points="118.9,-353 16,-353 16,-317 118.9,-317 118.9,-353"/>
<text text-anchor="middle" x="67.45" y="-331.3" font-family="Times,serif" font-size="11.00">AI coding agent</text>
</g>
<!-- client_host.ai_agent&#45;&gt;shoggoth_host.direct_access_group.service_proxy.proxy_services.proxy_ollama -->
<g id="edge5" class="edge">
<title>client_host.ai_agent&#45;&gt;shoggoth_host.direct_access_group.service_proxy.proxy_services.proxy_ollama</title>
<path fill="none" stroke="black" d="M119.16,-334.03C141.11,-333.62 166.41,-333.13 186.88,-332.74"/>
<polygon fill="black" stroke="black" points="186.86,-336.25 196.79,-332.56 186.73,-329.25 186.86,-336.25"/>
</g>
<!-- client_host.ai_agent&#45;&gt;shoggoth_host.direct_access_group.service_proxy.proxy_services.proxy_mcp -->
<g id="edge29" class="edge">
<title>client_host.ai_agent&#45;&gt;shoggoth_host.direct_access_group.service_proxy.proxy_services.proxy_mcp</title>
<path fill="none" stroke="black" d="M109.89,-316.52C119.35,-312.54 129.41,-308.48 138.9,-305 151.79,-300.27 165.93,-295.65 179.01,-291.6"/>
<polygon fill="black" stroke="black" points="179.69,-295.05 188.24,-288.79 177.66,-288.36 179.69,-295.05"/>
</g>
<!-- client_host.ai_agent&#45;&gt;shoggoth_host.direct_access_group.service_proxy.proxy_services.proxy_redmine_mcp -->
<g id="edge30" class="edge">
<title>client_host.ai_agent&#45;&gt;shoggoth_host.direct_access_group.service_proxy.proxy_services.proxy_redmine_mcp</title>
<path fill="none" stroke="black" d="M117.93,-316.63C121.27,-314.1 124.32,-311.23 126.9,-308 143.03,-287.75 121.47,-270.14 138.9,-251 147.14,-241.95 158.35,-235.91 169.98,-231.88"/>
<polygon fill="black" stroke="black" points="170.65,-235.33 179.25,-229.14 168.67,-228.61 170.65,-235.33"/>
</g>
</g>
</svg>
