<?xml version="1.0" encoding="UTF-8" standalone="no"?>
<!DOCTYPE svg PUBLIC "-//W3C//DTD SVG 1.1//EN"
 "http://www.w3.org/Graphics/SVG/1.1/DTD/svg11.dtd">
<!-- Generated by graphviz version 12.2.1 (20241206.2353)
 -->
<!-- Title: architecture Pages: 1 -->
<svg width="1077pt" height="642pt"
 viewBox="0.00 0.00 1076.65 642.00" xmlns="http://www.w3.org/2000/svg" xmlns:xlink="http://www.w3.org/1999/xlink">
<g id="graph0" class="graph" transform="scale(1 1) rotate(0) translate(4 638)">
<title>architecture</title>
<polygon fill="white" stroke="none" points="-4,4 -4,-638 1072.65,-638 1072.65,4 -4,4"/>
<g id="clust1" class="cluster">
<title>shoggoth_host</title>
<polygon fill="#e8f4f8" stroke="black" stroke-dasharray="5,2" points="138.9,-25 138.9,-626 870.62,-626 870.62,-25 138.9,-25"/>
<text text-anchor="middle" x="504.76" y="-608.7" font-family="Times,serif" font-size="14.00">shoggoth.local</text>
</g>
<g id="clust2" class="cluster">
<title>shoggoth_host.direct_access_group</title>
</g>
<g id="clust3" class="cluster">
<title>shoggoth_host.direct_access_group.service_proxy</title>
<polygon fill="lightsteelblue" stroke="black" points="174.15,-147 174.15,-585 279.8,-585 279.8,-147 174.15,-147"/>
<text text-anchor="middle" x="226.97" y="-567.7" font-family="Times,serif" font-size="14.00">web (angie)</text>
</g>
<g id="clust4" class="cluster">
<title>shoggoth_host.direct_access_group.service_proxy.proxy_services</title>
<polygon fill="#f0f8ff" stroke="black" stroke-dasharray="5,2" points="182.15,-203 182.15,-502 271.8,-502 271.8,-203 182.15,-203"/>
<text text-anchor="middle" x="226.97" y="-484.7" font-family="Times,serif" font-size="14.00">proxies</text>
</g>
<g id="clust5" class="cluster">
<title>shoggoth_host.behind_proxy_group</title>
</g>
<g id="clust6" class="cluster">
<title>shoggoth_host.behind_proxy_group.gitea_group</title>
<polygon fill="#e8f4f8" stroke="black" points="340.25,-213 340.25,-311 854.62,-311 854.62,-213 340.25,-213"/>
<text text-anchor="middle" x="597.44" y="-293.7" font-family="Times,serif" font-size="14.00">gitea</text>
</g>
<g id="clust7" class="cluster">
<title>external_services</title>
<polygon fill="#fff8dc" stroke="black" stroke-dasharray="5,2" points="882.5,-8 882.5,-239 1060.65,-239 1060.65,-8 882.5,-8"/>
<text text-anchor="middle" x="971.57" y="-221.7" font-family="Times,serif" font-size="14.00">External Services</text>
</g>
<g id="clust8" class="cluster">
<title>client_host</title>
<polygon fill="#f0f0f0" stroke="black" stroke-dasharray="5,2" points="8,-128 8,-475 126.9,-475 126.9,-128 8,-128"/>
<text text-anchor="middle" x="67.45" y="-457.7" font-family="Times,serif" font-size="14.00">Client</text>
</g>
<!-- shoggoth_host.direct_access_group.dns_service -->
<g id="node1" class="node">
<title>shoggoth_host.direct_access_group.dns_service</title>
<polygon fill="lightsteelblue" stroke="black" points="257.8,-77 196.15,-77 196.15,-73 192.15,-73 192.15,-69 196.15,-69 196.15,-49 192.15,-49 192.15,-45 196.15,-45 196.15,-41 257.8,-41 257.8,-77"/>
<polyline fill="none" stroke="black" points="196.15,-73 200.15,-73 200.15,-69 196.15,-69"/>
<polyline fill="none" stroke="black" points="196.15,-49 200.15,-49 200.15,-45 196.15,-45"/>
<text text-anchor="middle" x="226.97" y="-55.3" font-family="Times,serif" font-size="11.00">:53 DNS</text>
</g>
<!-- external_services.external_dns -->
<g id="node17" class="node">
<title>external_services.external_dns</title>
<ellipse fill="honeydew" stroke="black" cx="971.57" cy="-36" rx="65.34" ry="19.73"/>
<text text-anchor="middle" x="971.57" y="-32.3" font-family="Times,serif" font-size="11.00">External DNS</text>
</g>
<!-- shoggoth_host.direct_access_group.dns_service&#45;&gt;external_services.external_dns -->
<g id="edge2" class="edge">
<title>shoggoth_host.direct_access_group.dns_service&#45;&gt;external_services.external_dns</title>
<path fill="none" stroke="black" d="M258.23,-54.4C305.08,-47.69 398.07,-36 477.45,-36 477.45,-36 477.45,-36 701.6,-36 766.78,-36 840.84,-36 894.72,-36"/>
<polygon fill="black" stroke="black" points="894.39,-39.5 904.39,-36 894.39,-32.5 894.39,-39.5"/>
</g>
<!-- shoggoth_host.direct_access_group.service_proxy.build_cache -->
<g id="node2" class="node">
<title>shoggoth_host.direct_access_group.service_proxy.build_cache</title>
<path fill="lightblue" stroke="black" d="M267.92,-189.69C267.92,-191.62 249.57,-193.18 226.97,-193.18 204.38,-193.18 186.02,-191.62 186.02,-189.69 186.02,-189.69 186.02,-158.31 186.02,-158.31 186.02,-156.38 204.38,-154.82 226.97,-154.82 249.57,-154.82 267.92,-156.38 267.92,-158.31 267.92,-158.31 267.92,-189.69 267.92,-189.69"/>
<path fill="none" stroke="black" d="M267.92,-189.69C267.92,-187.77 249.57,-186.21 226.97,-186.21 204.38,-186.21 186.02,-187.77 186.02,-189.69"/>
<text text-anchor="middle" x="226.97" y="-170.3" font-family="Times,serif" font-size="11.00">build&#45;cache.</text>
</g>
<!-- shoggoth_host.behind_proxy_group.gitea_group.gitea_mcp -->
<g id="node10" class="node">
<title>shoggoth_host.behind_proxy_group.gitea_group.gitea_mcp</title>
<polygon fill="lightsteelblue" stroke="black" points="402.25,-278 348.25,-278 348.25,-274 344.25,-274 344.25,-270 348.25,-270 348.25,-250 344.25,-250 344.25,-246 348.25,-246 348.25,-242 402.25,-242 402.25,-278"/>
<polyline fill="none" stroke="black" points="348.25,-274 352.25,-274 352.25,-270 348.25,-270"/>
<polyline fill="none" stroke="black" points="348.25,-250 352.25,-250 352.25,-246 348.25,-246"/>
<text text-anchor="middle" x="375.25" y="-256.3" font-family="Times,serif" font-size="11.00">mcp</text>
</g>
<!-- shoggoth_host.direct_access_group.service_proxy.build_cache&#45;&gt;shoggoth_host.behind_proxy_group.gitea_group.gitea_mcp -->
<!-- shoggoth_host.behind_proxy_group.gitea_group.gitea_runner -->
<g id="node12" class="node">
<title>shoggoth_host.behind_proxy_group.gitea_group.gitea_runner</title>
<polygon fill="lightsteelblue" stroke="black" points="637.6,-257 541.45,-257 541.45,-253 537.45,-253 537.45,-249 541.45,-249 541.45,-229 537.45,-229 537.45,-225 541.45,-225 541.45,-221 637.6,-221 637.6,-257"/>
<polyline fill="none" stroke="black" points="541.45,-253 545.45,-253 545.45,-249 541.45,-249"/>
<polyline fill="none" stroke="black" points="541.45,-229 545.45,-229 545.45,-225 541.45,-225"/>
<text text-anchor="middle" x="589.52" y="-235.3" font-family="Times,serif" font-size="11.00">actions runner</text>
</g>
<!-- shoggoth_host.direct_access_group.service_proxy.build_cache&#45;&gt;shoggoth_host.behind_proxy_group.gitea_group.gitea_runner -->
<!-- shoggoth_host.behind_proxy_group.gitea_group.git_service -->
<g id="node13" class="node">
<title>shoggoth_host.behind_proxy_group.gitea_group.git_service</title>
<polygon fill="lightsteelblue" stroke="black" points="505.45,-278 451.45,-278 451.45,-274 447.45,-274 447.45,-270 451.45,-270 451.45,-250 447.45,-250 447.45,-246 451.45,-246 451.45,-242 505.45,-242 505.45,-278"/>
<polyline fill="none" stroke="black" points="451.45,-274 455.45,-274 455.45,-270 451.45,-270"/>
<polyline fill="none" stroke="black" points="451.45,-250 455.45,-250 455.45,-246 451.45,-246"/>
<text text-anchor="middle" x="478.45" y="-256.3" font-family="Times,serif" font-size="11.00">gitea</text>
</g>
<!-- shoggoth_host.direct_access_group.service_proxy.build_cache&#45;&gt;shoggoth_host.behind_proxy_group.gitea_group.git_service -->
<!-- shoggoth_host.behind_proxy_group.gitea_group.ci_job -->
<g id="node14" class="node">
<title>shoggoth_host.behind_proxy_group.gitea_group.ci_job</title>
<polygon fill="lightsteelblue" stroke="black" points="727.6,-257 673.6,-257 673.6,-253 669.6,-253 669.6,-249 673.6,-249 673.6,-229 669.6,-229 669.6,-225 673.6,-225 673.6,-221 727.6,-221 727.6,-257"/>
<polyline fill="none" stroke="black" points="673.6,-253 677.6,-253 677.6,-249 673.6,-249"/>
<polyline fill="none" stroke="black" points="673.6,-229 677.6,-229 677.6,-225 673.6,-225"/>
<text text-anchor="middle" x="700.6" y="-235.3" font-family="Times,serif" font-size="11.00">CI job</text>
</g>
<!-- shoggoth_host.direct_access_group.service_proxy.build_cache&#45;&gt;shoggoth_host.behind_proxy_group.gitea_group.ci_job -->
<!-- shoggoth_host.behind_proxy_group.apt_cache -->
<g id="node15" class="node">
<title>shoggoth_host.behind_proxy_group.apt_cache</title>
<polygon fill="lightsteelblue" stroke="black" points="854.5,-355 763.6,-355 763.6,-351 759.6,-351 759.6,-347 763.6,-347 763.6,-327 759.6,-327 759.6,-323 763.6,-323 763.6,-319 854.5,-319 854.5,-355"/>
<polyline fill="none" stroke="black" points="763.6,-351 767.6,-351 767.6,-347 763.6,-347"/>
<polyline fill="none" stroke="black" points="763.6,-327 767.6,-327 767.6,-323 763.6,-323"/>
<text text-anchor="middle" x="809.05" y="-333.3" font-family="Times,serif" font-size="11.00">apt&#45;cacher&#45;ng</text>
</g>
<!-- shoggoth_host.direct_access_group.service_proxy.build_cache&#45;&gt;shoggoth_host.behind_proxy_group.apt_cache -->
<!-- shoggoth_host.behind_proxy_group.ollama_service -->
<g id="node16" class="node">
<title>shoggoth_host.behind_proxy_group.ollama_service</title>
<polygon fill="lightsteelblue" stroke="black" points="415.45,-360.7 335.05,-360.7 335.05,-356.7 331.05,-356.7 331.05,-352.7 335.05,-352.7 335.05,-327.3 331.05,-327.3 331.05,-323.3 335.05,-323.3 335.05,-319.3 415.45,-319.3 415.45,-360.7"/>
<polyline fill="none" stroke="black" points="335.05,-356.7 339.05,-356.7 339.05,-352.7 335.05,-352.7"/>
<polyline fill="none" stroke="black" points="335.05,-327.3 339.05,-327.3 339.05,-323.3 335.05,-323.3"/>
<text text-anchor="middle" x="375.25" y="-343.05" font-family="Times,serif" font-size="11.00">LLM server</text>
<text text-anchor="middle" x="375.25" y="-329.55" font-family="Times,serif" font-size="11.00">(ollama)</text>
</g>
<!-- shoggoth_host.direct_access_group.service_proxy.build_cache&#45;&gt;shoggoth_host.behind_proxy_group.ollama_service -->
<!-- shoggoth_host.direct_access_group.service_proxy.proxy_services.proxy_apt -->
<g id="node3" class="node">
<title>shoggoth_host.direct_access_group.service_proxy.proxy_services.proxy_apt</title>
<polygon fill="lightgreen" stroke="black" points="263.05,-415 190.9,-415 190.9,-379 263.05,-379 263.05,-415"/>
<text text-anchor="middle" x="226.97" y="-393.3" font-family="Times,serif" font-size="11.00">apt&#45;cache.</text>
</g>
<!-- shoggoth_host.direct_access_group.service_proxy.proxy_services.proxy_apt&#45;&gt;shoggoth_host.behind_proxy_group.apt_cache -->
<g id="edge12" class="edge">
<title>shoggoth_host.direct_access_group.service_proxy.proxy_services.proxy_apt&#45;&gt;shoggoth_host.behind_proxy_group.apt_cache</title>
<path fill="none" stroke="black" d="M263.5,-397.7C311.89,-398.58 401.22,-400 477.45,-400 477.45,-400 477.45,-400 590.52,-400 650.15,-400 715.46,-377.89 758.81,-359.87"/>
<polygon fill="black" stroke="black" points="760.11,-363.12 767.94,-355.98 757.37,-356.68 760.11,-363.12"/>
</g>
<!-- shoggoth_host.direct_access_group.service_proxy.proxy_services.proxy_git_http -->
<g id="node4" class="node">
<title>shoggoth_host.direct_access_group.service_proxy.proxy_services.proxy_git_http</title>
<polygon fill="lightgreen" stroke="black" points="253.97,-469 199.97,-469 199.97,-433 253.97,-433 253.97,-469"/>
<text text-anchor="middle" x="226.97" y="-447.3" font-family="Times,serif" font-size="11.00">git.</text>
</g>
<!-- shoggoth_host.direct_access_group.service_proxy.proxy_services.proxy_git_http&#45;&gt;shoggoth_host.behind_proxy_group.gitea_group.git_service -->
<g id="edge14" class="edge">
<title>shoggoth_host.direct_access_group.service_proxy.proxy_services.proxy_git_http&#45;&gt;shoggoth_host.behind_proxy_group.gitea_group.git_service</title>
<path fill="none" stroke="black" d="M254.47,-448.39C293.97,-443.2 368.64,-428.29 415.45,-387 444.88,-361.04 461.74,-317.94 470.25,-289.25"/>
<polygon fill="black" stroke="black" points="473.58,-290.33 472.89,-279.75 466.84,-288.45 473.58,-290.33"/>
</g>
<!-- shoggoth_host.direct_access_group.service_proxy.proxy_services.proxy_git -->
<g id="node5" class="node">
<title>shoggoth_host.direct_access_group.service_proxy.proxy_services.proxy_git</title>
<polygon fill="lightgreen" stroke="black" points="253.97,-252.7 199.97,-252.7 199.97,-211.3 253.97,-211.3 253.97,-252.7"/>
<text text-anchor="middle" x="226.97" y="-235.05" font-family="Times,serif" font-size="11.00">:3022</text>
<text text-anchor="middle" x="226.97" y="-221.55" font-family="Times,serif" font-size="11.00">git/ssh</text>
</g>
<!-- shoggoth_host.direct_access_group.service_proxy.proxy_services.proxy_git&#45;&gt;shoggoth_host.behind_proxy_group.gitea_group.git_service -->
<g id="edge21" class="edge">
<title>shoggoth_host.direct_access_group.service_proxy.proxy_services.proxy_git&#45;&gt;shoggoth_host.behind_proxy_group.gitea_group.git_service</title>
<path fill="none" stroke="black" d="M254.41,-228.83C291.04,-225.18 359.08,-221.1 415.45,-233 423.92,-234.79 432.65,-237.78 440.79,-241.14"/>
<polygon fill="black" stroke="black" points="439.13,-244.24 449.69,-245.09 441.97,-237.84 439.13,-244.24"/>
</g>
<!-- shoggoth_host.direct_access_group.service_proxy.proxy_services.proxy_ollama -->
<g id="node6" class="node">
<title>shoggoth_host.direct_access_group.service_proxy.proxy_services.proxy_ollama</title>
<polygon fill="lightgreen" stroke="black" points="255.17,-361 198.77,-361 198.77,-325 255.17,-325 255.17,-361"/>
<text text-anchor="middle" x="226.97" y="-339.3" font-family="Times,serif" font-size="11.00">ollama.</text>
</g>
<!-- shoggoth_host.direct_access_group.service_proxy.proxy_services.proxy_ollama&#45;&gt;shoggoth_host.behind_proxy_group.ollama_service -->
<g id="edge19" class="edge">
<title>shoggoth_host.direct_access_group.service_proxy.proxy_services.proxy_ollama&#45;&gt;shoggoth_host.behind_proxy_group.ollama_service</title>
<path fill="none" stroke="black" d="M255.49,-342.44C274.6,-342.04 300.64,-341.51 323.47,-341.04"/>
<polygon fill="black" stroke="black" points="323.27,-344.55 333.2,-340.84 323.13,-337.55 323.27,-344.55"/>
</g>
<!-- shoggoth_host.direct_access_group.service_proxy.proxy_services.proxy_mcp -->
<g id="node7" class="node">
<title>shoggoth_host.direct_access_group.service_proxy.proxy_services.proxy_mcp</title>
<polygon fill="lightgreen" stroke="black" points="263.8,-307 190.15,-307 190.15,-271 263.8,-271 263.8,-307"/>
<text text-anchor="middle" x="226.97" y="-285.3" font-family="Times,serif" font-size="11.00">gitea&#45;mcp.</text>
</g>
<!-- shoggoth_host.direct_access_group.service_proxy.proxy_services.proxy_mcp&#45;&gt;shoggoth_host.behind_proxy_group.gitea_group.gitea_mcp -->
<g id="edge15" class="edge">
<title>shoggoth_host.direct_access_group.service_proxy.proxy_services.proxy_mcp&#45;&gt;shoggoth_host.behind_proxy_group.gitea_group.gitea_mcp</title>
<path fill="none" stroke="black" d="M264.13,-281.83C286.32,-277.43 314.67,-271.81 337.05,-267.37"/>
<polygon fill="black" stroke="black" points="337.53,-270.85 346.66,-265.47 336.17,-263.98 337.53,-270.85"/>
</g>
<!-- shoggoth_host.direct_access_group.service_proxy.home_page -->
<g id="node8" class="node">
<title>shoggoth_host.direct_access_group.service_proxy.home_page</title>
<polygon fill="#f0f8ff" stroke="black" points="258.92,-551.7 189.02,-551.7 189.02,-510.3 264.92,-510.3 264.92,-545.7 258.92,-551.7"/>
<polyline fill="none" stroke="black" points="258.92,-551.7 258.92,-545.7"/>
<polyline fill="none" stroke="black" points="264.92,-545.7 258.92,-545.7"/>
<text text-anchor="middle" x="226.97" y="-534.05" font-family="Times,serif" font-size="11.00">:80</text>
<text text-anchor="middle" x="226.97" y="-520.55" font-family="Times,serif" font-size="11.00">home page</text>
</g>
<!-- shoggoth_host.direct_access_group.docker_cache -->
<g id="node9" class="node">
<title>shoggoth_host.direct_access_group.docker_cache</title>
<polygon fill="lightsteelblue" stroke="black" points="299.05,-136.7 154.9,-136.7 154.9,-132.7 150.9,-132.7 150.9,-128.7 154.9,-128.7 154.9,-103.3 150.9,-103.3 150.9,-99.3 154.9,-99.3 154.9,-95.3 299.05,-95.3 299.05,-136.7"/>
<polyline fill="none" stroke="black" points="154.9,-132.7 158.9,-132.7 158.9,-128.7 154.9,-128.7"/>
<polyline fill="none" stroke="black" points="154.9,-103.3 158.9,-103.3 158.9,-99.3 154.9,-99.3"/>
<text text-anchor="middle" x="226.97" y="-119.05" font-family="Times,serif" font-size="11.00">:3128</text>
<text text-anchor="middle" x="226.97" y="-105.55" font-family="Times,serif" font-size="11.00">(docker registry proxy)</text>
</g>
<!-- external_services.docker_registries -->
<g id="node18" class="node">
<title>external_services.docker_registries</title>
<path fill="honeydew" stroke="black" d="M1052.65,-125.29C1052.65,-128.14 1016.31,-130.46 971.57,-130.46 926.84,-130.46 890.5,-128.14 890.5,-125.29 890.5,-125.29 890.5,-78.71 890.5,-78.71 890.5,-75.86 926.84,-73.54 971.57,-73.54 1016.31,-73.54 1052.65,-75.86 1052.65,-78.71 1052.65,-78.71 1052.65,-125.29 1052.65,-125.29"/>
<path fill="none" stroke="black" d="M1052.65,-125.29C1052.65,-122.43 1016.31,-120.11 971.57,-120.11 926.84,-120.11 890.5,-122.43 890.5,-125.29"/>
<text text-anchor="middle" x="971.57" y="-105.05" font-family="Times,serif" font-size="11.00">Docker Registries</text>
<text text-anchor="middle" x="971.57" y="-91.55" font-family="Times,serif" font-size="11.00">(Docker Hub, GHCR, etc.)</text>
</g>
<!-- shoggoth_host.direct_access_group.docker_cache&#45;&gt;external_services.docker_registries -->
<g id="edge30" class="edge">
<title>shoggoth_host.direct_access_group.docker_cache&#45;&gt;external_services.docker_registries</title>
<path fill="none" stroke="black" d="M299.49,-97.46C349.08,-86.2 416.84,-74 477.45,-74 477.45,-74 477.45,-74 701.6,-74 760.87,-74 827.09,-80.81 878.99,-87.71"/>
<polygon fill="black" stroke="black" points="878.3,-91.15 888.68,-89.03 879.24,-84.21 878.3,-91.15"/>
</g>
<!-- shoggoth_host.behind_proxy_group.gitea_group.gitea_mcp&#45;&gt;shoggoth_host.behind_proxy_group.gitea_group.git_service -->
<g id="edge16" class="edge">
<title>shoggoth_host.behind_proxy_group.gitea_group.gitea_mcp&#45;&gt;shoggoth_host.behind_proxy_group.gitea_group.git_service</title>
<path fill="none" stroke="black" d="M402.57,-260C413.94,-260 427.44,-260 439.83,-260"/>
<polygon fill="black" stroke="black" points="439.74,-263.5 449.74,-260 439.74,-256.5 439.74,-263.5"/>
</g>
<!-- shoggoth_host.behind_proxy_group.gitea_group.cache_volume -->
<g id="node11" class="node">
<title>shoggoth_host.behind_proxy_group.gitea_group.cache_volume</title>
<path fill="lightblue" stroke="black" d="M846.62,-272.29C846.62,-275.14 829.78,-277.46 809.05,-277.46 788.32,-277.46 771.47,-275.14 771.47,-272.29 771.47,-272.29 771.47,-225.71 771.47,-225.71 771.47,-222.86 788.32,-220.54 809.05,-220.54 829.78,-220.54 846.62,-222.86 846.62,-225.71 846.62,-225.71 846.62,-272.29 846.62,-272.29"/>
<path fill="none" stroke="black" d="M846.62,-272.29C846.62,-269.43 829.78,-267.11 809.05,-267.11 788.32,-267.11 771.47,-269.43 771.47,-272.29"/>
<text text-anchor="middle" x="809.05" y="-252.05" font-family="Times,serif" font-size="11.00">data cache</text>
<text text-anchor="middle" x="809.05" y="-238.55" font-family="Times,serif" font-size="11.00">volume</text>
</g>
<!-- shoggoth_host.behind_proxy_group.gitea_group.gitea_runner&#45;&gt;shoggoth_host.direct_access_group.docker_cache -->
<g id="edge28" class="edge">
<title>shoggoth_host.behind_proxy_group.gitea_group.gitea_runner&#45;&gt;shoggoth_host.direct_access_group.docker_cache</title>
<path fill="none" stroke="black" d="M541.14,-222.83C479.82,-201.92 372.38,-165.26 300.7,-140.81"/>
<polygon fill="black" stroke="black" points="301.98,-137.55 291.39,-137.63 299.72,-144.17 301.98,-137.55"/>
</g>
<!-- shoggoth_host.behind_proxy_group.gitea_group.gitea_runner&#45;&gt;shoggoth_host.behind_proxy_group.gitea_group.ci_job -->
<g id="edge29" class="edge">
<title>shoggoth_host.behind_proxy_group.gitea_group.gitea_runner&#45;&gt;shoggoth_host.behind_proxy_group.gitea_group.ci_job</title>
<path fill="none" stroke="black" d="M638.05,-239C645.96,-239 654.07,-239 661.7,-239"/>
<polygon fill="black" stroke="black" points="661.69,-242.5 671.69,-239 661.69,-235.5 661.69,-242.5"/>
</g>
<!-- shoggoth_host.behind_proxy_group.gitea_group.git_service&#45;&gt;shoggoth_host.behind_proxy_group.gitea_group.gitea_runner -->
<g id="edge27" class="edge">
<title>shoggoth_host.behind_proxy_group.gitea_group.git_service&#45;&gt;shoggoth_host.behind_proxy_group.gitea_group.gitea_runner</title>
<path fill="none" stroke="black" d="M505.85,-254.92C513.22,-253.5 521.53,-251.9 529.96,-250.27"/>
<polygon fill="black" stroke="black" points="530.42,-253.75 539.57,-248.42 529.09,-246.88 530.42,-253.75"/>
</g>
<!-- shoggoth_host.behind_proxy_group.gitea_group.ci_job&#45;&gt;shoggoth_host.direct_access_group.dns_service -->
<g id="edge1" class="edge">
<title>shoggoth_host.behind_proxy_group.gitea_group.ci_job&#45;&gt;shoggoth_host.direct_access_group.dns_service</title>
<path fill="none" stroke="black" d="M690.32,-220.83C679.97,-202.41 661.48,-174.49 637.6,-159 519.46,-82.36 347.56,-64.43 269.41,-60.26"/>
<polygon fill="black" stroke="black" points="269.81,-56.77 259.65,-59.79 269.47,-63.77 269.81,-56.77"/>
</g>
<!-- shoggoth_host.behind_proxy_group.gitea_group.ci_job&#45;&gt;shoggoth_host.direct_access_group.service_proxy.build_cache -->
<g id="edge3" class="edge">
<title>shoggoth_host.behind_proxy_group.gitea_group.ci_job&#45;&gt;shoggoth_host.direct_access_group.service_proxy.build_cache</title>
<path fill="none" stroke="black" d="M673.39,-225.45C662.57,-220.43 649.75,-215.19 637.6,-212 512.11,-179.03 358.43,-173.72 279.78,-173.41"/>
<polygon fill="black" stroke="black" points="279.79,-169.91 269.78,-173.4 279.78,-176.91 279.79,-169.91"/>
</g>
<!-- shoggoth_host.behind_proxy_group.gitea_group.ci_job&#45;&gt;shoggoth_host.behind_proxy_group.gitea_group.cache_volume -->
<g id="edge22" class="edge">
<title>shoggoth_host.behind_proxy_group.gitea_group.ci_job&#45;&gt;shoggoth_host.behind_proxy_group.gitea_group.cache_volume</title>
<path fill="none" stroke="black" d="M727.91,-241.47C737.6,-242.38 748.9,-243.44 759.91,-244.48"/>
<polygon fill="black" stroke="black" points="759.41,-247.95 769.69,-245.4 760.06,-240.98 759.41,-247.95"/>
</g>
<!-- shoggoth_host.behind_proxy_group.gitea_group.ci_job&#45;&gt;shoggoth_host.behind_proxy_group.apt_cache -->
<g id="edge17" class="edge">
<title>shoggoth_host.behind_proxy_group.gitea_group.ci_job&#45;&gt;shoggoth_host.behind_proxy_group.apt_cache</title>
<path fill="none" stroke="black" d="M713.3,-257.47C723.26,-272.2 738.75,-292.94 759.94,-311.47"/>
<polygon fill="black" stroke="black" points="757.58,-314.06 767.51,-317.75 762.05,-308.67 757.58,-314.06"/>
</g>
<!-- external_services.apt_repos -->
<g id="node19" class="node">
<title>external_services.apt_repos</title>
<path fill="honeydew" stroke="black" d="M1027.9,-200.29C1027.9,-203.14 1002.65,-205.46 971.57,-205.46 940.5,-205.46 915.25,-203.14 915.25,-200.29 915.25,-200.29 915.25,-153.71 915.25,-153.71 915.25,-150.86 940.5,-148.54 971.57,-148.54 1002.65,-148.54 1027.9,-150.86 1027.9,-153.71 1027.9,-153.71 1027.9,-200.29 1027.9,-200.29"/>
<path fill="none" stroke="black" d="M1027.9,-200.29C1027.9,-197.43 1002.65,-195.11 971.57,-195.11 940.5,-195.11 915.25,-197.43 915.25,-200.29"/>
<text text-anchor="middle" x="971.57" y="-180.05" font-family="Times,serif" font-size="11.00">APT Repositories</text>
<text text-anchor="middle" x="971.57" y="-166.55" font-family="Times,serif" font-size="11.00">(Ubuntu/Debian)</text>
</g>
<!-- shoggoth_host.behind_proxy_group.apt_cache&#45;&gt;external_services.apt_repos -->
<g id="edge18" class="edge">
<title>shoggoth_host.behind_proxy_group.apt_cache&#45;&gt;external_services.apt_repos</title>
<path fill="none" stroke="black" d="M854.98,-324.17C860.52,-321.61 865.89,-318.57 870.62,-315 905.64,-288.59 933.62,-246.5 950.97,-215.73"/>
<polygon fill="black" stroke="black" points="953.96,-217.55 955.71,-207.1 947.83,-214.18 953.96,-217.55"/>
</g>
<!-- client_host.client_browser -->
<g id="node20" class="node">
<title>client_host.client_browser</title>
<polygon fill="lightyellow" stroke="black" points="98.65,-442 36.25,-442 36.25,-406 98.65,-406 98.65,-442"/>
<text text-anchor="middle" x="67.45" y="-420.3" font-family="Times,serif" font-size="11.00">Browser</text>
</g>
<!-- client_host.client_browser&#45;&gt;shoggoth_host.direct_access_group.service_proxy.proxy_services.proxy_git_http -->
<g id="edge13" class="edge">
<title>client_host.client_browser&#45;&gt;shoggoth_host.direct_access_group.service_proxy.proxy_services.proxy_git_http</title>
<path fill="none" stroke="black" d="M98.82,-429.21C124.4,-433.59 161.1,-439.88 188.5,-444.58"/>
<polygon fill="black" stroke="black" points="187.68,-447.99 198.13,-446.23 188.86,-441.09 187.68,-447.99"/>
</g>
<!-- client_host.client_browser&#45;&gt;shoggoth_host.direct_access_group.service_proxy.home_page -->
<g id="edge23" class="edge">
<title>client_host.client_browser&#45;&gt;shoggoth_host.direct_access_group.service_proxy.home_page</title>
<path fill="none" stroke="black" d="M79.62,-442.41C91.89,-461.11 113.31,-489.58 138.9,-506 150.59,-513.5 164.57,-518.8 177.87,-522.52"/>
<polygon fill="black" stroke="black" points="176.8,-525.86 187.36,-524.92 178.52,-519.07 176.8,-525.86"/>
</g>
<!-- client_host.client_ccache -->
<g id="node21" class="node">
<title>client_host.client_ccache</title>
<polygon fill="lightyellow" stroke="black" points="117.77,-226 17.12,-226 17.12,-190 117.77,-190 117.77,-226"/>
<text text-anchor="middle" x="67.45" y="-204.3" font-family="Times,serif" font-size="11.00">ccache/sccache</text>
</g>
<!-- client_host.client_ccache&#45;&gt;shoggoth_host.direct_access_group.service_proxy.build_cache -->
<g id="edge4" class="edge">
<title>client_host.client_ccache&#45;&gt;shoggoth_host.direct_access_group.service_proxy.build_cache</title>
<path fill="none" stroke="black" d="M117.86,-197.34C135.94,-193.43 156.43,-189.01 174.68,-185.07"/>
<polygon fill="black" stroke="black" points="175.19,-188.54 184.22,-183.01 173.71,-181.7 175.19,-188.54"/>
</g>
<!-- client_host.ai_agent -->
<g id="node22" class="node">
<title>client_host.ai_agent</title>
<polygon fill="lightyellow" stroke="black" points="118.9,-334 16,-334 16,-298 118.9,-298 118.9,-334"/>
<text text-anchor="middle" x="67.45" y="-312.3" font-family="Times,serif" font-size="11.00">AI coding agent</text>
</g>
<!-- client_host.ai_agent&#45;&gt;shoggoth_host.direct_access_group.service_proxy.proxy_services.proxy_ollama -->
<g id="edge25" class="edge">
<title>client_host.ai_agent&#45;&gt;shoggoth_host.direct_access_group.service_proxy.proxy_services.proxy_ollama</title>
<path fill="none" stroke="black" d="M119.16,-324.69C141.22,-328.47 166.65,-332.83 187.16,-336.35"/>
<polygon fill="black" stroke="black" points="186.37,-339.76 196.81,-338 187.55,-332.86 186.37,-339.76"/>
</g>
<!-- client_host.ai_agent&#45;&gt;shoggoth_host.direct_access_group.service_proxy.proxy_services.proxy_mcp -->
<g id="edge24" class="edge">
<title>client_host.ai_agent&#45;&gt;shoggoth_host.direct_access_group.service_proxy.proxy_services.proxy_mcp</title>
<path fill="none" stroke="black" d="M119.16,-307.31C138.23,-304.04 159.82,-300.34 178.57,-297.12"/>
<polygon fill="black" stroke="black" points="179.08,-300.59 188.34,-295.45 177.9,-293.69 179.08,-300.59"/>
</g>
<!-- client_host.client_docker -->
<g id="node23" class="node">
<title>client_host.client_docker</title>
<polygon fill="lightyellow" stroke="black" points="94.45,-172 40.45,-172 40.45,-136 94.45,-136 94.45,-172"/>
<text text-anchor="middle" x="67.45" y="-150.3" font-family="Times,serif" font-size="11.00">docker</text>
</g>
<!-- client_host.client_docker&#45;&gt;shoggoth_host.direct_access_group.docker_cache -->
<g id="edge26" class="edge">
<title>client_host.client_docker&#45;&gt;shoggoth_host.direct_access_group.docker_cache</title>
<path fill="none" stroke="black" d="M94.82,-147.64C108.45,-144.35 125.92,-140.14 143.63,-135.86"/>
<polygon fill="black" stroke="black" points="144.29,-139.31 153.19,-133.56 142.65,-132.5 144.29,-139.31"/>
</g>
<!-- client_host.client_git -->
<g id="node24" class="node">
<title>client_host.client_git</title>
<polygon fill="lightyellow" stroke="black" points="94.45,-280 40.45,-280 40.45,-244 94.45,-244 94.45,-280"/>
<text text-anchor="middle" x="67.45" y="-258.3" font-family="Times,serif" font-size="11.00">git</text>
</g>
<!-- client_host.client_git&#45;&gt;shoggoth_host.direct_access_group.service_proxy.proxy_services.proxy_git -->
<g id="edge20" class="edge">
<title>client_host.client_git&#45;&gt;shoggoth_host.direct_access_group.service_proxy.proxy_services.proxy_git</title>
<path fill="none" stroke="black" d="M94.82,-256.98C120.37,-252.11 159.4,-244.68 188.24,-239.19"/>
<polygon fill="black" stroke="black" points="188.87,-242.63 198.04,-237.32 187.56,-235.75 188.87,-242.63"/>
</g>
<!-- client_host.client_apt -->
<g id="node25" class="node">
<title>client_host.client_apt</title>
<polygon fill="lightyellow" stroke="black" points="94.45,-388 40.45,-388 40.45,-352 94.45,-352 94.45,-388"/>
<text text-anchor="middle" x="67.45" y="-366.3" font-family="Times,serif" font-size="11.00">apt</text>
</g>
<!-- client_host.client_apt&#45;&gt;shoggoth_host.direct_access_group.service_proxy.proxy_services.proxy_apt -->
<g id="edge11" class="edge">
<title>client_host.client_apt&#45;&gt;shoggoth_host.direct_access_group.service_proxy.proxy_services.proxy_apt</title>
<path fill="none" stroke="black" d="M94.82,-374.52C117.91,-378.48 152,-384.32 179.64,-389.06"/>
<polygon fill="black" stroke="black" points="178.71,-392.45 189.16,-390.69 179.89,-385.55 178.71,-392.45"/>
</g>
</g>
</svg>
