<?xml version="1.0" encoding="UTF-8" standalone="no"?>
<!DOCTYPE svg PUBLIC "-//W3C//DTD SVG 1.1//EN"
 "http://www.w3.org/Graphics/SVG/1.1/DTD/svg11.dtd">
<!-- Generated by graphviz version 12.2.1 (20241206.2353)
 -->
<!-- Title: architecture Pages: 1 -->
<svg width="1163pt" height="614pt"
 viewBox="0.00 0.00 1162.77 614.00" xmlns="http://www.w3.org/2000/svg" xmlns:xlink="http://www.w3.org/1999/xlink">
<g id="graph0" class="graph" transform="scale(1 1) rotate(0) translate(4 610)">
<title>architecture</title>
<polygon fill="white" stroke="none" points="-4,4 -4,-610 1158.77,-610 1158.77,4 -4,4"/>
<text text-anchor="middle" x="577.38" y="-9" font-family="Times,serif" font-size="20.00">Shoggoth Service Architecture</text>
<g id="clust1" class="cluster">
<title>client_host</title>
<polygon fill="#f0f0f0" stroke="black" stroke-dasharray="5,2" points="8,-184 8,-484 130.65,-484 130.65,-184 8,-184"/>
<text text-anchor="middle" x="69.33" y="-461" font-family="Times,serif" font-size="20.00">Client</text>
</g>
<g id="clust2" class="cluster">
<title>external_services</title>
<polygon fill="#fff8dc" stroke="black" stroke-dasharray="5,2" points="957.37,-48 957.37,-304 1153.37,-304 1153.37,-48 957.37,-48"/>
<text text-anchor="middle" x="1055.37" y="-281" font-family="Times,serif" font-size="20.00">External Services</text>
</g>
<g id="clust3" class="cluster">
<title>shoggoth_host</title>
<polygon fill="#e8f4f8" stroke="black" stroke-dasharray="5,2" points="141.11,-40 141.11,-598 945.37,-598 945.37,-40 141.11,-40"/>
<text text-anchor="middle" x="543.24" y="-575" font-family="Times,serif" font-size="20.00">Shoggoth</text>
</g>
<g id="clust4" class="cluster">
<title>shoggoth_host.behind_proxy_group</title>
</g>
<g id="clust5" class="cluster">
<title>shoggoth_host.behind_proxy_group.gitea_group</title>
<polygon fill="#e8f4f8" stroke="black" points="377.95,-226 377.95,-310 801.47,-310 801.47,-226 377.95,-226"/>
<text text-anchor="middle" x="589.71" y="-287" font-family="Times,serif" font-size="20.00">Gitea</text>
</g>
<g id="clust6" class="cluster">
<title>shoggoth_host.direct_access_group</title>
</g>
<g id="clust7" class="cluster">
<title>shoggoth_host.direct_access_group.service_proxy</title>
<polygon fill="#e0f0e0" stroke="black" stroke-dasharray="5,2" points="157.11,-197 157.11,-550 294.61,-550 294.61,-197 157.11,-197"/>
<text text-anchor="middle" x="225.86" y="-527" font-family="Times,serif" font-size="20.00">web (Angie)</text>
</g>
<g id="clust8" class="cluster">
<title>shoggoth_host.direct_access_group.service_proxy.proxy_services</title>
<polygon fill="#f0f8ff" stroke="black" stroke-dasharray="5,2" points="179.49,-205 179.49,-464 271.24,-464 271.24,-205 179.49,-205"/>
<text text-anchor="middle" x="225.36" y="-441" font-family="Times,serif" font-size="20.00">Proxies</text>
</g>
<!-- client_host.ai_agent -->
<g id="node1" class="node">
<title>client_host.ai_agent</title>
<polygon fill="lightyellow" stroke="black" points="122.65,-336 16,-336 16,-300 122.65,-300 122.65,-336"/>
<text text-anchor="middle" x="69.33" y="-314.3" font-family="Times,serif" font-size="11.00">AI Coding Agent</text>
</g>
<!-- shoggoth_host.direct_access_group.service_proxy.proxy_services.proxy_ollama -->
<g id="node15" class="node">
<title>shoggoth_host.direct_access_group.service_proxy.proxy_services.proxy_ollama</title>
<ellipse fill="lightgreen" stroke="black" cx="224.86" cy="-347" rx="37.23" ry="19.73"/>
<text text-anchor="middle" x="224.86" y="-343.3" font-family="Times,serif" font-size="11.00">ollama</text>
</g>
<!-- client_host.ai_agent&#45;&gt;shoggoth_host.direct_access_group.service_proxy.proxy_services.proxy_ollama -->
<g id="edge1" class="edge">
<title>client_host.ai_agent&#45;&gt;shoggoth_host.direct_access_group.service_proxy.proxy_services.proxy_ollama</title>
<path fill="none" stroke="black" d="M122.74,-327.9C140.84,-331.32 160.95,-335.12 178.45,-338.42"/>
<polygon fill="black" stroke="black" points="177.55,-341.81 188.03,-340.23 178.85,-334.94 177.55,-341.81"/>
</g>
<!-- shoggoth_host.direct_access_group.service_proxy.proxy_services.proxy_mcp -->
<g id="node18" class="node">
<title>shoggoth_host.direct_access_group.service_proxy.proxy_services.proxy_mcp</title>
<ellipse fill="lightgreen" stroke="black" cx="224.86" cy="-290" rx="27" ry="19.73"/>
<text text-anchor="middle" x="224.86" y="-286.3" font-family="Times,serif" font-size="11.00">mcp</text>
</g>
<!-- client_host.ai_agent&#45;&gt;shoggoth_host.direct_access_group.service_proxy.proxy_services.proxy_mcp -->
<g id="edge2" class="edge">
<title>client_host.ai_agent&#45;&gt;shoggoth_host.direct_access_group.service_proxy.proxy_services.proxy_mcp</title>
<path fill="none" stroke="black" d="M122.74,-308.44C143.89,-304.59 167.79,-300.23 187.04,-296.71"/>
<polygon fill="black" stroke="black" points="187.67,-300.16 196.88,-294.92 186.41,-293.27 187.67,-300.16"/>
</g>
<!-- client_host.client_git -->
<g id="node2" class="node">
<title>client_host.client_git</title>
<polygon fill="lightyellow" stroke="black" points="96.33,-282 42.33,-282 42.33,-246 96.33,-246 96.33,-282"/>
<text text-anchor="middle" x="69.33" y="-260.3" font-family="Times,serif" font-size="11.00">git</text>
</g>
<!-- shoggoth_host.direct_access_group.service_proxy.proxy_services.proxy_git -->
<g id="node16" class="node">
<title>shoggoth_host.direct_access_group.service_proxy.proxy_services.proxy_git</title>
<ellipse fill="lightgreen" stroke="black" cx="224.86" cy="-233" rx="27" ry="19.73"/>
<text text-anchor="middle" x="224.86" y="-229.3" font-family="Times,serif" font-size="11.00">git</text>
</g>
<!-- client_host.client_git&#45;&gt;shoggoth_host.direct_access_group.service_proxy.proxy_services.proxy_git -->
<g id="edge16" class="edge">
<title>client_host.client_git&#45;&gt;shoggoth_host.direct_access_group.service_proxy.proxy_services.proxy_git</title>
<path fill="none" stroke="black" d="M96.72,-258.67C121.63,-253.64 159.2,-246.06 187.05,-240.43"/>
<polygon fill="black" stroke="black" points="187.73,-243.87 196.84,-238.46 186.35,-237 187.73,-243.87"/>
</g>
<!-- client_host.client_docker -->
<g id="node3" class="node">
<title>client_host.client_docker</title>
<polygon fill="lightyellow" stroke="black" points="96.33,-228 42.33,-228 42.33,-192 96.33,-192 96.33,-228"/>
<text text-anchor="middle" x="69.33" y="-206.3" font-family="Times,serif" font-size="11.00">docker</text>
</g>
<!-- shoggoth_host.direct_access_group.docker_cache -->
<g id="node21" class="node">
<title>shoggoth_host.direct_access_group.docker_cache</title>
<path fill="lightblue" stroke="black" d="M275.94,-107.29C275.94,-110.14 253.05,-112.46 224.86,-112.46 196.68,-112.46 173.79,-110.14 173.79,-107.29 173.79,-107.29 173.79,-60.71 173.79,-60.71 173.79,-57.86 196.68,-55.54 224.86,-55.54 253.05,-55.54 275.94,-57.86 275.94,-60.71 275.94,-60.71 275.94,-107.29 275.94,-107.29"/>
<path fill="none" stroke="black" d="M275.94,-107.29C275.94,-104.43 253.05,-102.11 224.86,-102.11 196.68,-102.11 173.79,-104.43 173.79,-107.29"/>
<text text-anchor="middle" x="224.86" y="-87.05" font-family="Times,serif" font-size="11.00">docker&#45;cache</text>
<text text-anchor="middle" x="224.86" y="-73.55" font-family="Times,serif" font-size="11.00">(registry proxy)</text>
</g>
<!-- client_host.client_docker&#45;&gt;shoggoth_host.direct_access_group.docker_cache -->
<g id="edge24" class="edge">
<title>client_host.client_docker&#45;&gt;shoggoth_host.direct_access_group.docker_cache</title>
<path fill="none" stroke="black" d="M81.35,-191.73C93.83,-172.32 115.75,-141.76 141.11,-122 147.95,-116.67 155.66,-111.88 163.55,-107.64"/>
<polygon fill="black" stroke="black" points="164.89,-110.89 172.24,-103.26 161.73,-104.64 164.89,-110.89"/>
</g>
<!-- client_host.client_ccache -->
<g id="node4" class="node">
<title>client_host.client_ccache</title>
<polygon fill="lightyellow" stroke="black" points="119.65,-444 19,-444 19,-408 119.65,-408 119.65,-444"/>
<text text-anchor="middle" x="69.33" y="-422.3" font-family="Times,serif" font-size="11.00">ccache/sccache</text>
</g>
<!-- shoggoth_host.direct_access_group.service_proxy.build_cache -->
<g id="node19" class="node">
<title>shoggoth_host.direct_access_group.service_proxy.build_cache</title>
<path fill="lightblue" stroke="black" d="M263.94,-506.69C263.94,-508.62 246.43,-510.18 224.86,-510.18 203.3,-510.18 185.79,-508.62 185.79,-506.69 185.79,-506.69 185.79,-475.31 185.79,-475.31 185.79,-473.38 203.3,-471.82 224.86,-471.82 246.43,-471.82 263.94,-473.38 263.94,-475.31 263.94,-475.31 263.94,-506.69 263.94,-506.69"/>
<path fill="none" stroke="black" d="M263.94,-506.69C263.94,-504.77 246.43,-503.21 224.86,-503.21 203.3,-503.21 185.79,-504.77 185.79,-506.69"/>
<text text-anchor="middle" x="224.86" y="-487.3" font-family="Times,serif" font-size="11.00">build&#45;cache</text>
</g>
<!-- client_host.client_ccache&#45;&gt;shoggoth_host.direct_access_group.service_proxy.build_cache -->
<g id="edge25" class="edge">
<title>client_host.client_ccache&#45;&gt;shoggoth_host.direct_access_group.service_proxy.build_cache</title>
<path fill="none" stroke="black" d="M97.34,-444.32C110.18,-452.42 126,-461.55 141.11,-468 151.71,-472.52 163.44,-476.41 174.67,-479.63"/>
<polygon fill="black" stroke="black" points="173.63,-482.98 184.2,-482.23 175.47,-476.22 173.63,-482.98"/>
</g>
<!-- client_host.client_apt -->
<g id="node5" class="node">
<title>client_host.client_apt</title>
<polygon fill="lightyellow" stroke="black" points="96.33,-390 42.33,-390 42.33,-354 96.33,-354 96.33,-390"/>
<text text-anchor="middle" x="69.33" y="-368.3" font-family="Times,serif" font-size="11.00">apt</text>
</g>
<!-- shoggoth_host.direct_access_group.service_proxy.proxy_services.proxy_apt -->
<g id="node17" class="node">
<title>shoggoth_host.direct_access_group.service_proxy.proxy_services.proxy_apt</title>
<ellipse fill="lightgreen" stroke="black" cx="224.86" cy="-404" rx="27" ry="19.73"/>
<text text-anchor="middle" x="224.86" y="-400.3" font-family="Times,serif" font-size="11.00">apt</text>
</g>
<!-- client_host.client_apt&#45;&gt;shoggoth_host.direct_access_group.service_proxy.proxy_services.proxy_apt -->
<g id="edge26" class="edge">
<title>client_host.client_apt&#45;&gt;shoggoth_host.direct_access_group.service_proxy.proxy_services.proxy_apt</title>
<path fill="none" stroke="black" d="M96.72,-377.5C121.81,-382.73 159.77,-390.64 187.67,-396.46"/>
<polygon fill="black" stroke="black" points="186.59,-399.81 197.1,-398.42 188.02,-392.95 186.59,-399.81"/>
</g>
<!-- external_services.docker_registries -->
<g id="node6" class="node">
<title>external_services.docker_registries</title>
<path fill="honeydew" stroke="black" d="M1135.95,-107.29C1135.95,-110.14 1099.61,-112.46 1054.87,-112.46 1010.14,-112.46 973.8,-110.14 973.8,-107.29 973.8,-107.29 973.8,-60.71 973.8,-60.71 973.8,-57.86 1010.14,-55.54 1054.87,-55.54 1099.61,-55.54 1135.95,-57.86 1135.95,-60.71 1135.95,-60.71 1135.95,-107.29 1135.95,-107.29"/>
<path fill="none" stroke="black" d="M1135.95,-107.29C1135.95,-104.43 1099.61,-102.11 1054.87,-102.11 1010.14,-102.11 973.8,-104.43 973.8,-107.29"/>
<text text-anchor="middle" x="1054.87" y="-87.05" font-family="Times,serif" font-size="11.00">Docker Registries</text>
<text text-anchor="middle" x="1054.87" y="-73.55" font-family="Times,serif" font-size="11.00">(Docker Hub, GHCR, etc.)</text>
</g>
<!-- external_services.external_dns -->
<g id="node7" class="node">
<title>external_services.external_dns</title>
<ellipse fill="honeydew" stroke="black" cx="1054.87" cy="-160" rx="83.9" ry="29.27"/>
<text text-anchor="middle" x="1054.87" y="-163.05" font-family="Times,serif" font-size="11.00">External DNS</text>
<text text-anchor="middle" x="1054.87" y="-149.55" font-family="Times,serif" font-size="11.00">(Public/Corporate)</text>
</g>
<!-- external_services.apt_repos -->
<g id="node8" class="node">
<title>external_services.apt_repos</title>
<path fill="honeydew" stroke="black" d="M1111.2,-259.29C1111.2,-262.14 1085.95,-264.46 1054.87,-264.46 1023.79,-264.46 998.55,-262.14 998.55,-259.29 998.55,-259.29 998.55,-212.71 998.55,-212.71 998.55,-209.86 1023.79,-207.54 1054.87,-207.54 1085.95,-207.54 1111.2,-209.86 1111.2,-212.71 1111.2,-212.71 1111.2,-259.29 1111.2,-259.29"/>
<path fill="none" stroke="black" d="M1111.2,-259.29C1111.2,-256.43 1085.95,-254.11 1054.87,-254.11 1023.79,-254.11 998.55,-256.43 998.55,-259.29"/>
<text text-anchor="middle" x="1054.87" y="-239.05" font-family="Times,serif" font-size="11.00">APT Repositories</text>
<text text-anchor="middle" x="1054.87" y="-225.55" font-family="Times,serif" font-size="11.00">(Ubuntu/Debian)</text>
</g>
<!-- shoggoth_host.behind_proxy_group.ollama_service -->
<g id="node9" class="node">
<title>shoggoth_host.behind_proxy_group.ollama_service</title>
<polygon fill="plum" stroke="black" points="479.82,-352 446.39,-385.8 379.52,-385.8 346.08,-352 379.52,-318.2 446.39,-318.2 479.82,-352"/>
<text text-anchor="middle" x="412.95" y="-355.05" font-family="Times,serif" font-size="11.00">LLM Server</text>
<text text-anchor="middle" x="412.95" y="-341.55" font-family="Times,serif" font-size="11.00">(ollama)</text>
</g>
<!-- shoggoth_host.behind_proxy_group.gitea_group.ci_job -->
<g id="node10" class="node">
<title>shoggoth_host.behind_proxy_group.gitea_group.ci_job</title>
<polygon fill="lightcoral" stroke="black" points="793.47,-270 739.47,-270 739.47,-266 735.47,-266 735.47,-262 739.47,-262 739.47,-242 735.47,-242 735.47,-238 739.47,-238 739.47,-234 793.47,-234 793.47,-270"/>
<polyline fill="none" stroke="black" points="739.47,-266 743.47,-266 743.47,-262 739.47,-262"/>
<polyline fill="none" stroke="black" points="739.47,-242 743.47,-242 743.47,-238 739.47,-238"/>
<text text-anchor="middle" x="766.47" y="-248.3" font-family="Times,serif" font-size="11.00">CI Job</text>
</g>
<!-- shoggoth_host.behind_proxy_group.apt_cache -->
<g id="node14" class="node">
<title>shoggoth_host.behind_proxy_group.apt_cache</title>
<path fill="lightblue" stroke="black" d="M929.37,-329.29C929.37,-332.14 906.98,-334.46 879.42,-334.46 851.86,-334.46 829.47,-332.14 829.47,-329.29 829.47,-329.29 829.47,-282.71 829.47,-282.71 829.47,-279.86 851.86,-277.54 879.42,-277.54 906.98,-277.54 929.37,-279.86 929.37,-282.71 929.37,-282.71 929.37,-329.29 929.37,-329.29"/>
<path fill="none" stroke="black" d="M929.37,-329.29C929.37,-326.43 906.98,-324.11 879.42,-324.11 851.86,-324.11 829.47,-326.43 829.47,-329.29"/>
<text text-anchor="middle" x="879.42" y="-309.05" font-family="Times,serif" font-size="11.00">apt&#45;cache</text>
<text text-anchor="middle" x="879.42" y="-295.55" font-family="Times,serif" font-size="11.00">(apt&#45;cacher&#45;ng)</text>
</g>
<!-- shoggoth_host.behind_proxy_group.gitea_group.ci_job&#45;&gt;shoggoth_host.behind_proxy_group.apt_cache -->
<g id="edge8" class="edge">
<title>shoggoth_host.behind_proxy_group.gitea_group.ci_job&#45;&gt;shoggoth_host.behind_proxy_group.apt_cache</title>
<path fill="none" stroke="black" d="M793.77,-264.8C801.49,-268.56 810.28,-272.83 819.19,-277.17"/>
<polygon fill="black" stroke="black" points="817.38,-280.18 827.9,-281.41 820.44,-273.89 817.38,-280.18"/>
</g>
<!-- shoggoth_host.behind_proxy_group.gitea_group.ci_job&#45;&gt;shoggoth_host.direct_access_group.service_proxy.build_cache -->
<g id="edge10" class="edge">
<title>shoggoth_host.behind_proxy_group.gitea_group.ci_job&#45;&gt;shoggoth_host.direct_access_group.service_proxy.build_cache</title>
<path fill="none" stroke="black" d="M754.84,-270.5C743.8,-288.47 725.13,-315.66 703.47,-334 617.87,-406.5 586.34,-415.81 479.82,-451 411.07,-473.72 327.47,-483.7 275.45,-487.97"/>
<polygon fill="black" stroke="black" points="275.42,-484.47 265.72,-488.73 275.96,-491.45 275.42,-484.47"/>
</g>
<!-- shoggoth_host.direct_access_group.dns_service -->
<g id="node20" class="node">
<title>shoggoth_host.direct_access_group.dns_service</title>
<ellipse fill="lightgreen" stroke="black" cx="224.86" cy="-160" rx="51.55" ry="29.27"/>
<text text-anchor="middle" x="224.86" y="-163.05" font-family="Times,serif" font-size="11.00">DNS</text>
<text text-anchor="middle" x="224.86" y="-149.55" font-family="Times,serif" font-size="11.00">(Unbound)</text>
</g>
<!-- shoggoth_host.behind_proxy_group.gitea_group.ci_job&#45;&gt;shoggoth_host.direct_access_group.dns_service -->
<g id="edge9" class="edge">
<title>shoggoth_host.behind_proxy_group.gitea_group.ci_job&#45;&gt;shoggoth_host.direct_access_group.dns_service</title>
<path fill="none" stroke="black" d="M742.88,-270.34C696.85,-306.28 587.44,-384.61 479.82,-409 418.38,-422.92 386.22,-449.63 338.08,-409 266.41,-348.52 357.45,-277.08 302.61,-201 296.58,-192.63 288.31,-185.81 279.41,-180.3"/>
<polygon fill="black" stroke="black" points="281.36,-177.38 270.92,-175.57 277.95,-183.5 281.36,-177.38"/>
</g>
<!-- shoggoth_host.behind_proxy_group.gitea_group.git_service -->
<g id="node11" class="node">
<title>shoggoth_host.behind_proxy_group.gitea_group.git_service</title>
<polygon fill="lightcoral" stroke="black" points="569.82,-270 515.82,-270 515.82,-266 511.82,-266 511.82,-262 515.82,-262 515.82,-242 511.82,-242 511.82,-238 515.82,-238 515.82,-234 569.82,-234 569.82,-270"/>
<polyline fill="none" stroke="black" points="515.82,-266 519.82,-266 519.82,-262 515.82,-262"/>
<polyline fill="none" stroke="black" points="515.82,-242 519.82,-242 519.82,-238 515.82,-238"/>
<text text-anchor="middle" x="542.82" y="-248.3" font-family="Times,serif" font-size="11.00">Gitea</text>
</g>
<!-- shoggoth_host.behind_proxy_group.gitea_group.gitea_runner -->
<g id="node13" class="node">
<title>shoggoth_host.behind_proxy_group.gitea_group.gitea_runner</title>
<polygon fill="lightcoral" stroke="black" points="703.47,-270 605.82,-270 605.82,-266 601.82,-266 601.82,-262 605.82,-262 605.82,-242 601.82,-242 601.82,-238 605.82,-238 605.82,-234 703.47,-234 703.47,-270"/>
<polyline fill="none" stroke="black" points="605.82,-266 609.82,-266 609.82,-262 605.82,-262"/>
<polyline fill="none" stroke="black" points="605.82,-242 609.82,-242 609.82,-238 605.82,-238"/>
<text text-anchor="middle" x="654.65" y="-248.3" font-family="Times,serif" font-size="11.00">Actions runner</text>
</g>
<!-- shoggoth_host.behind_proxy_group.gitea_group.git_service&#45;&gt;shoggoth_host.behind_proxy_group.gitea_group.gitea_runner -->
<g id="edge14" class="edge">
<title>shoggoth_host.behind_proxy_group.gitea_group.git_service&#45;&gt;shoggoth_host.behind_proxy_group.gitea_group.gitea_runner</title>
<path fill="none" stroke="black" d="M570.13,-252C577.46,-252 585.73,-252 594.15,-252"/>
<polygon fill="black" stroke="black" points="594.13,-255.5 604.13,-252 594.13,-248.5 594.13,-255.5"/>
</g>
<!-- shoggoth_host.behind_proxy_group.gitea_group.gitea_mcp -->
<g id="node12" class="node">
<title>shoggoth_host.behind_proxy_group.gitea_group.gitea_mcp</title>
<polygon fill="lightcoral" stroke="black" points="439.95,-270 385.95,-270 385.95,-266 381.95,-266 381.95,-262 385.95,-262 385.95,-242 381.95,-242 381.95,-238 385.95,-238 385.95,-234 439.95,-234 439.95,-270"/>
<polyline fill="none" stroke="black" points="385.95,-266 389.95,-266 389.95,-262 385.95,-262"/>
<polyline fill="none" stroke="black" points="385.95,-242 389.95,-242 389.95,-238 385.95,-238"/>
<text text-anchor="middle" x="412.95" y="-248.3" font-family="Times,serif" font-size="11.00">mcp</text>
</g>
<!-- shoggoth_host.behind_proxy_group.gitea_group.gitea_mcp&#45;&gt;shoggoth_host.behind_proxy_group.gitea_group.git_service -->
<g id="edge11" class="edge">
<title>shoggoth_host.behind_proxy_group.gitea_group.gitea_mcp&#45;&gt;shoggoth_host.behind_proxy_group.gitea_group.git_service</title>
<path fill="none" stroke="black" d="M440.45,-252C458.79,-252 483.49,-252 503.91,-252"/>
<polygon fill="black" stroke="black" points="503.85,-255.5 513.85,-252 503.85,-248.5 503.85,-255.5"/>
</g>
<!-- shoggoth_host.behind_proxy_group.gitea_group.gitea_runner&#45;&gt;shoggoth_host.behind_proxy_group.gitea_group.ci_job -->
<g id="edge7" class="edge">
<title>shoggoth_host.behind_proxy_group.gitea_group.gitea_runner&#45;&gt;shoggoth_host.behind_proxy_group.gitea_group.ci_job</title>
<path fill="none" stroke="black" d="M703.82,-252C711.85,-252 720.09,-252 727.81,-252"/>
<polygon fill="black" stroke="black" points="727.54,-255.5 737.54,-252 727.54,-248.5 727.54,-255.5"/>
</g>
<!-- shoggoth_host.behind_proxy_group.gitea_group.gitea_runner&#45;&gt;shoggoth_host.direct_access_group.docker_cache -->
<g id="edge23" class="edge">
<title>shoggoth_host.behind_proxy_group.gitea_group.gitea_runner&#45;&gt;shoggoth_host.direct_access_group.docker_cache</title>
<path fill="none" stroke="black" d="M639.4,-270.47C612.5,-303.65 550.55,-372.24 479.82,-398 450.23,-408.78 361.73,-418.8 338.08,-398 245.22,-316.31 374.42,-222.7 302.61,-122 298.15,-115.74 292.35,-110.45 285.95,-106.01"/>
<polygon fill="black" stroke="black" points="287.87,-103.08 277.51,-100.87 284.23,-109.06 287.87,-103.08"/>
</g>
<!-- shoggoth_host.behind_proxy_group.apt_cache&#45;&gt;external_services.apt_repos -->
<g id="edge19" class="edge">
<title>shoggoth_host.behind_proxy_group.apt_cache&#45;&gt;external_services.apt_repos</title>
<path fill="none" stroke="black" d="M929.66,-286.13C947.66,-278.86 968.33,-270.52 987.57,-262.76"/>
<polygon fill="black" stroke="black" points="988.73,-266.07 996.69,-259.08 986.11,-259.57 988.73,-266.07"/>
</g>
<!-- shoggoth_host.direct_access_group.service_proxy.proxy_services.proxy_ollama&#45;&gt;shoggoth_host.behind_proxy_group.ollama_service -->
<g id="edge4" class="edge">
<title>shoggoth_host.direct_access_group.service_proxy.proxy_services.proxy_ollama&#45;&gt;shoggoth_host.behind_proxy_group.ollama_service</title>
<path fill="none" stroke="black" d="M262.19,-347.98C283.28,-348.54 310.68,-349.28 336.26,-349.97"/>
<polygon fill="black" stroke="black" points="335.86,-353.46 345.95,-350.23 336.05,-346.46 335.86,-353.46"/>
</g>
<!-- shoggoth_host.direct_access_group.service_proxy.proxy_services.proxy_git&#45;&gt;shoggoth_host.behind_proxy_group.gitea_group.git_service -->
<g id="edge13" class="edge">
<title>shoggoth_host.direct_access_group.service_proxy.proxy_services.proxy_git&#45;&gt;shoggoth_host.behind_proxy_group.gitea_group.git_service</title>
<path fill="none" stroke="black" d="M249.95,-224.84C295.81,-210.6 398.35,-185 479.82,-210 491.29,-213.52 502.54,-219.95 512.25,-226.75"/>
<polygon fill="black" stroke="black" points="510.06,-229.49 520.17,-232.66 514.25,-223.88 510.06,-229.49"/>
</g>
<!-- shoggoth_host.direct_access_group.service_proxy.proxy_services.proxy_apt&#45;&gt;shoggoth_host.behind_proxy_group.apt_cache -->
<g id="edge17" class="edge">
<title>shoggoth_host.direct_access_group.service_proxy.proxy_services.proxy_apt&#45;&gt;shoggoth_host.behind_proxy_group.apt_cache</title>
<path fill="none" stroke="black" d="M251.08,-410.1C273.7,-415.24 307.88,-422.2 338.08,-425 400.81,-430.82 417.49,-434.11 479.82,-425 603.36,-406.95 741.81,-359.02 818.7,-329.79"/>
<polygon fill="black" stroke="black" points="819.64,-333.18 827.72,-326.33 817.13,-326.64 819.64,-333.18"/>
</g>
<!-- shoggoth_host.direct_access_group.service_proxy.proxy_services.proxy_mcp&#45;&gt;shoggoth_host.behind_proxy_group.gitea_group.gitea_mcp -->
<g id="edge20" class="edge">
<title>shoggoth_host.direct_access_group.service_proxy.proxy_services.proxy_mcp&#45;&gt;shoggoth_host.behind_proxy_group.gitea_group.gitea_mcp</title>
<path fill="none" stroke="black" d="M251.35,-284.8C283.14,-278.3 337.78,-267.15 374.38,-259.67"/>
<polygon fill="black" stroke="black" points="374.99,-263.12 384.09,-257.69 373.59,-256.26 374.99,-263.12"/>
</g>
<!-- shoggoth_host.direct_access_group.service_proxy.build_cache&#45;&gt;shoggoth_host.behind_proxy_group.ollama_service -->
<!-- shoggoth_host.direct_access_group.service_proxy.build_cache&#45;&gt;shoggoth_host.behind_proxy_group.gitea_group.ci_job -->
<!-- shoggoth_host.direct_access_group.service_proxy.build_cache&#45;&gt;shoggoth_host.behind_proxy_group.gitea_group.git_service -->
<!-- shoggoth_host.direct_access_group.service_proxy.build_cache&#45;&gt;shoggoth_host.behind_proxy_group.gitea_group.gitea_mcp -->
<!-- shoggoth_host.direct_access_group.service_proxy.build_cache&#45;&gt;shoggoth_host.behind_proxy_group.gitea_group.gitea_runner -->
<!-- shoggoth_host.direct_access_group.service_proxy.build_cache&#45;&gt;shoggoth_host.behind_proxy_group.apt_cache -->
<!-- shoggoth_host.direct_access_group.dns_service&#45;&gt;external_services.external_dns -->
<g id="edge15" class="edge">
<title>shoggoth_host.direct_access_group.dns_service&#45;&gt;external_services.external_dns</title>
<path fill="none" stroke="black" d="M276.76,-160C339.2,-160 448.3,-160 541.82,-160 541.82,-160 541.82,-160 767.47,-160 831.43,-160 903.43,-160 959.24,-160"/>
<polygon fill="black" stroke="black" points="959.02,-163.5 969.02,-160 959.02,-156.5 959.02,-163.5"/>
</g>
<!-- shoggoth_host.direct_access_group.docker_cache&#45;&gt;external_services.docker_registries -->
<g id="edge3" class="edge">
<title>shoggoth_host.direct_access_group.docker_cache&#45;&gt;external_services.docker_registries</title>
<path fill="none" stroke="black" d="M276.21,-84C338.56,-84 448.02,-84 541.82,-84 541.82,-84 541.82,-84 767.47,-84 832.48,-84 905.79,-84 961.96,-84"/>
<polygon fill="black" stroke="black" points="961.81,-87.5 971.81,-84 961.81,-80.5 961.81,-87.5"/>
</g>
</g>
</svg>
